<?xml version="1.0" encoding="UTF-8"?><svg id="Layer_1" xmlns="http://www.w3.org/2000/svg" width="30" height="30" viewBox="0 0 30 30"><defs><style>.cls-1{fill:#fff;}.cls-2{fill:#ec1c24;}</style></defs><path class="cls-2" d="m15,0C23.28,0,30,6.72,30,15s-6.72,15-15,15S0,23.29,0,15,6.72,0,15,0"/><path class="cls-1" d="m15,30C6.73,30,0,23.27,0,15S6.73,0,15,0s15,6.73,15,15-6.73,15-15,15Zm0-28C7.83,2,2,7.83,2,15s5.83,13,13,13,13-5.83,13-13S22.17,2,15,2Z"/><rect class="cls-1" x="14" y="8.92" width="2" height="11.62"/><rect class="cls-1" x="9.19" y="13.73" width="11.62" height="2"/></svg>