<?xml version="1.0" encoding="utf-8"?>
<!-- Generator: Adobe Illustrator 27.4.1, SVG Export Plug-In . SVG Version: 6.00 Build 0)  -->
<svg version="1.1" id="Layer_1" xmlns="http://www.w3.org/2000/svg" xmlns:xlink="http://www.w3.org/1999/xlink" x="0px" y="0px"
	 width="19.4px" height="19.4px" viewBox="0 0 19.4 19.4" style="enable-background:new 0 0 19.4 19.4;" xml:space="preserve">
<style type="text/css">
	.st0{fill:#315892;}
</style>
<g>
	<g id="Ellipse_41">
		<path class="st0" d="M9.7,19.4C4.4,19.4,0,15.1,0,9.7S4.4,0,9.7,0c5.4,0,9.7,4.4,9.7,9.7S15.1,19.4,9.7,19.4z M9.7,1.4
			c-4.6,0-8.4,3.8-8.4,8.4c0,4.6,3.8,8.4,8.4,8.4c4.6,0,8.4-3.8,8.4-8.4C18.1,5.1,14.3,1.4,9.7,1.4z"/>
	</g>
	<g id="Path_158">
		<path class="st0" d="M8.5,15.3c-0.2,0-0.5-0.1-0.7-0.3L5,11.8c-0.2-0.2-0.3-0.4-0.2-0.7c0-0.3,0.2-0.5,0.4-0.7
			c0.1-0.1,0.4-0.2,0.6-0.2c0.3,0,0.5,0.1,0.7,0.4l2,2.2l4.5-7.4C13,5.2,13.3,5,13.7,5c0.2,0,0.3,0,0.5,0.1c0.2,0.1,0.4,0.3,0.5,0.6
			c0.1,0.2,0,0.5-0.1,0.7l-5.2,8.5c0,0,0,0-0.1,0.1c-0.2,0.2-0.4,0.3-0.6,0.4C8.6,15.3,8.5,15.3,8.5,15.3z"/>
	</g>
</g>
</svg>
