<svg xmlns="http://www.w3.org/2000/svg" width="40" height="38" viewBox="0 0 40 38">
  <g id="Group_339" data-name="Group 339" transform="translate(-1310 -353)">
    <g id="Path_400" data-name="Path 400" transform="translate(1310 353)" fill="none">
      <path d="M8,0H32a8,8,0,0,1,8,8V30a8,8,0,0,1-8,8H8a8,8,0,0,1-8-8V8A8,8,0,0,1,8,0Z" stroke="none"/>
      <path d="M 8 1 C 4.140190124511719 1 1 4.140190124511719 1 8 L 1 30 C 1 33.85980987548828 4.140190124511719 37 8 37 L 32 37 C 35.85980987548828 37 39 33.85980987548828 39 30 L 39 8 C 39 4.140190124511719 35.85980987548828 1 32 1 L 8 1 M 8 0 L 32 0 C 36.41828155517578 0 40 3.581718444824219 40 8 L 40 30 C 40 34.41828155517578 36.41828155517578 38 32 38 L 8 38 C 3.581718444824219 38 0 34.41828155517578 0 30 L 0 8 C 0 3.581718444824219 3.581718444824219 0 8 0 Z" stroke="none" fill="#275795"/>
    </g>
    <path id="Path_401" data-name="Path 401" d="M22.278,27.149l-8.561-8.561,8.561-8.561" transform="translate(1312.41 389.998) rotate(-90)" fill="none" stroke="#275795" stroke-miterlimit="10" stroke-width="3"/>
  </g>
</svg>
