<svg xmlns="http://www.w3.org/2000/svg" xmlns:xlink="http://www.w3.org/1999/xlink" width="24.791" height="33.614" viewBox="0 0 24.791 33.614">
  <defs>
    <clipPath id="clip-path">
      <rect id="Rectangle_346" data-name="Rectangle 346" width="24.791" height="33.614" transform="translate(0 0.001)" fill="none"/>
    </clipPath>
  </defs>
  <g id="Group_1519" data-name="Group 1519" transform="translate(-329.021 -587.852)">
    <g id="Group_1515" data-name="Group 1515" transform="translate(329.021 587.852)">
      <g id="Group_1513" data-name="Group 1513" clip-path="url(#clip-path)">
        <circle id="Ellipse_131" data-name="Ellipse 131" cx="2.438" cy="2.438" r="2.438" transform="translate(3.05 0.925)" fill="none" stroke="#265795" stroke-linecap="round" stroke-miterlimit="10" stroke-width="1.849"/>
        <path id="Path_886" data-name="Path 886" d="M1.058,13.5c0-2.909,1.522-5.267,4.431-5.267S9.92,10.6,9.92,13.5" fill="none" stroke="#265795" stroke-linecap="round" stroke-miterlimit="10" stroke-width="1.849"/>
        <circle id="Ellipse_132" data-name="Ellipse 132" cx="2.438" cy="2.438" r="2.438" transform="translate(16.996 20.111)" fill="none" stroke="#265795" stroke-linecap="round" stroke-miterlimit="10" stroke-width="1.849"/>
        <path id="Path_887" data-name="Path 887" d="M15,32.69c0-2.909,1.522-5.267,4.431-5.267s4.431,2.358,4.431,5.267" fill="none" stroke="#265795" stroke-linecap="round" stroke-miterlimit="10" stroke-width="1.849"/>
        <path id="Path_888" data-name="Path 888" d="M11.992,28.288h-6.5A4.579,4.579,0,0,1,.924,23.723v-6.5" fill="none" stroke="#265795" stroke-linecap="round" stroke-miterlimit="10" stroke-width="1.849"/>
        <path id="Path_889" data-name="Path 889" d="M11.992,6.153h6.5a4.579,4.579,0,0,1,4.565,4.565v6.5" fill="none" stroke="#265795" stroke-linecap="round" stroke-miterlimit="10" stroke-width="1.849"/>
      </g>
    </g>
  </g>
</svg>
