<svg xmlns="http://www.w3.org/2000/svg" width="30.721" height="30.559" viewBox="0 0 30.721 30.559">
  <g id="Group_156" data-name="Group 156" transform="translate(-1348.324 -358.242)">
    <g id="Path_224" data-name="Path 224" transform="translate(1331.461 334.826)" fill="none" stroke-linecap="round" stroke-miterlimit="10">
      <path d="M35.571,31.2,18.664,48.241v3.933h4.1L39.5,35.381Z" stroke="none"/>
      <path d="M 35.57115173339844 31.19730758666992 L 18.66365051269531 48.24121856689453 L 18.66365051269531 52.17422866821289 L 22.76401138305664 52.17422866821289 L 39.504150390625 35.38134765625 L 35.57115173339844 31.19730758666992 M 35.60600280761719 28.60629653930664 L 42.00910186767578 35.41810989379883 L 23.51124954223633 53.97422790527344 L 16.86365127563477 53.97422790527344 L 16.86365127563477 47.4998664855957 L 35.60600280761719 28.60629653930664 Z" stroke="none" fill="#265795"/>
    </g>
    <path id="Path_225" data-name="Path 225" d="M59.907,25.761,57.019,28.6l-5.245-5.62,2.888-2.842a1.275,1.275,0,0,1,1.8.062l3.511,3.762A1.275,1.275,0,0,1,59.907,25.761Z" transform="translate(1317.704 339.341)" fill="none" stroke="#265795" stroke-linecap="round" stroke-linejoin="round" stroke-width="1.8"/>
  </g>
</svg>
