<?xml version="1.0" encoding="UTF-8"?><svg id="Layer_1" xmlns="http://www.w3.org/2000/svg" width="27.79" height="32" viewBox="0 0 27.79 32"><defs><style>.cls-1{fill:#fff;}.cls-2{fill:#265795;}</style></defs><g id="Path_1233"><path class="cls-1" d="M21.93,7.17H1.99l7.85,10.73v11.91l4.31-3.49v-8.53l7.78-10.62Z"/><path class="cls-2" d="M9.84,30.43c-.09,0-.18-.02-.27-.06-.22-.1-.36-.33-.36-.57v-11.7L1.48,7.54c-.14-.19-.16-.45-.05-.66,.11-.21,.32-.34,.56-.34H21.93c.24,0,.45,.13,.56,.34s.09,.47-.05,.66l-7.65,10.46v8.32c0,.19-.09,.37-.23,.49l-4.31,3.49c-.11,.09-.25,.14-.4,.14ZM3.23,7.8l7.12,9.73c.08,.11,.12,.24,.12,.37v10.59l3.05-2.47v-8.23c0-.13,.04-.26,.12-.37l7.04-9.62H3.23Z"/></g><g id="Ellipse_175"><circle class="cls-1" cx="19.75" cy="8.25" r="6.05"/><path class="cls-2" d="M19.75,14.93c-3.68,0-6.68-3-6.68-6.68s3-6.68,6.68-6.68,6.68,3,6.68,6.68-3,6.68-6.68,6.68Zm0-12.11c-2.99,0-5.42,2.43-5.42,5.42s2.43,5.42,5.42,5.42,5.42-2.43,5.42-5.42-2.43-5.42-5.42-5.42Z"/></g><g id="Path_1236"><path class="cls-2" d="M19.38,11.28c-.16,0-.32-.06-.44-.18l-1.76-1.7c-.25-.24-.26-.64-.02-.89,.24-.25,.64-.26,.89-.02l1.19,1.14,2.39-4.05c.18-.3,.56-.4,.86-.22,.3,.18,.4,.56,.22,.86l-2.8,4.74c-.1,.17-.27,.28-.46,.3-.03,0-.06,0-.08,0Z"/></g></svg>