<?xml version="1.0" encoding="utf-8"?>
<!-- Generator: Adobe Illustrator 27.4.1, SVG Export Plug-In . SVG Version: 6.00 Build 0)  -->
<svg version="1.1" id="Layer_1" xmlns="http://www.w3.org/2000/svg" xmlns:xlink="http://www.w3.org/1999/xlink" x="0px" y="0px"
	 width="23px" height="24.9px" viewBox="0 0 23 24.9" style="enable-background:new 0 0 23 24.9;" xml:space="preserve">
<style type="text/css">
	.st0{fill:#315892;}
</style>
<path class="st0" d="M3.9,4.8c-0.3,0-0.6-0.3-0.6-0.6s0.3-0.6,0.6-0.6h11.4c0.3,0,0.6,0.3,0.6,0.6c0,0.4-0.3,0.6-0.6,0.6H3.9z"/>
<path class="st0" d="M3.9,7.3C3.6,7.3,3.3,7,3.3,6.6C3.3,6.3,3.6,6,3.9,6h11.4c0.3,0,0.6,0.3,0.6,0.6c0,0.4-0.3,0.6-0.6,0.6H3.9z"/>
<path class="st0" d="M3.9,9.8c-0.3,0-0.6-0.3-0.6-0.6s0.3-0.6,0.6-0.6h11.4c0.3,0,0.6,0.3,0.6,0.6c0,0.4-0.3,0.6-0.6,0.6H3.9z"/>
<path class="st0" d="M17.5,16.2V22c0,0.6-0.5,1.1-1.2,1.1H2.9c-0.6,0-1.2-0.5-1.2-1.1V2.6c0-0.6,0.5-1.1,1.2-1.1h13.5
	c0.6,0,1.2,0.5,1.2,1.1v3.3l1.4,0V2.6c0-1.4-1.1-2.5-2.6-2.5H2.9c-1.4,0-2.6,1.1-2.6,2.5V22c0,1.4,1.1,2.5,2.6,2.5h13.5
	c1.4,0,2.6-1.1,2.6-2.5v-5.8L17.5,16.2z"/>
<g id="Path_158">
	<path class="st0" d="M12.5,21.7c-0.2,0-0.5-0.1-0.7-0.4L7,15.8c-0.4-0.4-0.4-1,0.1-1.3c0.4-0.4,0.9-0.4,1.3,0.1l3.9,4.5l8-13.5
		c0.2-0.5,0.8-0.6,1.3-0.4c0.5,0.2,0.6,0.9,0.4,1.3l-8.7,14.6C13,21.4,12.8,21.5,12.5,21.7L12.5,21.7z"/>
</g>
</svg>
