<svg xmlns="http://www.w3.org/2000/svg" width="37" height="37" viewBox="0 0 37 37">
  <g id="Group_539" data-name="Group 539" transform="translate(-1079 -901)">
    <g id="Group_297" data-name="Group 297">
      <g id="Ellipse_70" data-name="Ellipse 70" transform="translate(1079 901)" fill="#275795" stroke="#fff" stroke-width="3">
        <circle cx="18.5" cy="18.5" r="18.5" stroke="none"/>
        <circle cx="18.5" cy="18.5" r="17" fill="none"/>
      </g>
      <path id="Path_384" data-name="Path 384" d="M945.937,559.916c0-.836.014-1.642,0-2.448a3.531,3.531,0,0,0-7-.688,6.688,6.688,0,0,0-.067,1.208c-.01.636,0,1.273,0,1.938H929.7v-5.647c.65,0,1.286-.015,1.921,0a6.461,6.461,0,0,0,5.066-2.1,7.629,7.629,0,0,1,6.475-2.456,7.3,7.3,0,0,1,4.812,2.322,6.653,6.653,0,0,0,5.365,2.238c.584-.024,1.17,0,1.784,0v5.638Z" transform="translate(155.091 363.694)" fill="#fff"/>
    </g>
  </g>
</svg>
