<svg xmlns="http://www.w3.org/2000/svg" xmlns:xlink="http://www.w3.org/1999/xlink" width="36.023" height="27" viewBox="0 0 36.023 27">
  <defs>
    <clipPath id="clip-path">
      <rect id="Rectangle_273" data-name="Rectangle 273" width="36.023" height="27" fill="none"/>
    </clipPath>
  </defs>
  <g id="Group_1266" data-name="Group 1266" transform="translate(0 0)">
    <g id="Group_1236" data-name="Group 1236" transform="translate(0 0)" clip-path="url(#clip-path)">
      <path id="Path_818" data-name="Path 818" d="M27.923,24.965H2.008V8.625H27.923Zm0-18.348H2.008A2.007,2.007,0,0,0,0,8.625v16.34a2.008,2.008,0,0,0,2.008,2.008H27.923a2.008,2.008,0,0,0,2.008-2.008V8.625a2.007,2.007,0,0,0-2.008-2.008" transform="translate(0 0.026)" fill="#315892"/>
      <path id="Path_819" data-name="Path 819" d="M1.2,12.4l13.762,6.764L28.5,12.858" transform="translate(0.005 0.049)" fill="none" stroke="#315892" stroke-linecap="round" stroke-linejoin="round" stroke-width="2"/>
      <line id="Line_169" data-name="Line 169" x1="7.749" y2="7.327" transform="translate(1.281 17.664)" fill="none" stroke="#315892" stroke-linecap="round" stroke-linejoin="round" stroke-width="2"/>
      <line id="Line_170" data-name="Line 170" x2="7.749" y2="7.327" transform="translate(20.461 17.664)" fill="none" stroke="#315892" stroke-linecap="round" stroke-linejoin="round" stroke-width="2"/>
    </g>
  </g>
</svg>
