<svg xmlns="http://www.w3.org/2000/svg" xmlns:xlink="http://www.w3.org/1999/xlink" width="26.401" height="37.651" viewBox="0 0 26.401 37.651">
  <defs>
    <clipPath id="clip-path">
      <rect id="Rectangle_457" data-name="Rectangle 457" width="26.401" height="37.651" fill="none" stroke="#707070" stroke-width="2"/>
    </clipPath>
  </defs>
  <g id="Group_1848" data-name="Group 1848" clip-path="url(#clip-path)">
    <path id="Path_1039" data-name="Path 1039" d="M6.587,3.119V7.973a6.309,6.309,0,0,0,1.863,4.42c1.952,2.083,5.027,5.764,5.027,5.764a3.8,3.8,0,0,1-.564,4.593c-2.394,2.545-5.763,6.327-5.763,6.327s-.584.693-.574,3.207,0,5.07,0,5.07" transform="translate(-2.855 -1.354)" fill="none" stroke="#265795" stroke-linecap="round" stroke-linejoin="round" stroke-width="2"/>
    <path id="Path_1040" data-name="Path 1040" d="M35.155,3.119V7.973a6.309,6.309,0,0,1-1.863,4.42c-1.952,2.083-5.027,5.764-5.027,5.764a3.8,3.8,0,0,0,.564,4.593c2.394,2.545,5.763,6.327,5.763,6.327s.584.693.574,3.207,0,5.07,0,5.07" transform="translate(-12.04 -1.354)" fill="none" stroke="#265795" stroke-linecap="round" stroke-linejoin="round" stroke-width="2"/>
    <line id="Line_199" data-name="Line 199" x2="24.137" transform="translate(1.132 1.132)" fill="none" stroke="#265795" stroke-linecap="round" stroke-linejoin="round" stroke-width="2"/>
    <line id="Line_200" data-name="Line 200" x2="24.137" transform="translate(1.132 36.519)" fill="none" stroke="#265795" stroke-linecap="round" stroke-linejoin="round" stroke-width="2"/>
    <path id="Path_1041" data-name="Path 1041" d="M23.693,14.929l-3.932,3.932a1.815,1.815,0,0,1-2.56,0l-3.932-3.932c-.7-.7-1.7-1.81-1.7-2.559H25.391c0,.843-.994,1.855-1.7,2.559" transform="translate(-5.024 -5.371)" fill="#265795"/>
  </g>
</svg>
