<svg xmlns="http://www.w3.org/2000/svg" width="37" height="37" viewBox="0 0 37 37">
  <g id="Group_540" data-name="Group 540" transform="translate(-1079 -901)">
    <g id="Group_297" data-name="Group 297">
      <g id="Path_385" data-name="Path 385" transform="translate(1079 901)" fill="#ffce00">
        <path d="M 18.5 35.5 C 13.95913028717041 35.5 9.690059661865234 33.731689453125 6.479179859161377 30.52082061767578 C 3.268310070037842 27.30994033813477 1.5 23.04087066650391 1.5 18.5 C 1.5 13.95913028717041 3.268310070037842 9.690059661865234 6.479179859161377 6.479179859161377 C 9.690059661865234 3.268310070037842 13.95913028717041 1.5 18.5 1.5 C 23.04087066650391 1.5 27.30994033813477 3.268310070037842 30.52082061767578 6.479179859161377 C 33.731689453125 9.690059661865234 35.5 13.95913028717041 35.5 18.5 C 35.5 23.04087066650391 33.731689453125 27.30994033813477 30.52082061767578 30.52082061767578 C 27.30994033813477 33.731689453125 23.04087066650391 35.5 18.5 35.5 Z" stroke="none"/>
        <path d="M 18.5 3 C 14.35980033874512 3 10.46740913391113 4.612281799316406 7.539840698242188 7.539840698242188 C 4.612281799316406 10.46740913391113 3 14.35980033874512 3 18.5 C 3 22.64019966125488 4.612281799316406 26.53258895874023 7.539840698242188 29.46015930175781 C 10.46740913391113 32.38771820068359 14.35980033874512 34 18.5 34 C 22.64019966125488 34 26.53258895874023 32.38771820068359 29.46015930175781 29.46015930175781 C 32.38771820068359 26.53258895874023 34 22.64019966125488 34 18.5 C 34 14.35980033874512 32.38771820068359 10.46740913391113 29.46015930175781 7.539840698242188 C 26.53258895874023 4.612281799316406 22.64019966125488 3 18.5 3 M 18.5 0 C 28.71726989746094 0 37 8.282730102539062 37 18.5 C 37 28.71726989746094 28.71726989746094 37 18.5 37 C 8.282730102539062 37 0 28.71726989746094 0 18.5 C 0 8.282730102539062 8.282730102539062 0 18.5 0 Z" stroke="none" fill="#fff"/>
      </g>
      <g id="Group_310" data-name="Group 310" transform="translate(506.985 -94.069)">
        <path id="Path_386" data-name="Path 386" d="M606.465,1048.869" transform="translate(-18.829 -32.93)" fill="none" stroke="#004785" stroke-miterlimit="10" stroke-width="6"/>
        <path id="Path_387" data-name="Path 387" d="M598.758,1019.329c.524.9.1,1.645-.948,1.645h-14.6c-1.046,0-1.468-.738-.939-1.64l7.327-12.494a1.016,1.016,0,0,1,1.915,0Z" fill="none" stroke="#040506" stroke-miterlimit="10" stroke-width="2"/>
        <circle id="Ellipse_71" data-name="Ellipse 71" cx="0.428" cy="0.428" r="0.428" transform="translate(590.079 1016.217)"/>
        <circle id="Ellipse_72" data-name="Ellipse 72" cx="0.877" cy="0.877" r="0.877" transform="translate(589.63 1017.722)"/>
        <circle id="Ellipse_73" data-name="Ellipse 73" cx="1.182" cy="1.182" r="1.182" transform="translate(589.324 1010.073)"/>
        <path id="Path_388" data-name="Path 388" d="M613.855,1028.865l.752,5.285h.856l.754-5.285Z" transform="translate(-24.528 -17.504)"/>
      </g>
    </g>
  </g>
</svg>
