<svg xmlns="http://www.w3.org/2000/svg" width="31.028" height="36.277" viewBox="0 0 31.028 36.277">
  <g id="Group_587" data-name="Group 587" transform="translate(-837.656 -237.57)">
    <path id="Path_572" data-name="Path 572" d="M6691.774,17461.092l3.775,5.324,9.456-12.832" transform="translate(-5838.173 -17193.57)" fill="none" stroke="#0a7e01" stroke-linecap="round" stroke-linejoin="round" stroke-width="2"/>
    <g id="Group_582" data-name="Group 582" transform="translate(-7.324)">
      <g id="Path_573" data-name="Path 573" transform="translate(828.317 214.256)" fill="none" stroke-linecap="round" stroke-miterlimit="10">
        <path d="M35.571,31.2,18.664,48.241v3.933h4.1L39.5,35.381Z" stroke="none"/>
        <path d="M 35.57115173339844 31.19730758666992 L 18.66365051269531 48.24121856689453 L 18.66365051269531 52.17422866821289 L 22.76401138305664 52.17422866821289 L 39.504150390625 35.38134765625 L 35.57115173339844 31.19730758666992 M 35.60987091064453 28.31840896606445 L 42.28742980957031 35.42218780517578 L 23.59428024291992 54.17422866821289 L 16.66365051269531 54.17422866821289 L 16.66365051269531 47.41749954223633 L 35.60987091064453 28.31840896606445 Z" stroke="none" fill="#0a7e01"/>
      </g>
      <path id="Path_574" data-name="Path 574" d="M59.907,25.761,57.019,28.6l-5.245-5.62,2.888-2.842a1.275,1.275,0,0,1,1.8.062l3.511,3.762A1.275,1.275,0,0,1,59.907,25.761Z" transform="translate(814.56 218.77)" fill="none" stroke="#0a7e01" stroke-linecap="round" stroke-linejoin="round" stroke-width="2"/>
    </g>
  </g>
</svg>
