<svg xmlns="http://www.w3.org/2000/svg" xmlns:xlink="http://www.w3.org/1999/xlink" width="45.895" height="45.896" viewBox="0 0 45.895 45.896">
  <defs>
    <clipPath id="clip-path">
      <rect id="Rectangle_328" data-name="Rectangle 328" width="45.895" height="45.896" transform="translate(0 0)" fill="none"/>
    </clipPath>
  </defs>
  <g id="Group_1453" data-name="Group 1453" transform="translate(0 0)">
    <g id="Group_1453-2" data-name="Group 1453" clip-path="url(#clip-path)">
      <path id="Path_871" data-name="Path 871" d="M44.9,21.948H41.214A18.312,18.312,0,0,0,23.948,4.682V1a1,1,0,0,0-2,0V4.682A18.311,18.311,0,0,0,4.682,21.948H1a1,1,0,0,0,0,2H4.682A18.311,18.311,0,0,0,21.948,41.214V44.9a1,1,0,0,0,2,0V41.214A18.312,18.312,0,0,0,41.214,23.948H44.9a1,1,0,0,0,0-2m-5.681,0H35.135A12.243,12.243,0,0,0,23.948,10.761V6.682A16.314,16.314,0,0,1,39.214,21.948m-10.861,2h4.782a10.253,10.253,0,0,1-9.187,9.187V28.353a1,1,0,0,0-2,0v4.782a10.254,10.254,0,0,1-9.188-9.187h4.783a1,1,0,0,0,0-2H12.76a10.254,10.254,0,0,1,9.188-9.187v4.782a1,1,0,0,0,2,0V12.761a10.252,10.252,0,0,1,9.187,9.187H28.353a1,1,0,0,0,0,2M21.948,6.682v4.079A12.244,12.244,0,0,0,10.76,21.948H6.682A16.313,16.313,0,0,1,21.948,6.682M6.682,23.948H10.76A12.245,12.245,0,0,0,21.948,35.135v4.079A16.313,16.313,0,0,1,6.682,23.948M23.948,39.214V35.135A12.244,12.244,0,0,0,35.135,23.948h4.079A16.314,16.314,0,0,1,23.948,39.214" fill="#fff"/>
    </g>
  </g>
</svg>
