<svg id="Group_1700" data-name="Group 1700" xmlns="http://www.w3.org/2000/svg" xmlns:xlink="http://www.w3.org/1999/xlink" width="48.603" height="47.085" viewBox="0 0 48.603 47.085">
  <defs>
    <clipPath id="clip-path">
      <rect id="Rectangle_413" data-name="Rectangle 413" width="48.603" height="47.085" transform="translate(0 0)" fill="none"/>
    </clipPath>
  </defs>
  <g id="Group_1698" data-name="Group 1698" clip-path="url(#clip-path)">
    <path id="Path_986" data-name="Path 986" d="M5.825,35.022c2.075-.541,6.626-1.354,6.626-1.354S15.815,26.524,28,27.209c8.364.471,8.961,5.623,9.892,5.869S42.613,34.6,42.613,34.6A3.37,3.37,0,0,1,44.3,36.887c.229,1.262.5,5.182-.289,5.329s-6.132.258-6.132.258l-28.626.49s-5.343.344-6.422,0S1.118,42.572,1.02,41.2,1.017,36.276,5.825,35.022Z" fill="none" stroke="#265795" stroke-linecap="round" stroke-linejoin="round" stroke-width="2"/>
    <circle id="Ellipse_139" data-name="Ellipse 139" cx="5.176" cy="5.176" r="5.176" transform="translate(33.661 1)" fill="none" stroke="#265795" stroke-linecap="round" stroke-linejoin="round" stroke-width="2"/>
    <path id="Path_987" data-name="Path 987" d="M34.034,15.911A8.768,8.768,0,0,1,47.6,23.246v.007" fill="none" stroke="#265795" stroke-linecap="round" stroke-linejoin="round" stroke-width="2"/>
    <path id="Path_988" data-name="Path 988" d="M12.88,40.825a2.63,2.63,0,1,1-2.63,2.63,2.629,2.629,0,0,1,2.63-2.63" fill="#fff"/>
    <circle id="Ellipse_140" data-name="Ellipse 140" cx="2.63" cy="2.63" r="2.63" transform="translate(10.25 40.825)" fill="none" stroke="#265795" stroke-linecap="round" stroke-linejoin="round" stroke-width="2"/>
    <path id="Path_989" data-name="Path 989" d="M34.914,40.825a2.63,2.63,0,1,1-2.63,2.63,2.629,2.629,0,0,1,2.63-2.63" fill="#fff"/>
    <circle id="Ellipse_141" data-name="Ellipse 141" cx="2.63" cy="2.63" r="2.63" transform="translate(32.284 40.825)" fill="none" stroke="#265795" stroke-linecap="round" stroke-linejoin="round" stroke-width="2"/>
    <path id="Path_990" data-name="Path 990" d="M27.86,23.74c0-.945-1.063-1.711-2.375-1.711s-2.374.766-2.374,1.711v3.281c0,.078.088.142.2.142h4.355c.108,0,.2-.064.2-.142Z" fill="#265795"/>
    <line id="Line_177" data-name="Line 177" y2="2.313" transform="translate(25.485 15.869)" fill="none" stroke="#265795" stroke-linecap="round" stroke-linejoin="round" stroke-width="2"/>
    <line id="Line_178" data-name="Line 178" x2="1.156" y2="2.003" transform="translate(21.018 17.112)" fill="none" stroke="#265795" stroke-linecap="round" stroke-linejoin="round" stroke-width="2"/>
    <line id="Line_179" data-name="Line 179" x2="2.003" y2="1.156" transform="translate(17.77 20.422)" fill="none" stroke="#265795" stroke-linecap="round" stroke-linejoin="round" stroke-width="2"/>
    <line id="Line_180" data-name="Line 180" x2="2.313" transform="translate(16.612 24.912)" fill="none" stroke="#265795" stroke-linecap="round" stroke-linejoin="round" stroke-width="2"/>
    <line id="Line_181" data-name="Line 181" x1="2.313" transform="translate(32.215 24.742)" fill="none" stroke="#265795" stroke-linecap="round" stroke-linejoin="round" stroke-width="2"/>
    <line id="Line_182" data-name="Line 182" x1="2.003" y2="1.156" transform="translate(31.282 20.275)" fill="none" stroke="#265795" stroke-linecap="round" stroke-linejoin="round" stroke-width="2"/>
    <line id="Line_183" data-name="Line 183" x1="1.156" y2="2.003" transform="translate(28.819 17.027)" fill="none" stroke="#265795" stroke-linecap="round" stroke-linejoin="round" stroke-width="2"/>
  </g>
</svg>
