<?xml version="1.0" encoding="utf-8"?>
<!-- Generator: Adobe Illustrator 27.3.1, SVG Export Plug-In . SVG Version: 6.00 Build 0)  -->
<svg version="1.1" id="Layer_1" xmlns="http://www.w3.org/2000/svg" xmlns:xlink="http://www.w3.org/1999/xlink" x="0px" y="0px"
	 width="46.8px" height="29.5px" viewBox="0 0 46.8 29.5" style="enable-background:new 0 0 46.8 29.5;" xml:space="preserve">
<style type="text/css">
	.st0{display:none;}
	.st1{display:inline;}
	.st2{clip-path:url(#SVGID_00000089553156298972365810000012565586759159236531_);}
	.st3{fill:none;stroke:#265795;stroke-width:4;stroke-miterlimit:10;}
	.st4{fill:#235F9A;}
</style>
<g id="Group_1719" transform="translate(-1452.848 -1185.244)" class="st0">
	<g id="Group_1718" transform="translate(1452.848 1185.244)" class="st1">
		<g>
			<defs>
				<rect id="SVGID_1_" x="-0.2" y="-7.4" width="48.5" height="46.5"/>
			</defs>
			<clipPath id="SVGID_00000181089698075569058050000011124427216404322455_">
				<use xlink:href="#SVGID_1_"  style="overflow:visible;"/>
			</clipPath>
			
				<g id="Group_1717" transform="translate(0 0)" style="clip-path:url(#SVGID_00000181089698075569058050000011124427216404322455_);">
				<path id="Path_999" class="st3" d="M1.2,13.7v23.9h6c0.5-9,8.2-15.8,17.2-15.3c8.2,0.5,14.8,7,15.3,15.3h6V13.7H1.2z"/>
				<line id="Line_185" class="st3" x1="0.5" y1="0.4" x2="46.1" y2="0.4"/>
				<path id="Path_1000" class="st3" d="M39.4-6.4l6.7,6.7l-6.7,6.7"/>
			</g>
		</g>
	</g>
</g>
<g>
	<g>
		<rect x="16.4" y="1.9" class="st4" width="14.2" height="2.5"/>
	</g>
	<g>
		<rect x="16.4" y="7.9" class="st4" width="14.2" height="2.5"/>
	</g>
	<g>
		<rect x="16.4" y="13.9" class="st4" width="14.2" height="2.5"/>
	</g>
	<g>
		<rect x="16.4" y="19.9" class="st4" width="14.2" height="2.5"/>
	</g>
	<g>
		<rect x="16.4" y="25.9" class="st4" width="14.2" height="2.5"/>
	</g>
	<g>
		<rect x="18.1" class="st4" width="2.5" height="29.5"/>
	</g>
	<g>
		<rect x="26.5" class="st4" width="2.5" height="29.5"/>
	</g>
	<g>
		<rect x="0.5" y="13.9" class="st4" width="11.3" height="2.5"/>
	</g>
	<g>
		<polygon class="st4" points="9.3,19.4 7.5,17.7 10,15.1 7.5,12.6 9.3,10.9 13.6,15.1 		"/>
	</g>
	<g>
		<rect y="7.9" class="st4" width="13.2" height="2.5"/>
	</g>
	<g>
		<rect y="20.2" class="st4" width="13.2" height="2.5"/>
	</g>
	<g>
		<rect x="33.6" y="7.9" class="st4" width="13.2" height="2.5"/>
	</g>
	<g>
		<rect x="33.6" y="20.2" class="st4" width="13.2" height="2.5"/>
	</g>
</g>
</svg>
