<svg xmlns="http://www.w3.org/2000/svg" width="45.611" height="46.638" viewBox="0 0 45.611 46.638">
  <g id="Group_565" data-name="Group 565" transform="translate(-25.577 -29.05)">
    <path id="Path_552" data-name="Path 552" d="M45.222,73.387a21.811,21.811,0,0,1-5.327-41.67" transform="translate(0 0.544)" fill="none" stroke="#315892" stroke-linecap="round" stroke-linejoin="round" stroke-width="2"/>
    <path id="Path_553" data-name="Path 553" d="M43.466,30.492a21.809,21.809,0,0,1,7.193,41.859" transform="translate(6.211 0.093)" fill="none" stroke="#315892" stroke-linecap="round" stroke-linejoin="round" stroke-width="2"/>
    <path id="Path_554" data-name="Path 554" d="M32.609,30.238l5.774,1.246-1.246,5.774" transform="translate(2.218)" fill="none" stroke="#315892" stroke-linecap="round" stroke-linejoin="round" stroke-width="2"/>
    <path id="Path_555" data-name="Path 555" d="M53.7,64.486,47.931,63.24l1.246-5.774" transform="translate(7.853 10.013)" fill="none" stroke="#315892" stroke-linecap="round" stroke-linejoin="round" stroke-width="2"/>
    <g id="Rectangle_154" data-name="Rectangle 154" transform="translate(37.201 45.319)" fill="none" stroke="#315892" stroke-linecap="round" stroke-linejoin="round" stroke-width="2">
      <rect width="22.363" height="14.1" stroke="none"/>
      <rect x="-1" y="-1" width="24.363" height="16.1" fill="none"/>
    </g>
    <path id="Path_556" data-name="Path 556" d="M33.837,43.66,45.713,49.5,58.247,43.66" transform="translate(2.67 4.936)" fill="none" stroke="#315892" stroke-linecap="round" stroke-linejoin="round" stroke-width="2"/>
    <line id="Line_123" data-name="Line 123" x1="6.687" y2="6.323" transform="translate(36.574 53.096)" fill="none" stroke="#315892" stroke-linecap="round" stroke-linejoin="round" stroke-width="2"/>
    <line id="Line_124" data-name="Line 124" x2="6.687" y2="6.323" transform="translate(53.124 53.096)" fill="none" stroke="#315892" stroke-linecap="round" stroke-linejoin="round" stroke-width="2"/>
  </g>
</svg>
