<svg xmlns="http://www.w3.org/2000/svg" width="137.777" height="86.024" viewBox="0 0 137.777 86.024">
  <g id="Group_52" data-name="Group 52" transform="translate(-6.831 -4.756)">
    <path id="Path_43" data-name="Path 43" d="M61.327,54.421a3.286,3.286,0,0,1-2.337-5.6l7.535-7.62V16.148a3.287,3.287,0,0,1,6.573,0V42.553a3.285,3.285,0,0,1-.95,2.311l-8.483,8.583A3.281,3.281,0,0,1,61.327,54.421Z" transform="translate(32.945 5.214)" fill="#3e9924"/>
    <path id="Path_44" data-name="Path 44" d="M64.8,15.657H32.054a3.287,3.287,0,0,1,0-6.573H64.8a3.287,3.287,0,0,1,0,6.573Z" transform="translate(14.113 2.784)" fill="#3e9924"/>
    <path id="Path_45" data-name="Path 45" d="M54.035,35.5H22.3a3.288,3.288,0,0,1,0-6.575h31.74a3.288,3.288,0,0,1,0,6.575Z" transform="translate(7.835 15.552)" fill="#3e9924"/>
    <path id="Path_46" data-name="Path 46" d="M63.151,54.608h-31.1a3.287,3.287,0,0,1,0-6.573h31.1a3.287,3.287,0,0,1,0,6.573Z" transform="translate(14.113 27.844)" fill="#3e9924"/>
    <path id="Path_47" data-name="Path 47" d="M21.921,15.657H18.344a3.287,3.287,0,0,1,0-6.573h3.578a3.287,3.287,0,1,1,0,6.573Z" transform="translate(5.292 2.784)" fill="#3e9924"/>
    <path id="Path_48" data-name="Path 48" d="M13.7,35.5H10.118a3.288,3.288,0,0,1,0-6.575H13.7a3.288,3.288,0,0,1,0,6.575Z" transform="translate(0 15.552)" fill="#3e9924"/>
    <path id="Path_49" data-name="Path 49" d="M23.131,54.608H19.554a3.287,3.287,0,0,1,0-6.573h3.578a3.287,3.287,0,0,1,0,6.573Z" transform="translate(6.071 27.844)" fill="#3e9924"/>
    <path id="Path_50" data-name="Path 50" d="M80.3,4.756A42.934,42.934,0,0,0,51.592,15.743l2.4,2.669h4.741A36.438,36.438,0,1,1,46.962,62.446H40.376l-.452.166A43.017,43.017,0,1,0,80.3,4.756Z" transform="translate(21.29 0)" fill="#3e9924"/>
    <path id="Path_51" data-name="Path 51" d="M45.023,40.947c-.079-.988-.127-2.284-.127-3.26A36.493,36.493,0,0,1,49.24,20.425H41.952a43.154,43.154,0,0,0-3.629,17.262c0,1.083.051,2.177.131,3.26Z" transform="translate(20.26 10.081)" fill="#3e9924"/>
  </g>
</svg>
