<?xml version="1.0" encoding="UTF-8"?><svg id="Layer_2" xmlns="http://www.w3.org/2000/svg" width="37.56" height="46.89" viewBox="0 0 37.56 46.89"><defs><style>.cls-1{fill:#164782;}</style></defs><g id="Group_2250"><g id="Path_1213"><path class="cls-1" d="m11.33,46.58s-.1,0-.15-.01C4.05,45.52-.91,38.86.14,31.72c.66-4.49,3.67-8.38,7.85-10.15.51-.21,1.1.02,1.31.53.22.51-.02,1.1-.53,1.31-3.54,1.5-6.09,4.79-6.65,8.6-.89,6.05,3.31,11.69,9.36,12.58.55.08.92.59.84,1.13-.07.5-.5.85-.99.85Z"/></g><g id="Path_1214"><path class="cls-1" d="m17.78,45.75c-.39,0-.76-.23-.92-.61-.22-.51.02-1.1.53-1.31,3.91-1.65,6.49-5.31,6.74-9.54.18-2.96-.81-5.8-2.77-8.02-1.96-2.21-4.67-3.53-7.63-3.71-.55-.03-.97-.51-.94-1.06s.5-.98,1.06-.94c3.49.21,6.69,1.76,9,4.38s3.48,5.98,3.27,9.46c-.3,5-3.35,9.31-7.96,11.26-.13.05-.26.08-.39.08Z"/></g><g id="Path_1215"><path class="cls-1" d="m8.08,26.26c-.07,0-.14,0-.21-.02-.54-.12-.88-.65-.77-1.19l.48-2.22-2.22-.48c-.54-.12-.88-.65-.77-1.19.12-.54.65-.88,1.19-.77l3.2.69c.54.12.88.65.77,1.19l-.69,3.2c-.1.47-.52.79-.98.79Z"/></g><g id="Path_1216"><path class="cls-1" d="m20.38,46.89c-.07,0-.14,0-.21-.02l-3.2-.69c-.26-.06-.49-.21-.63-.44-.14-.22-.19-.49-.14-.75l.69-3.2c.12-.54.64-.88,1.19-.77.54.12.88.65.77,1.19l-.48,2.22,2.22.48c.54.12.88.65.77,1.19-.1.47-.52.79-.98.79Z"/></g><g id="Path_1217"><path class="cls-1" d="m12.49,26.87l-.17,1.14-.14.95-.9.36c-.38.16-.73.37-1.06.62l-.76.58-.87-.35-1.07-.43-.59,1.02.91.71.75.59-.12.96c-.03.25-.04.45-.04.62s.02.36.04.62l.12.95-.75.59-.91.71.59,1.02,1.07-.43.9-.36.77.59c.32.24.67.44,1.04.6l.9.36.3,2.09h1.18l.17-1.14.14-.95.9-.36c.38-.16.73-.37,1.06-.62l.76-.57,1.95.79.59-1.02-.91-.71-.75-.59.12-.96c.02-.25.04-.44.04-.62,0-.21-.01-.41-.04-.62l-.12-.96.75-.59.9-.72-.59-1.02-1.07.43-.9.36-.77-.59c-.32-.24-.67-.44-1.04-.6l-.9-.36-.3-2.09h-1.17Zm0-1.51h1.17c.75,0,1.39.55,1.5,1.3l.17,1.23.09.03h.02c.48.21.94.47,1.36.79h.02s.08.07.08.07l.09-.04h0l1.07-.43c.7-.28,1.5,0,1.88.65l.59,1.02c.38.65.22,1.48-.37,1.95l-.9.72h0l-.08.06v.1c.05.27.07.54.07.81,0,.26-.02.51-.05.76v.14s.06.06.06.06l.91.71c.6.46.76,1.3.38,1.96l-.59,1.02c-.38.65-1.18.93-1.88.65l-1.16-.47-.08.06h0c-.43.33-.89.6-1.38.81h0l-.09.04v.09s-.01,0-.01,0l-.17,1.14c-.11.74-.75,1.29-1.5,1.29h-1.2c-.75,0-1.39-.55-1.5-1.3l-.17-1.23-.09-.04h-.01c-.49-.21-.94-.47-1.36-.79h-.02s-.08-.07-.08-.07l-.09.04h0l-1.07.43c-.7.28-1.5,0-1.88-.65l-.59-1.02c-.38-.66-.22-1.49.38-1.96l.99-.77v-.11s-.01-.03-.01-.04c-.03-.26-.05-.51-.05-.77,0-.26.02-.51.05-.77v-.14s-.06-.06-.06-.06l-.91-.71c-.59-.46-.75-1.29-.38-1.94l.59-1.02c.38-.65,1.18-.93,1.88-.65l1.16.47.08-.06h0c.43-.33.89-.6,1.38-.81h0l.09-.03v-.09s.01-.01.01-.01l.17-1.14c.11-.74.75-1.29,1.5-1.29"/></g><g id="Ellipse_173"><path class="cls-1" d="m13.08,36.47c-1.57,0-2.84-1.27-2.84-2.84s1.27-2.84,2.84-2.84,2.84,1.27,2.84,2.84-1.27,2.84-2.84,2.84Zm0-4.18c-.74,0-1.34.6-1.34,1.34s.6,1.34,1.34,1.34,1.34-.6,1.34-1.34-.6-1.34-1.34-1.34Z"/></g><g id="Path_1218"><path class="cls-1" d="m26.32,0c3.68,0,6.67,2.98,6.67,6.67,0,3.68-2.98,6.67-6.67,6.67s-6.67-2.98-6.67-6.67h0C19.65,2.98,22.64,0,26.32,0"/></g><g id="Path_1219"><path class="cls-1" d="m26.29,14.69c-3.35,0-6.52,1.49-8.67,4.06,3.83,1.17,7.06,3.78,9.02,7.27h9.84c.6,0,1.08-.5,1.08-1.1,0-.04,0-.08,0-.12-.62-5.75-5.48-10.11-11.26-10.11"/></g></g></svg>