<svg xmlns="http://www.w3.org/2000/svg" width="45.369" height="47.086" viewBox="0 0 45.369 47.086">
  <g id="Group_664" data-name="Group 664" transform="translate(-18.479 -16.36)">
    <g id="Group_558" data-name="Group 558" transform="translate(47.317 17.36)">
      <circle id="Ellipse_4" data-name="Ellipse 4" cx="5.176" cy="5.176" r="5.176" transform="translate(1.589)" fill="none" stroke="#265795" stroke-linecap="round" stroke-linejoin="round" stroke-width="2"/>
      <path id="Path_7" data-name="Path 7" d="M51.106,35.867a8.767,8.767,0,0,1,15.531,5.574v.007" transform="translate(-51.106 -19.195)" fill="none" stroke="#265795" stroke-linecap="round" stroke-linejoin="round" stroke-width="2"/>
    </g>
    <path id="Path_544" data-name="Path 544" d="M32.425,62.674H19.479V54.545l3.763-7.6h9.182Z" transform="translate(0 -3.544)" fill="none" stroke="#265795" stroke-linecap="round" stroke-linejoin="round" stroke-width="2"/>
    <rect id="Rectangle_153" data-name="Rectangle 153" width="25.439" height="5.746" transform="translate(32.425 53.383)" fill="none" stroke="#265795" stroke-linecap="round" stroke-linejoin="round" stroke-width="2"/>
    <circle id="Ellipse_92" data-name="Ellipse 92" cx="2.63" cy="2.63" r="2.63" transform="translate(23.322 57.185)" fill="#fff" stroke="#265795" stroke-linecap="round" stroke-linejoin="round" stroke-width="2"/>
    <circle id="Ellipse_93" data-name="Ellipse 93" cx="2.63" cy="2.63" r="2.63" transform="translate(34.356 57.185)" fill="#fff" stroke="#265795" stroke-linecap="round" stroke-linejoin="round" stroke-width="2"/>
    <circle id="Ellipse_94" data-name="Ellipse 94" cx="2.63" cy="2.63" r="2.63" transform="translate(42.524 57.185)" fill="#fff" stroke="#265795" stroke-linecap="round" stroke-linejoin="round" stroke-width="2"/>
    <circle id="Ellipse_95" data-name="Ellipse 95" cx="2.63" cy="2.63" r="2.63" transform="translate(50.671 57.185)" fill="#fff" stroke="#265795" stroke-linecap="round" stroke-linejoin="round" stroke-width="2"/>
    <path id="Path_545" data-name="Path 545" d="M34.186,49.334a9.074,9.074,0,0,1,8.154-6.8c8.937-.71,20.044-4.385,16.271,13.21" transform="translate(-1.762 -2.92)" fill="none" stroke="#265795" stroke-linecap="round" stroke-linejoin="round" stroke-width="2"/>
  </g>
</svg>
