<svg xmlns="http://www.w3.org/2000/svg" width="33.885" height="34.737" viewBox="0 0 33.885 34.737">
  <g id="Group_433" data-name="Group 433" transform="translate(-25.577 -29.05)">
    <path id="Path_445" data-name="Path 445" d="M40.209,62.183a15.947,15.947,0,0,1-3.9-30.466" fill="none" stroke="#315892" stroke-linecap="round" stroke-linejoin="round" stroke-width="2"/>
    <path id="Path_446" data-name="Path 446" d="M43.466,30.492a15.945,15.945,0,0,1,5.259,30.6" fill="none" stroke="#315892" stroke-linecap="round" stroke-linejoin="round" stroke-width="2"/>
    <path id="Path_447" data-name="Path 447" d="M32.609,30.238l4.221.911-.911,4.221" fill="none" stroke="#315892" stroke-linecap="round" stroke-linejoin="round" stroke-width="2"/>
    <path id="Path_448" data-name="Path 448" d="M52.152,62.6l-4.221-.911.911-4.221" fill="none" stroke="#315892" stroke-linecap="round" stroke-linejoin="round" stroke-width="2"/>
    <g id="Path_449" data-name="Path 449" fill="none" stroke-linecap="round" stroke-linejoin="round">
      <path d="M48.6,45.6a6.023,6.023,0,0,1,.055.814c0,.234-.022.479-.055.813l-.156,1.26.992.781,1.2.936-.781,1.349-1.415-.569-1.16-.468-1,.758a6.517,6.517,0,0,1-1.394.814l-1.182.48-.178,1.259L43.3,55.337H41.739l-.212-1.505-.178-1.259-1.182-.48A6.322,6.322,0,0,1,38.8,51.3l-1.014-.781L36.6,51l-1.416.568L34.4,50.22l1.205-.936L36.6,48.5l-.156-1.259c-.034-.346-.056-.6-.056-.825s.022-.48.056-.814l.156-1.26-.992-.781L34.4,42.628l.781-1.349,1.416.569,1.159.468,1-.758a6.488,6.488,0,0,1,1.393-.814l1.182-.48.178-1.259.223-1.505h1.55l.212,1.505.178,1.259,1.182.48a6.364,6.364,0,0,1,1.371.791l1.015.781,1.181-.48,1.416-.568.781,1.349-1.193.947-.992.781Z" stroke="none"/>
      <path d="M 41.7390022277832 37.50000381469727 L 41.51599884033203 39.00500106811523 L 41.3380012512207 40.26400375366211 L 40.15600204467773 40.74400329589844 C 39.69900131225586 40.93300247192383 39.24200057983398 41.20100402832031 38.76300048828125 41.55800247192383 L 37.75899887084961 42.31600189208984 L 36.60000228881836 41.84800338745117 L 35.18400192260742 41.27900314331055 L 34.40299987792969 42.62800216674805 L 35.60800170898438 43.56400299072266 L 36.60000228881836 44.34500122070312 L 36.44400024414062 45.60500335693359 C 36.40999984741211 45.93900299072266 36.38800048828125 46.19600296020508 36.38800048828125 46.41900253295898 C 36.38800048828125 46.6410026550293 36.40999984741211 46.89800262451172 36.44400024414062 47.24400329589844 L 36.60000228881836 48.50300216674805 L 35.60800170898438 49.28400421142578 L 34.40299987792969 50.22000122070312 L 35.18400192260742 51.56900405883789 L 36.60000228881836 51.00100326538086 L 37.78200149536133 50.52100372314453 L 38.79600143432617 51.302001953125 C 39.24200057983398 51.63600158691406 39.6879997253418 51.89300155639648 40.16699981689453 52.09300231933594 L 41.3489990234375 52.57300186157227 L 41.7390022277832 55.33700180053711 L 43.29999923706055 55.33700180053711 L 43.52300262451172 53.83200454711914 L 43.70100021362305 52.57300186157227 L 44.88299942016602 52.09300231933594 C 45.34000015258789 51.90400314331055 45.79700088500977 51.63600158691406 46.27700042724609 51.27900314331055 L 47.28000259399414 50.52100372314453 L 49.85499954223633 51.55800247192383 L 50.63600158691406 50.20900344848633 L 49.43199920654297 49.27300262451172 L 48.44000244140625 48.49200439453125 L 48.59600067138672 47.23200225830078 C 48.62900161743164 46.89800262451172 48.6510009765625 46.65300369262695 48.6510009765625 46.41900253295898 C 48.6510009765625 46.18400192260742 48.63999938964844 45.95000457763672 48.59600067138672 45.60500335693359 L 48.44000244140625 44.34500122070312 L 49.43199920654297 43.56400299072266 L 50.625 42.61700439453125 L 49.84400177001953 41.26800155639648 L 48.42800140380859 41.83600234985352 L 47.24700164794922 42.31600189208984 L 46.23200225830078 41.53500366210938 C 45.7859992980957 41.20100402832031 45.34000015258789 40.94500350952148 44.86100006103516 40.74400329589844 L 43.67900085449219 40.26400375366211 L 43.28900146484375 37.50000381469727 L 41.7390022277832 37.50000381469727 M 41.7390022277832 35.50000381469727 L 43.28900146484375 35.50000381469727 C 44.28578948974609 35.50000381469727 45.13040924072266 36.23399353027344 45.26945114135742 37.22103118896484 L 45.49814605712891 38.84412002563477 L 45.61350250244141 38.89096450805664 C 45.62063980102539 38.89386367797852 45.62776947021484 38.89681243896484 45.63488006591797 38.8997917175293 C 46.26968002319336 39.16617202758789 46.85715103149414 39.50451278686523 47.43085098266602 39.93414306640625 C 47.43782043457031 39.93936157226562 47.44475173950195 39.94462203979492 47.45165252685547 39.94993209838867 L 47.5571174621582 40.03108596801758 L 47.67494964599609 39.98319244384766 C 47.67777252197266 39.9820442199707 47.68059158325195 39.98090362548828 47.68341064453125 39.97977447509766 L 49.09941101074219 39.41177368164062 C 50.02216720581055 39.0416259765625 51.07671356201172 39.4055061340332 51.57485198974609 40.26593399047852 L 52.35585021972656 41.61493301391602 C 52.85292053222656 42.47349166870117 52.64548110961914 43.56667327880859 51.86846160888672 44.1834716796875 L 50.67546081542969 45.13047409057617 C 50.67337036132812 45.13212203979492 50.67127990722656 45.13378143310547 50.66918182373047 45.13543319702148 L 50.56344604492188 45.21867752075195 L 50.58061599731445 45.35735321044922 C 50.62994766235352 45.74550628662109 50.6510009765625 46.06332015991211 50.6510009765625 46.41900253295898 C 50.6510009765625 46.74776458740234 50.62295913696289 47.05767440795898 50.58631134033203 47.42865371704102 C 50.58469009399414 47.44503402709961 50.58287048339844 47.46140289306641 50.58085250854492 47.47774124145508 L 50.56344604492188 47.61832809448242 L 50.66410064697266 47.69757461547852 L 51.86352157592773 48.63001251220703 C 52.65283203125 49.24363327026367 52.86777114868164 50.34585189819336 52.36685180664062 51.2110710144043 L 51.58584976196289 52.56007385253906 C 51.0873908996582 53.42106246948242 50.03187561035156 53.7847785949707 49.10882949829102 53.41359329223633 L 47.58216857910156 52.79954528808594 L 47.48284912109375 52.87460327148438 C 47.4787712097168 52.87768173217773 47.47467041015625 52.88075256347656 47.4705696105957 52.88380432128906 C 46.85235214233398 53.34360122680664 46.2559700012207 53.68948364257812 45.6473503112793 53.94118118286133 C 45.64340209960938 53.94281387329102 45.63946151733398 53.94443130493164 45.63550186157227 53.94604110717773 L 45.52014923095703 53.99288558959961 L 45.50331115722656 54.11198425292969 C 45.50268936157227 54.11637115478516 45.50205230712891 54.12076187133789 45.50139999389648 54.12514114379883 L 45.27840042114258 55.63014221191406 C 45.13310241699219 56.61079406738281 44.29135131835938 57.33700180053711 43.29999923706055 57.33700180053711 L 41.7390022277832 57.33700180053711 C 40.74221038818359 57.33700180053711 39.89759063720703 56.60301208496094 39.75855255126953 55.61597442626953 L 39.52985382080078 53.99288558959961 L 39.41450119018555 53.94604110717773 C 39.40845108032227 53.94358444213867 39.40242004394531 53.94110107421875 39.39640045166016 53.93858337402344 C 38.76338958740234 53.67428207397461 38.17485046386719 53.33549118041992 37.59714889526367 52.90286254882812 C 37.58993148803711 52.89745330810547 37.58274078369141 52.89200210571289 37.57559967041016 52.88649368286133 L 37.47099304199219 52.80592346191406 L 37.35250091552734 52.85404205322266 C 37.34987258911133 52.8551139831543 37.34722900390625 52.85617446899414 37.34458923339844 52.85723114013672 L 35.9285888671875 53.42523193359375 C 35.00586318969727 53.79537582397461 33.9512939453125 53.4315071105957 33.45315170288086 52.57107162475586 L 32.67214965820312 51.22207260131836 C 32.17107009887695 50.35658264160156 32.38632202148438 49.25401306152344 33.17612075805664 48.64052200317383 L 34.47646331787109 47.62940216064453 L 34.45917892456055 47.48993301391602 C 34.45709991455078 47.47318267822266 34.45524215698242 47.45639419555664 34.45359039306641 47.43959426879883 C 34.41770172119141 47.07442092895508 34.38800048828125 46.74557113647461 34.38800048828125 46.41900253295898 C 34.38800048828125 46.11471176147461 34.41336059570312 45.804443359375 34.45428085327148 45.4024543762207 C 34.45574951171875 45.38804244995117 34.45737075805664 45.37364196777344 34.45915222167969 45.3592643737793 L 34.47655487060547 45.21867752075195 L 34.37550354003906 45.13911819458008 L 33.17612075805664 44.20748138427734 C 32.38632202148438 43.593994140625 32.17107009887695 42.49142456054688 32.67214965820312 41.62593460083008 L 33.45315170288086 40.27693176269531 C 33.95151901245117 39.41609954833984 35.00677108764648 39.05236053466797 35.92972183227539 39.42322158813477 L 37.45774078369141 40.03745651245117 L 37.55792236328125 39.96182250976562 C 37.56121063232422 39.95934295654297 37.56452178955078 39.95686340332031 37.56782913208008 39.95439147949219 C 38.1850700378418 39.49436187744141 38.78165054321289 39.14810180664062 39.39165115356445 38.89582443237305 C 39.39559936523438 38.89419174194336 39.39953994750977 38.89257431030273 39.40349960327148 38.89096450805664 L 39.51885223388672 38.84412002563477 L 39.53569030761719 38.72502136230469 C 39.53631210327148 38.72063446044922 39.53694915771484 38.71624374389648 39.53760147094727 38.71186447143555 L 39.76060104370117 37.20686340332031 C 39.90589904785156 36.22621154785156 40.74765014648438 35.50000381469727 41.7390022277832 35.50000381469727 Z" stroke="none" fill="#315892"/>
    </g>
    <g id="Ellipse_83" data-name="Ellipse 83" transform="translate(40.572 44.47)" fill="none" stroke="#315892" stroke-linecap="round" stroke-linejoin="round" stroke-width="2">
      <circle cx="1.948" cy="1.948" r="1.948" stroke="none"/>
      <circle cx="1.948" cy="1.948" r="2.948" fill="none"/>
    </g>
  </g>
</svg>
