<?xml version="1.0" encoding="UTF-8"?><svg id="Layer_1" xmlns="http://www.w3.org/2000/svg" width="23.35" height="30.65" xmlns:xlink="http://www.w3.org/1999/xlink" viewBox="0 0 23.35 30.65"><defs><style>.cls-1{stroke:#315892;stroke-linecap:round;stroke-linejoin:round;stroke-width:1.5px;}.cls-1,.cls-2{fill:none;}.cls-3{fill:#345892;}.cls-4{clip-path:url(#clippath);}</style><clipPath id="clippath"><rect class="cls-2" x="3.37" y="9.24" width="15.89" height="16.6"/></clipPath></defs><g id="Group_1032"><g class="cls-4"><g id="Group_1031"><path id="Path_696" class="cls-1" d="m10.22,9.78l-6.31,5.55,11.44-3.92-11.04,8.64,13.55-5.74-11.21,9.39,12.07-4.91-7.7,6.5,5.99-1.3"/></g></g></g><path class="cls-3" d="m2.34,30.65c-.38-.16-.8-.26-1.15-.48C.39,29.65,0,28.87,0,27.92c0-2.08,0-4.17,0-6.25,0-6.28,0-12.57,0-18.85C0,1.48.78.42,2.01.1c.25-.06.51-.09.77-.1C6.89,0,11.01,0,15.13,0c.37,0,.65.14.9.39,2.31,2.32,4.62,4.63,6.94,6.94.26.26.38.56.38.93,0,6.51,0,13.03,0,19.54,0,1.48-.8,2.48-2.26,2.81-.03,0-.05.03-.08.04H2.34ZM14.37,1.8c-.14,0-.24,0-.34,0-3.72,0-7.44,0-11.16,0-.74,0-1.07.34-1.07,1.08,0,8.3,0,16.6,0,24.9,0,.74.34,1.07,1.08,1.07,5.87,0,11.73,0,17.6,0,.74,0,1.08-.34,1.08-1.08,0-6.16,0-12.31,0-18.47,0-.11,0-.21,0-.33-.15,0-.26,0-.37,0-1.38,0-2.75,0-4.13,0-1.33-.01-2.41-.94-2.64-2.24-.05-.27-.05-.56-.05-.83,0-1.36,0-2.71,0-4.1Zm5.78,5.39c-1.33-1.32-2.66-2.66-3.98-3.98,0,1.01-.01,2.07,0,3.14,0,.46.39.83.86.84,1.05.01,2.11,0,3.12,0Z"/></svg>