<svg xmlns="http://www.w3.org/2000/svg" width="30.365" height="29.054" viewBox="0 0 30.365 29.054">
  <g id="Path_249" data-name="Path 249" transform="translate(-11.516 -12.704)" fill="#275795" stroke-linecap="round" stroke-linejoin="round" stroke-miterlimit="10">
    <path d="M 36.68042755126953 42.31504821777344 L 34.43951797485352 40.68693542480469 L 26.69786643981934 35.06229400634766 L 18.95621681213379 40.68693542480469 L 16.71530723571777 42.31504821777344 L 17.57125663757324 39.68069839477539 L 20.52830123901367 30.57984161376953 L 12.78664684295654 24.95520782470703 L 10.54573631286621 23.32708740234375 L 13.3156566619873 23.32708740234375 L 22.88486671447754 23.32708740234375 L 25.84191703796387 14.22621726989746 L 26.69786643981934 11.59187698364258 L 27.5538158416748 14.22621726989746 L 30.51086616516113 23.32708740234375 L 40.080078125 23.32708740234375 L 42.84999465942383 23.32708740234375 L 40.60908508300781 24.95520782470703 L 32.867431640625 30.57984161376953 L 35.82447814941406 39.68069839477539 L 36.68042755126953 42.31504821777344 Z" stroke="none"/>
    <path d="M 26.69786643981934 14.50433731079102 L 23.53875732421875 24.22708702087402 L 13.31565475463867 24.22708702087402 L 21.58631706237793 30.2360668182373 L 18.42720794677734 39.95881652832031 L 26.69786643981934 33.9498291015625 L 34.96852874755859 39.95881652832031 L 31.80941581726074 30.2360668182373 L 40.080078125 24.22708702087402 L 29.85697555541992 24.22708702087402 L 26.69786643981934 14.50433731079102 M 26.69786643981934 12.70433807373047 C 27.47767639160156 12.70433807373047 28.16879653930664 13.20646667480469 28.40976715087891 13.9481086730957 L 31.16475105285645 22.42708587646484 L 40.080078125 22.42708587646484 C 40.85988616943359 22.42708587646484 41.55100631713867 22.9292163848877 41.79197692871094 23.67085647583008 C 42.03295516967773 24.41249656677246 41.76896667480469 25.22495651245117 41.13808441162109 25.68331718444824 L 33.92544174194336 30.92360496520996 L 36.68042755126953 39.402587890625 C 36.92140579223633 40.14422607421875 36.65741729736328 40.95668792724609 36.02653503417969 41.41504669189453 C 35.39566421508789 41.87340927124023 34.54138565063477 41.87340545654297 33.91051483154297 41.41504669189453 L 26.69786643981934 36.17474746704102 L 19.4852180480957 41.41504669189453 C 18.85434341430664 41.87340927124023 18.00006484985352 41.87340545654297 17.36919784545898 41.41504669189453 C 16.73831558227539 40.95668792724609 16.47432708740234 40.14422607421875 16.71530532836914 39.402587890625 L 19.47029113769531 30.92360496520996 L 12.25764465332031 25.68331718444824 C 11.62676620483398 25.22495651245117 11.36277770996094 24.41249656677246 11.60375595092773 23.67085647583008 C 11.8447265625 22.9292163848877 12.53584671020508 22.42708587646484 13.31565475463867 22.42708587646484 L 22.23098182678223 22.42708587646484 L 24.98596572875977 13.9481086730957 C 25.22693634033203 13.20646667480469 25.91805648803711 12.70433807373047 26.69786643981934 12.70433807373047 Z" stroke="none" fill="#275795"/>
  </g>
</svg>
