<svg xmlns="http://www.w3.org/2000/svg" width="44.248" height="38.232" viewBox="0 0 44.248 38.232">
  <g id="Group_2355" data-name="Group 2355" transform="translate(-603.1 -1005.668)">
    <g id="Group_2355-2" data-name="Group 2355" transform="translate(537.824 509.332)">
      <ellipse id="Ellipse_41" data-name="Ellipse 41" cx="16" cy="16" rx="16" ry="16" transform="translate(66.176 501.668)" fill="none" stroke="#275795" stroke-linecap="round" stroke-linejoin="round" stroke-width="1.8"/>
      <path id="Path_158" data-name="Path 158" d="M55.084,34.377l4.6,5.1L68.1,25.856" transform="translate(21.349 484.38)" fill="none" stroke="#275795" stroke-linecap="round" stroke-linejoin="round" stroke-width="1.8"/>
    </g>
    <path id="Path_1240" data-name="Path 1240" d="M15.973,7.551V12.4h-2.3V0h3.778a7.9,7.9,0,0,1,2.165.263A4.109,4.109,0,0,1,21.1,1a2.847,2.847,0,0,1,.851,1.125,3.728,3.728,0,0,1,.274,1.444,3.75,3.75,0,0,1-.184,1.184,3.378,3.378,0,0,1-.532,1.01,3.507,3.507,0,0,1-.856.8,4.465,4.465,0,0,1-1.161.55,2.285,2.285,0,0,1,.754.711l3.1,4.578H21.262a.919.919,0,0,1-.859-.465L17.8,7.963a.9.9,0,0,0-.322-.317,1.144,1.144,0,0,0-.519-.095Zm0-1.654h1.439a3.613,3.613,0,0,0,1.138-.161,2.2,2.2,0,0,0,.8-.452,1.765,1.765,0,0,0,.468-.68,2.322,2.322,0,0,0,.153-.867,1.766,1.766,0,0,0-.621-1.449,2.981,2.981,0,0,0-1.9-.5H15.973Z" transform="translate(624.002 1005.668)" fill="#275795"/>
  </g>
</svg>
