<?xml version="1.0" encoding="UTF-8"?><svg id="Layer_1" xmlns="http://www.w3.org/2000/svg" width="44.25" height="38.23" viewBox="0 0 44.25 38.23"><defs><style>.cls-1{fill:#0a7e01;}.cls-2{fill:none;stroke:#fff;stroke-linecap:round;stroke-linejoin:round;stroke-width:1.8px;}</style></defs><g id="Group_2285"><circle id="Ellipse_29" class="cls-1" cx="17" cy="21.23" r="17"/><path id="Path_1240" class="cls-1" d="m36.88,7.55v4.85h-2.3V0h3.78c.73-.01,1.46.08,2.17.26.54.14,1.04.39,1.48.74.37.3.67.68.85,1.12.19.46.28.95.27,1.44,0,.4-.06.8-.18,1.18-.12.36-.3.71-.53,1.01-.24.31-.53.58-.86.8-.36.24-.75.42-1.16.55.3.18.56.42.75.71l3.1,4.58h-2.08c-.35.02-.69-.16-.86-.47l-2.6-3.97c-.08-.13-.19-.24-.32-.32-.16-.07-.34-.1-.52-.09h-.99Zm0-1.65h1.44c.39,0,.77-.05,1.14-.16.3-.09.57-.25.8-.45.21-.19.37-.42.47-.68.11-.28.16-.57.15-.87.03-.55-.2-1.09-.62-1.45-.56-.38-1.23-.55-1.9-.5h-1.48v4.11Z"/></g><g id="Group_63"><line id="Line_30" class="cls-2" x1="17" y1="31.99" x2="17" y2="12.2"/><path id="Path_97" class="cls-2" d="m8.57,18.91l8.43-8.43,8.43,8.43"/></g></svg>