<svg xmlns="http://www.w3.org/2000/svg" xmlns:xlink="http://www.w3.org/1999/xlink" width="38.579" height="29.387" viewBox="0 0 38.579 29.387">
  <defs>
    <clipPath id="clip-path">
      <rect id="Rectangle_273" data-name="Rectangle 273" width="36.023" height="27" fill="none"/>
    </clipPath>
  </defs>
  <g id="Group_1950" data-name="Group 1950" transform="translate(-1108.081 -412.613)">
    <g id="Group_1266" data-name="Group 1266" transform="translate(1108.081 415)">
      <g id="Group_1236" data-name="Group 1236" transform="translate(0 0)" clip-path="url(#clip-path)">
        <path id="Path_818" data-name="Path 818" d="M27.923,24.965H2.008V8.625H27.923Zm0-18.348H2.008A2.007,2.007,0,0,0,0,8.625v16.34a2.008,2.008,0,0,0,2.008,2.008H27.923a2.008,2.008,0,0,0,2.008-2.008V8.625a2.007,2.007,0,0,0-2.008-2.008" transform="translate(0 0.026)" fill="#315892"/>
        <path id="Path_819" data-name="Path 819" d="M1.2,12.4l13.762,6.764L28.5,12.858" transform="translate(0.005 0.049)" fill="none" stroke="#315892" stroke-linecap="round" stroke-linejoin="round" stroke-width="2"/>
        <line id="Line_169" data-name="Line 169" x1="7.749" y2="7.327" transform="translate(1.281 17.664)" fill="none" stroke="#315892" stroke-linecap="round" stroke-linejoin="round" stroke-width="2"/>
        <line id="Line_170" data-name="Line 170" x2="7.749" y2="7.327" transform="translate(20.461 17.664)" fill="none" stroke="#315892" stroke-linecap="round" stroke-linejoin="round" stroke-width="2"/>
      </g>
    </g>
    <path id="Path_826" data-name="Path 826" d="M29.075,1a9.1,9.1,0,1,1-9.1,9.1A9.1,9.1,0,0,1,29.075,1Z" transform="translate(1107.48 412.613)" fill="#0a7e01" stroke="#fff" stroke-linecap="round" stroke-linejoin="round" stroke-width="2"/>
    <path id="Path_827" data-name="Path 827" d="M24.749,9.841l2.617,2.9,4.789-7.751" transform="translate(1108.539 413.496)" fill="none" stroke="#fff" stroke-linecap="round" stroke-linejoin="round" stroke-width="1.5"/>
  </g>
</svg>
