<svg xmlns="http://www.w3.org/2000/svg" width="26.757" height="26.246" viewBox="0 0 26.757 26.246">
  <g id="Group_2186" data-name="Group 2186" transform="translate(-1369.396 -1067.754)">
    <g id="Polygon_1" data-name="Polygon 1" transform="translate(1388.48 1078.024) rotate(-180)" fill="#fff">
      <path d="M 9.711246490478516 9.270215034484863 L 1.699464917182922 9.270215034484863 L 5.705355644226074 2.059217214584351 L 9.711246490478516 9.270215034484863 Z" stroke="none"/>
      <path d="M 5.705355644226074 4.118429183959961 L 3.398940086364746 8.270204544067383 L 8.011771202087402 8.270204544067383 L 5.705355644226074 4.118429183959961 M 5.705355644226074 -4.76837158203125e-06 L 11.41071605682373 10.2702054977417 L -4.76837158203125e-06 10.2702054977417 L 5.705355644226074 -4.76837158203125e-06 Z" stroke="none" fill="#275795"/>
    </g>
    <g id="Polygon_4" data-name="Polygon 4" transform="translate(1377.07 1083.729)" fill="#fff">
      <path d="M 9.711246490478516 9.270215034484863 L 1.699464917182922 9.270215034484863 L 5.705355644226074 2.059217214584351 L 9.711246490478516 9.270215034484863 Z" stroke="none"/>
      <path d="M 5.705355644226074 4.118429183959961 L 3.398940086364746 8.270204544067383 L 8.011771202087402 8.270204544067383 L 5.705355644226074 4.118429183959961 M 5.705355644226074 -4.76837158203125e-06 L 11.41071605682373 10.2702054977417 L -4.76837158203125e-06 10.2702054977417 L 5.705355644226074 -4.76837158203125e-06 Z" stroke="none" fill="#275795"/>
    </g>
    <g id="Polygon_2" data-name="Polygon 2" transform="translate(1385.252 1086.823) rotate(-90)" fill="#fff">
      <path d="M 10.20818042755127 9.901096343994141 L 1.684581160545349 9.901096343994141 L 5.946380615234375 2.0882248878479 L 10.20818042755127 9.901096343994141 Z" stroke="none"/>
      <path d="M 5.946380615234375 4.176471710205078 L 3.369172096252441 8.901096343994141 L 8.523590087890625 8.901096343994141 L 5.946380615234375 4.176471710205078 M 5.946380615234375 -3.814697265625e-06 L 11.89276027679443 10.90109634399414 L 9.5367431640625e-07 10.90109634399414 L 5.946380615234375 -3.814697265625e-06 Z" stroke="none" fill="#275795"/>
    </g>
    <g id="Polygon_3" data-name="Polygon 3" transform="translate(1380.297 1074.931) rotate(90)" fill="#fff">
      <path d="M 10.20818042755127 9.901096343994141 L 1.684581160545349 9.901096343994141 L 5.946380615234375 2.0882248878479 L 10.20818042755127 9.901096343994141 Z" stroke="none"/>
      <path d="M 5.946380615234375 4.176471710205078 L 3.369172096252441 8.901096343994141 L 8.523590087890625 8.901096343994141 L 5.946380615234375 4.176471710205078 M 5.946380615234375 -3.814697265625e-06 L 11.89276027679443 10.90109634399414 L 9.5367431640625e-07 10.90109634399414 L 5.946380615234375 -3.814697265625e-06 Z" stroke="none" fill="#275795"/>
    </g>
  </g>
</svg>
