<svg xmlns="http://www.w3.org/2000/svg" width="40.245" height="41.192" viewBox="0 0 40.245 41.192">
  <g id="Group_626" data-name="Group 626" transform="translate(-25.577 -29.05)">
    <g id="Group_10" data-name="Group 10" transform="translate(26.577 30.238)">
      <rect id="Rectangle_10" data-name="Rectangle 10" width="15.671" height="10.091" rx="0.643" transform="translate(11.287 18.548)" fill="none" stroke="#315892" stroke-linecap="round" stroke-linejoin="round" stroke-width="2"/>
      <path id="Path_8" data-name="Path 8" d="M38.886,46.962v-4.45a4.78,4.78,0,0,1,9.56,0v4.78" transform="translate(-24.122 -28.744)" fill="none" stroke="#315892" stroke-linecap="round" stroke-linejoin="round" stroke-width="2"/>
      <path id="Path_9" data-name="Path 9" d="M42.928,68.26a19.128,19.128,0,0,1-4.672-36.543" transform="translate(-26.577 -29.944)" fill="none" stroke="#315892" stroke-linecap="round" stroke-linejoin="round" stroke-width="2"/>
      <path id="Path_10" data-name="Path 10" d="M43.466,30.492A19.126,19.126,0,0,1,49.774,67.2" transform="translate(-23.208 -30.188)" fill="none" stroke="#315892" stroke-linecap="round" stroke-linejoin="round" stroke-width="2"/>
      <path id="Path_11" data-name="Path 11" d="M32.609,30.238l5.063,1.093-1.093,5.063" transform="translate(-25.374 -30.238)" fill="none" stroke="#315892" stroke-linecap="round" stroke-linejoin="round" stroke-width="2"/>
      <path id="Path_12" data-name="Path 12" d="M52.994,63.622l-5.063-1.093,1.093-5.063" transform="translate(-22.317 -24.807)" fill="none" stroke="#315892" stroke-linecap="round" stroke-linejoin="round" stroke-width="2"/>
    </g>
  </g>
</svg>
