<svg xmlns="http://www.w3.org/2000/svg" width="45.98" height="42.39" viewBox="0 0 45.98 42.39">
  <g id="Group_665" data-name="Group 665" transform="translate(-14.572 -21.412)">
    <g id="Group_560" data-name="Group 560" transform="translate(44.441 22.412)">
      <ellipse id="Ellipse_4" data-name="Ellipse 4" cx="4.96" cy="4.96" rx="4.96" ry="4.96" transform="translate(1.523 0)" fill="none" stroke="#265795" stroke-linecap="round" stroke-linejoin="round" stroke-width="2"/>
      <path id="Path_7" data-name="Path 7" d="M50.95,34.825a8.4,8.4,0,0,1,14.884,5.342v.007" transform="translate(-50.95 -18.848)" fill="none" stroke="#265795" stroke-linecap="round" stroke-linejoin="round" stroke-width="2"/>
    </g>
    <g id="Group_562" data-name="Group 562" transform="translate(15.572 40.742)">
      <g id="Group_561" data-name="Group 561" transform="translate(4.668 0)">
        <line id="Line_115" data-name="Line 115" y1="7.159" transform="translate(4.459 5.767)" fill="none" stroke="#265795" stroke-linecap="round" stroke-linejoin="round" stroke-width="2"/>
        <line id="Line_116" data-name="Line 116" y1="10.639" transform="translate(9.23 2.287)" fill="none" stroke="#265795" stroke-linecap="round" stroke-linejoin="round" stroke-width="2"/>
        <line id="Line_117" data-name="Line 117" y1="12.277" transform="translate(14.423 0.649)" fill="none" stroke="#265795" stroke-linecap="round" stroke-linejoin="round" stroke-width="2"/>
        <line id="Line_118" data-name="Line 118" y1="12.277" transform="translate(19.617 0.649)" fill="none" stroke="#265795" stroke-linecap="round" stroke-linejoin="round" stroke-width="2"/>
        <line id="Line_119" data-name="Line 119" y1="11.352" transform="translate(24.809 1.574)" fill="none" stroke="#265795" stroke-linecap="round" stroke-linejoin="round" stroke-width="2"/>
        <line id="Line_120" data-name="Line 120" y1="7.907" transform="translate(30.004 5.019)" fill="none" stroke="#265795" stroke-linecap="round" stroke-linejoin="round" stroke-width="2"/>
        <path id="Path_546" data-name="Path 546" d="M55.847,51.323C54.12,43.935,47.045,38.4,38.569,38.4s-15.55,5.537-17.277,12.925Z" transform="translate(-21.292 -38.398)" fill="none" stroke="#265795" stroke-linecap="round" stroke-linejoin="round" stroke-width="2"/>
      </g>
      <line id="Line_121" data-name="Line 121" x2="43.98" transform="translate(0 12.926)" fill="none" stroke="#265795" stroke-linecap="round" stroke-linejoin="round" stroke-width="2"/>
      <path id="Path_547" data-name="Path 547" d="M25.751,54.238v9.134h-4.46V54.238" transform="translate(-16.624 -41.313)" fill="none" stroke="#265795" stroke-linecap="round" stroke-linejoin="round" stroke-width="2"/>
      <path id="Path_548" data-name="Path 548" d="M62.6,54.238v9.134h-4.46V54.238" transform="translate(-23.403 -41.313)" fill="none" stroke="#265795" stroke-linecap="round" stroke-linejoin="round" stroke-width="2"/>
    </g>
  </g>
</svg>
