<svg xmlns="http://www.w3.org/2000/svg" xmlns:xlink="http://www.w3.org/1999/xlink" width="37" height="37" viewBox="0 0 37 37">
  <defs>
    <clipPath id="clip-path">
      <rect id="Rectangle_209" data-name="Rectangle 209" width="37" height="37" fill="none"/>
    </clipPath>
  </defs>
  <g id="Group_1076" data-name="Group 1076" clip-path="url(#clip-path)">
    <path id="Path_711" data-name="Path 711" d="M18.5,35.5A17,17,0,0,1,6.479,6.479,17,17,0,0,1,30.521,30.521,16.888,16.888,0,0,1,18.5,35.5"/>
    <path id="Path_712" data-name="Path 712" d="M18.5,3A15.5,15.5,0,0,0,7.54,29.46,15.5,15.5,0,1,0,29.46,7.54,15.4,15.4,0,0,0,18.5,3m0-3A18.5,18.5,0,1,1,0,18.5,18.5,18.5,0,0,1,18.5,0" fill="#fff"/>
    <path id="Path_1111" data-name="Path 1111" d="M-1.966,0H5.569" transform="translate(25.931 18.5)" fill="none" stroke="#000" stroke-linecap="round" stroke-width="2"/>
    <path id="Path_713" data-name="Path 713" d="M29.485,14.235,25.219,18.5l4.265,4.265" transform="translate(-2.421)" fill="none" stroke="#fff" stroke-linecap="round" stroke-linejoin="round" stroke-width="2"/>
    <line id="Line_152" data-name="Line 152" x1="8" transform="translate(5.5 18.5)" fill="none" stroke="#000" stroke-linecap="round" stroke-miterlimit="10" stroke-width="2"/>
    <path id="Path_714" data-name="Path 714" d="M7.516,22.765,11.78,18.5,7.516,14.235" transform="translate(2.421)" fill="none" stroke="#fff" stroke-linecap="round" stroke-linejoin="round" stroke-width="2"/>
    <path id="Path_715" data-name="Path 715" d="M18.5,26.328h0a1.349,1.349,0,0,1-1.345-1.345V12.262a1.345,1.345,0,0,1,2.69,0V24.983A1.349,1.349,0,0,1,18.5,26.328" fill="#fff"/>
  </g>
</svg>
