<svg xmlns="http://www.w3.org/2000/svg" width="37.355" height="37.355" viewBox="0 0 37.355 37.355">
  <g id="Group_2150" data-name="Group 2150" transform="translate(-1145 -1149.095)">
    <path id="Path_1174" data-name="Path 1174" d="M17.763,34.927A17.162,17.162,0,0,1,5.628,5.628,17.162,17.162,0,1,1,29.9,29.9a17.043,17.043,0,0,1-12.135,5.028" transform="translate(1145.914 1150.01)"/>
    <path id="Path_1175" data-name="Path 1175" d="M18.678,3.029A15.649,15.649,0,0,0,7.612,29.743,15.649,15.649,0,1,0,29.743,7.612,15.547,15.547,0,0,0,18.678,3.029m0-3.029A18.678,18.678,0,1,1,0,18.678,18.677,18.677,0,0,1,18.678,0" transform="translate(1145 1149.095)" fill="#fff"/>
    <line id="Line_230" data-name="Line 230" x2="5.952" transform="translate(1167.995 1163.73)" fill="none" stroke="#fff" stroke-linecap="round" stroke-width="2"/>
    <path id="Path_1176" data-name="Path 1176" d="M12.115,4.463l-3.37,3.37,3.37,3.37" transform="translate(1158.328 1155.897)" fill="none" stroke="#fff" stroke-linecap="round" stroke-linejoin="round" stroke-width="2"/>
    <line id="Line_231" data-name="Line 231" x1="6.32" transform="translate(1153.407 1163.73)" fill="none" stroke="#fff" stroke-linecap="round" stroke-miterlimit="10" stroke-width="2"/>
    <path id="Path_1177" data-name="Path 1177" d="M4.72,11.2l3.37-3.37L4.72,4.463" transform="translate(1152.193 1155.897)" fill="none" stroke="#fff" stroke-linecap="round" stroke-linejoin="round" stroke-width="2"/>
    <path id="Path_1178" data-name="Path 1178" d="M8.042,15.6h0a1.068,1.068,0,0,1-1.063-1.063V4.487a1.063,1.063,0,0,1,2.125,0V14.537A1.068,1.068,0,0,1,8.042,15.6" transform="translate(1155.636 1154.313)" fill="#fff"/>
    <path id="Path_1184" data-name="Path 1184" d="M6.181,12.595l1.911,2.119,3.494-5.658" transform="translate(1155.488 1164.466)" fill="none" stroke="#fff" stroke-linecap="round" stroke-linejoin="round" stroke-width="2"/>
  </g>
</svg>
