<svg xmlns="http://www.w3.org/2000/svg" xmlns:xlink="http://www.w3.org/1999/xlink" width="37.358" height="39.933" viewBox="0 0 37.358 39.933">
  <defs>
    <clipPath id="clip-path">
      <rect id="Rectangle_535" data-name="Rectangle 535" width="37.358" height="39.933" transform="translate(0 51)" fill="none"/>
    </clipPath>
  </defs>
  <g id="Group_2146" data-name="Group 2146" transform="translate(-3 8)">
    <g id="Group_2145" data-name="Group 2145" transform="translate(3 -59)" clip-path="url(#clip-path)">
      <path id="Path_1167" data-name="Path 1167" d="M17.163,21.227A17.162,17.162,0,1,1,0,38.389,17.162,17.162,0,0,1,17.163,21.227" transform="translate(1.517 33.867)" fill="#e30101"/>
      <circle id="Ellipse_169" data-name="Ellipse 169" cx="17.163" cy="17.163" r="17.163" transform="translate(1.518 55.092)" fill="none" stroke="#fff" stroke-width="3"/>
      <line id="Line_223" data-name="Line 223" x1="6.585" y2="6.585" transform="translate(15.388 76.92)" fill="none" stroke="#fff" stroke-linecap="round" stroke-width="2"/>
      <line id="Line_224" data-name="Line 224" x1="6.585" y1="6.585" transform="translate(15.388 76.92)" fill="none" stroke="#fff" stroke-linecap="round" stroke-width="2"/>
      <line id="Line_227" data-name="Line 227" x2="5.952" transform="translate(22.995 66.745)" fill="none" stroke="#fff" stroke-linecap="round" stroke-width="2"/>
      <path id="Path_1171" data-name="Path 1171" d="M12.115,25.109l-3.37,3.37,3.37,3.37" transform="translate(13.328 38.267)" fill="none" stroke="#fff" stroke-linecap="round" stroke-linejoin="round" stroke-width="2"/>
      <line id="Line_228" data-name="Line 228" x1="6.32" transform="translate(8.408 66.745)" fill="none" stroke="#fff" stroke-linecap="round" stroke-miterlimit="10" stroke-width="2"/>
      <path id="Path_1172" data-name="Path 1172" d="M4.72,31.848l3.37-3.37-3.37-3.37" transform="translate(7.193 38.267)" fill="none" stroke="#fff" stroke-linecap="round" stroke-linejoin="round" stroke-width="2"/>
      <path id="Path_1173" data-name="Path 1173" d="M8.042,36.246h0a1.068,1.068,0,0,1-1.063-1.063V25.133a1.063,1.063,0,1,1,2.125,0V35.183a1.068,1.068,0,0,1-1.063,1.063" transform="translate(10.636 36.684)" fill="#fff"/>
    </g>
  </g>
</svg>
