<?xml version="1.0" encoding="UTF-8"?><svg id="Layer_1" xmlns="http://www.w3.org/2000/svg" width="23.72" height="26.84" viewBox="0 0 23.72 26.84"><defs><style>.cls-1{fill:#fff;}.cls-2{fill:#0b4685;}</style></defs><g id="Group_1397"><g id="Repeat_Grid_3"><g id="Group_169"><g id="Path_228"><path class="cls-1" d="m17.56,25.22H6.26c-.63,0-1.15-.51-1.15-1.15V7.04h13.6v17.03c0,.63-.51,1.15-1.15,1.15Z"/><path class="cls-2" d="m17.56,25.22c.63,0,1.15-.52,1.15-1.15V7.04H5.11v17.03c0,.63.52,1.15,1.15,1.15h11.3m0,1.49H6.26c-1.45,0-2.63-1.18-2.63-2.63V5.56h16.57v18.51c0,1.45-1.18,2.63-2.63,2.63Z"/></g><g id="Line_46"><rect class="cls-2" x="1.61" y="1.74" width="20.5" height="2.48"/></g><g id="Line_47"><rect class="cls-2" x="6.07" y="0" width="11.69" height="2.48"/></g></g></g></g></svg>