<svg xmlns="http://www.w3.org/2000/svg" xmlns:xlink="http://www.w3.org/1999/xlink" width="49.539" height="40.167" viewBox="0 0 49.539 40.167">
  <defs>
    <clipPath id="clip-path">
      <rect id="Rectangle_526" data-name="Rectangle 526" width="49.539" height="40.167" transform="translate(0 0)" fill="none"/>
    </clipPath>
  </defs>
  <g id="Group_2106" data-name="Group 2106" clip-path="url(#clip-path)">
    <circle id="Ellipse_162" data-name="Ellipse 162" cx="8.692" cy="8.692" r="8.692" transform="translate(7.199 1.319)" fill="none" stroke="#315892" stroke-linecap="round" stroke-linejoin="round" stroke-width="2.637"/>
    <path id="Path_1136" data-name="Path 1136" d="M1.319,38.849a14.649,14.649,0,0,1,29.3-.278c0,.093,0,.185,0,.278" fill="none" stroke="#315892" stroke-linecap="round" stroke-linejoin="round" stroke-width="2.637"/>
    <path id="Path_1137" data-name="Path 1137" d="M38.633,8.934A9.432,9.432,0,1,1,29.2,18.366a9.4,9.4,0,0,1,9.432-9.432" fill="#fff"/>
    <path id="Path_1138" data-name="Path 1138" d="M38.633,8.934A9.432,9.432,0,1,1,29.2,18.366,9.4,9.4,0,0,1,38.633,8.934Z" fill="none" stroke="#cb1417" stroke-miterlimit="10" stroke-width="2.947"/>
    <line id="Line_212" data-name="Line 212" x2="13.128" y2="13.128" transform="translate(32.426 12.337)" fill="#fff"/>
    <line id="Line_213" data-name="Line 213" x2="13.128" y2="13.128" transform="translate(32.426 12.337)" fill="none" stroke="#cb1417" stroke-miterlimit="10" stroke-width="2.947"/>
  </g>
</svg>
