<?xml version="1.0" encoding="UTF-8"?><svg id="Layer_1" xmlns="http://www.w3.org/2000/svg" width="25.1" height="28.59" viewBox="0 0 25.1 28.59"><defs><style>.cls-1{fill:#004785;}</style></defs><path class="cls-1" d="M16.77,20.48v1.22s-.04,.02-.07,.03c-1.4,.42-2.79,.84-4.19,1.25-.09,.03-.23-.02-.31-.08-1.59-1.26-3.9-1.38-5.62-.29-2,1.27-2.11,3.72-.19,5.07,1.5,1.06,3.15,1.16,4.82,.46,1.13-.47,1.94-1.28,2.14-2.55,.05-.35,0-.71,0-1.1,.04-.01,.11-.04,.19-.06,1.31-.39,2.62-.78,3.92-1.18,.21-.06,.35-.05,.52,.09,1.63,1.3,4.16,1.31,5.82,.05,1.6-1.22,1.73-3.24,.29-4.58-1.67-1.56-4.66-1.57-6.33,0-.15,.14-.27,.16-.46,.1-1.95-.66-3.91-1.31-5.86-1.96-.49-.16-.98-.33-1.47-.5,.17-1.14-.24-2.02-1.07-2.77-1.22,1.29-2.01,2.86-3.05,4.26-1.05-1.4-1.83-2.98-3.04-4.24-1.46,1.15-1.52,3.14-.16,4.42,1.69,1.59,4.68,1.6,6.37,0,.14-.13,.25-.14,.41-.08,1.53,.52,3.06,1.03,4.6,1.54,.91,.31,1.83,.61,2.74,.91Z"/><path class="cls-1" d="M7.43,.23c-.34-.09-.69-.15-1.03-.23h-1.12c-.24,.05-.47,.09-.71,.14C1.17,.88-1.3,4.89,.74,8.67c.55,1.03,1.32,1.89,2.13,2.71,1.02,1.02,2.05,2.03,2.77,3.3,.05,.09,.13,.17,.21,.28,.09-.13,.17-.22,.23-.32,.66-1.15,1.59-2.07,2.5-3.02,.59-.61,1.17-1.23,1.69-1.89,.88-1.12,1.41-2.41,1.42-3.85,.02-2.58-1.78-4.94-4.27-5.64Zm-1.6,8.2c-1.38,0-2.51-1.15-2.5-2.54,.01-1.37,1.15-2.49,2.52-2.48,1.39,0,2.51,1.15,2.5,2.54-.01,1.37-1.15,2.49-2.52,2.48Z"/><path class="cls-1" d="M16.77,20.48c-.91-.3-1.83-.61-2.74-.91-1.53-.51-3.07-1.02-4.6-1.54-.17-.06-.27-.05-.41,.08-1.69,1.59-4.68,1.59-6.37,0-1.36-1.28-1.3-3.27,.16-4.42,1.21,1.26,1.99,2.84,3.04,4.24,1.05-1.4,1.83-2.97,3.05-4.26,.84,.75,1.25,1.63,1.07,2.77,.49,.17,.98,.33,1.47,.5,1.95,.65,3.91,1.3,5.86,1.96,.19,.06,.31,.05,.46-.1,1.67-1.57,4.66-1.56,6.33,0,1.44,1.35,1.31,3.36-.29,4.58-1.66,1.26-4.19,1.25-5.82-.05-.18-.14-.31-.16-.52-.09-1.3,.4-2.61,.79-3.92,1.18-.08,.02-.16,.05-.19,.06,0,.38,.05,.75,0,1.1-.2,1.27-1.01,2.08-2.14,2.55-1.67,.7-3.32,.6-4.82-.46-1.92-1.35-1.81-3.8,.19-5.07,1.72-1.09,4.02-.97,5.62,.29,.08,.06,.22,.11,.31,.08,1.4-.41,2.79-.83,4.19-1.25,.03-.01,.07-.03,.07-.03v-1.22Z"/><path class="cls-1" d="M6.68,5.92c0,.45-.39,.83-.84,.83-.46,0-.85-.4-.83-.86,.01-.45,.4-.82,.85-.81,.45,0,.83,.39,.82,.84Z"/></svg>