<svg xmlns="http://www.w3.org/2000/svg" xmlns:xlink="http://www.w3.org/1999/xlink" width="49.576" height="40.167" viewBox="0 0 49.576 40.167">
  <defs>
    <clipPath id="clip-path">
      <rect id="Rectangle_527" data-name="Rectangle 527" width="49.576" height="40.167" transform="translate(0 0)" fill="none"/>
    </clipPath>
  </defs>
  <g id="Group_2107" data-name="Group 2107" clip-path="url(#clip-path)">
    <circle id="Ellipse_163" data-name="Ellipse 163" cx="8.692" cy="8.692" r="8.692" transform="translate(7.199 1.319)" fill="none" stroke="#315892" stroke-linecap="round" stroke-linejoin="round" stroke-width="2.637"/>
    <path id="Path_1139" data-name="Path 1139" d="M1.319,38.849a14.649,14.649,0,0,1,29.3-.278c0,.093,0,.185,0,.278" fill="none" stroke="#315892" stroke-linecap="round" stroke-linejoin="round" stroke-width="2.637"/>
    <path id="Path_1140" data-name="Path 1140" d="M38.633,8.005a10.36,10.36,0,1,1-10.36,10.36,10.36,10.36,0,0,1,10.36-10.36" fill="#127f35"/>
    <path id="Path_1141" data-name="Path 1141" d="M38.633,8.005a10.36,10.36,0,1,1-10.36,10.36A10.36,10.36,0,0,1,38.633,8.005Z" fill="none" stroke="#127f35" stroke-linecap="round" stroke-linejoin="round" stroke-width="1.166"/>
    <path id="Path_1142" data-name="Path 1142" d="M34.915,19.071l2.979,3.3,5.449-8.82" fill="none" stroke="#fff" stroke-linecap="round" stroke-linejoin="round" stroke-width="1.166"/>
  </g>
</svg>
