<svg xmlns="http://www.w3.org/2000/svg" xmlns:xlink="http://www.w3.org/1999/xlink" width="20.961" height="24.114" viewBox="0 0 20.961 24.114">
  <defs>
    <clipPath id="clip-path">
      <rect id="Rectangle_572" data-name="Rectangle 572" width="20.961" height="24.114" transform="translate(0 0)" fill="none" stroke="#fff" stroke-width="1.5"/>
    </clipPath>
  </defs>
  <g id="Group_2382" data-name="Group 2382" transform="translate(2.933 3.375)">
    <g id="Group_2337" data-name="Group 2337" transform="translate(-2.933 -3.375)" clip-path="url(#clip-path)">
      <path id="Path_1233" data-name="Path 1233" d="M17.852,10.3H1.288l6.523,8.911v9.892l3.581-2.9V19.127Z" transform="translate(-0.698 -5.582)" fill="none" stroke="#fff" stroke-linecap="round" stroke-linejoin="round" stroke-width="1.5"/>
      <path id="Path_1234" data-name="Path 1234" d="M32.564,6.317a5.029,5.029,0,1,1-5.029-5.029,5.029,5.029,0,0,1,5.029,5.029" transform="translate(-12.194 -0.698)" fill="#275795" stroke="#fff" stroke-width="1.5"/>
      <circle id="Ellipse_175" data-name="Ellipse 175" cx="5.029" cy="5.029" r="5.029" transform="translate(10.313 0.59)" fill="none" stroke="#fff" stroke-linecap="round" stroke-linejoin="round" stroke-width="1.5"/>
      <path id="Path_1235" data-name="Path 1235" d="M29.622,10.547l1.462,1.41,2.323-3.941" transform="translate(-16.048 -4.343)" fill="none" stroke="#fff" stroke-width="1.5"/>
      <path id="Path_1236" data-name="Path 1236" d="M29.622,10.547l1.462,1.41,2.323-3.941" transform="translate(-16.048 -4.343)" fill="none" stroke="#fff" stroke-linecap="round" stroke-linejoin="round" stroke-width="1.5"/>
    </g>
  </g>
</svg>
