<svg xmlns="http://www.w3.org/2000/svg" xmlns:xlink="http://www.w3.org/1999/xlink" width="30.498" height="40.689" viewBox="0 0 30.498 40.689">
  <defs>
    <clipPath id="clip-path">
      <rect id="Rectangle_499" data-name="Rectangle 499" width="24.498" height="36.689" transform="translate(0 -2)" fill="none"/>
    </clipPath>
    <clipPath id="clip-path-2">
      <rect id="Rectangle_502" data-name="Rectangle 502" width="30.498" height="40.689" transform="translate(-2 -3)" fill="none"/>
    </clipPath>
    <clipPath id="clip-path-3">
      <rect id="Rectangle_513" data-name="Rectangle 513" width="29.498" height="39.689" transform="translate(-2 -2)" fill="none"/>
    </clipPath>
  </defs>
  <g id="Group_2023" data-name="Group 2023" transform="translate(2 3)">
    <g id="Group_1976" data-name="Group 1976" transform="translate(0 0)">
      <g id="Group_1975" data-name="Group 1975" clip-path="url(#clip-path)">
        <path id="Path_1112" data-name="Path 1112" d="M0,24.632V0" transform="translate(5.805 1.153)" fill="none" stroke="#000" stroke-linecap="round" stroke-width="2"/>
      </g>
    </g>
    <rect id="Rectangle_500" data-name="Rectangle 500" width="17.54" height="14.445" transform="translate(5.805 2.814)" fill="#fff"/>
    <g id="Group_1978" data-name="Group 1978" transform="translate(0 0)">
      <g id="Group_1977" data-name="Group 1977" clip-path="url(#clip-path-2)">
        <rect id="Rectangle_501" data-name="Rectangle 501" width="17.54" height="14.445" transform="translate(5.805 2.814)" fill="none" stroke="#000" stroke-linecap="round" stroke-linejoin="round" stroke-width="2"/>
      </g>
    </g>
    <rect id="Rectangle_503" data-name="Rectangle 503" width="3.189" height="3.189" transform="translate(6.603 3.676)"/>
    <rect id="Rectangle_504" data-name="Rectangle 504" width="3.189" height="3.189" transform="translate(12.981 3.676)"/>
    <rect id="Rectangle_505" data-name="Rectangle 505" width="3.189" height="3.189" transform="translate(19.358 3.676)"/>
    <rect id="Rectangle_506" data-name="Rectangle 506" width="3.189" height="3.189" transform="translate(9.792 6.865)"/>
    <rect id="Rectangle_507" data-name="Rectangle 507" width="3.189" height="3.189" transform="translate(16.169 6.865)"/>
    <rect id="Rectangle_508" data-name="Rectangle 508" width="3.189" height="3.189" transform="translate(6.603 10.054)"/>
    <rect id="Rectangle_509" data-name="Rectangle 509" width="3.189" height="3.189" transform="translate(12.981 10.054)"/>
    <rect id="Rectangle_510" data-name="Rectangle 510" width="3.189" height="3.189" transform="translate(19.358 10.054)"/>
    <rect id="Rectangle_511" data-name="Rectangle 511" width="3.189" height="3.189" transform="translate(9.792 13.243)"/>
    <rect id="Rectangle_512" data-name="Rectangle 512" width="3.189" height="3.189" transform="translate(16.169 13.243)"/>
  </g>
</svg>
