<?xml version="1.0" encoding="UTF-8"?><svg id="Layer_1" xmlns="http://www.w3.org/2000/svg" width="33" height="42.8" xmlns:xlink="http://www.w3.org/1999/xlink" viewBox="0 0 33 42.8"><defs><style>.cls-1{fill:#fff;}.cls-2{clip-path:url(#clippath-2);}.cls-3{fill:#a4d15b;}.cls-4{clip-path:url(#clippath-1);}.cls-5{clip-path:url(#clippath-4);}.cls-6,.cls-7,.cls-8{fill:none;}.cls-6,.cls-8{stroke:#000;stroke-linecap:round;stroke-width:2px;}.cls-9{clip-path:url(#clippath);}.cls-10{clip-path:url(#clippath-3);}.cls-8{stroke-linejoin:round;}</style><clipPath id="clippath"><rect class="cls-7" x="3" y="3" width="27" height="36.8"/></clipPath><clipPath id="clippath-1"><rect class="cls-7" width="33" height="42.8"/></clipPath><clipPath id="clippath-2"><rect class="cls-7" x="3.3" y="3.4" width="26.5" height="36.1"/></clipPath><clipPath id="clippath-3"><rect class="cls-7" x="3.3" y="3.4" width="26.5" height="36.1"/></clipPath><clipPath id="clippath-4"><rect class="cls-7" x="3.3" y="3.4" width="26.5" height="36.1"/></clipPath></defs><g id="Group_2022"><g id="Group_1983"><g class="cls-9"><g id="Group_1982"><path id="Path_1120" class="cls-6" d="m9.1,29.4V4.2"/></g></g></g><path id="Path_1108" class="cls-3" d="m28.8,12.5l-19.7,7.6V4.2l19.7,8.3Z"/><g id="Group_1985"><g class="cls-4"><g id="Group_1984"><path id="Path_1109" class="cls-8" d="m28.8,12.5l-19.7,7.6V4.2l19.7,8.3Z"/></g></g></g></g><g><g class="cls-2"><path d="m9.3,21c-.2,0-.4-.1-.5-.2-.2-.2-.4-.4-.4-.7V4.6c0-.3.1-.6.4-.7.2-.2.5-.3.8-.1l19.3,8.1c.3.1.6.5.5.8,0,.4-.2.7-.6.8l-19.2,7.5h-.3Zm.8-15.1v12.9l16-6.2L10.1,5.9Z"/></g><g class="cls-10"><path class="cls-1" d="m14,33.5c0,2.6-2.1,4.8-4.8,4.8s-4.8-2.1-4.8-4.8,2.1-4.8,4.8-4.8,4.8,2.1,4.8,4.8"/></g><g class="cls-5"><path d="m9.3,39.2c-3.1,0-5.7-2.5-5.7-5.7s2.5-5.7,5.7-5.7,5.7,2.5,5.7,5.7-2.6,5.7-5.7,5.7Zm0-9.6c-2.1,0-3.9,1.7-3.9,3.9s1.7,3.9,3.9,3.9,3.9-1.7,3.9-3.9-1.8-3.9-3.9-3.9Z"/></g></g></svg>