<?xml version="1.0" encoding="UTF-8"?><svg xmlns="http://www.w3.org/2000/svg" width="26" height="36.8" xmlns:xlink="http://www.w3.org/1999/xlink" viewBox="0 0 26 36.8"><defs><style>.cls-1{fill:#fff;}.cls-2{opacity:.5;}.cls-3{clip-path:url(#clippath-2);}.cls-4{clip-path:url(#clippath-1);}.cls-5{clip-path:url(#clippath);}.cls-6{fill:none;}.cls-7{clip-path:url(#clippath-3);}</style><clipPath id="clippath"><rect class="cls-6" width="26" height="36.8"/></clipPath><clipPath id="clippath-1"><rect class="cls-6" width="26" height="36.8"/></clipPath><clipPath id="clippath-2"><rect class="cls-6" width="26" height="36.8"/></clipPath><clipPath id="clippath-3"><rect class="cls-6" width="26" height="36.8"/></clipPath></defs><g id="Layer_1" class="cls-2"><g class="cls-5"><path d="m6.1,31.6c-.5,0-.9-.4-.9-.9V1.3c0-.5.4-.9.9-.9s.9.4.9.9v29.4c0,.5-.4.9-.9.9Z"/></g><rect class="cls-1" x="6.1" y="3" width="18.6" height="15.3"/><g class="cls-4"><path d="m25.7,19.3H5.2V2.1h20.5v17.2Zm-18.7-1.9h16.8V3.9H7s0,13.5,0,13.5Z"/></g><g><rect x="7" y="3.9" width="3.4" height="3.4"/><rect x="13.7" y="3.9" width="3.4" height="3.4"/><rect x="20.5" y="3.9" width="3.4" height="3.4"/><rect x="10.4" y="7.3" width="3.4" height="3.4"/><rect x="17.1" y="7.3" width="3.4" height="3.4"/><rect x="7" y="10.7" width="3.4" height="3.4"/><rect x="13.7" y="10.7" width="3.4" height="3.4"/><rect x="20.5" y="10.7" width="3.4" height="3.4"/><rect x="10.4" y="14.1" width="3.4" height="3.4"/><rect x="17.1" y="14.1" width="3.4" height="3.4"/></g><g><g class="cls-3"><path class="cls-1" d="m11.1,30.7c0,2.7-2.2,4.9-4.9,4.9s-4.9-2.2-4.9-4.9,2.2-4.9,4.9-4.9,4.9,2.2,4.9,4.9"/></g><g class="cls-7"><path d="m6.1,36.6c-3.2,0-5.9-2.6-5.9-5.9s2.6-5.9,5.9-5.9,5.9,2.6,5.9,5.9-2.6,5.9-5.9,5.9Zm0-9.9c-2.2,0-4,1.8-4,4s1.8,4,4,4,4-1.8,4-4-1.8-4-4-4Z"/></g></g></g></svg>