<?xml version="1.0" encoding="UTF-8"?><svg id="Layer_1" xmlns="http://www.w3.org/2000/svg" width="30.5" height="40.7" xmlns:xlink="http://www.w3.org/1999/xlink" viewBox="0 0 30.5 40.7"><defs><style>.cls-1{fill:#fff;}.cls-2{clip-path:url(#clippath-2);}.cls-3{clip-path:url(#clippath-1);}.cls-4{clip-path:url(#clippath);}.cls-5{fill:none;}.cls-6{clip-path:url(#clippath-3);}</style><clipPath id="clippath"><rect class="cls-5" x="1.7" y="2.8" width="26" height="36.8"/></clipPath><clipPath id="clippath-1"><rect class="cls-5" x="1.7" y="2.8" width="26" height="36.8"/></clipPath><clipPath id="clippath-2"><rect class="cls-5" x="1.7" y="2.8" width="26" height="36.8"/></clipPath><clipPath id="clippath-3"><rect class="cls-5" x="1.7" y="2.8" width="26" height="36.8"/></clipPath></defs><g class="cls-4"><path d="m7.8,34.4c-.5,0-.9-.4-.9-.9V4.1c0-.5.4-.9.9-.9s.9.4.9.9v29.4c0,.5-.4.9-.9.9Z"/></g><rect class="cls-1" x="7.8" y="5.8" width="18.6" height="15.3"/><g class="cls-3"><path d="m27.4,22.1H6.9V4.9h20.5v17.2Zm-18.7-1.9h16.8V6.7H8.7v13.5Z"/></g><g><rect x="8.7" y="6.7" width="3.4" height="3.4"/><rect x="15.4" y="6.7" width="3.4" height="3.4"/><rect x="22.2" y="6.7" width="3.4" height="3.4"/><rect x="12.1" y="10.1" width="3.4" height="3.4"/><rect x="18.8" y="10.1" width="3.4" height="3.4"/><rect x="8.7" y="13.5" width="3.4" height="3.4"/><rect x="15.4" y="13.5" width="3.4" height="3.4"/><rect x="22.2" y="13.5" width="3.4" height="3.4"/><rect x="12.1" y="16.9" width="3.4" height="3.4"/><rect x="18.8" y="16.9" width="3.4" height="3.4"/></g><g><g class="cls-2"><path class="cls-1" d="m12.8,33.5c0,2.7-2.2,4.9-4.9,4.9s-4.9-2.2-4.9-4.9,2.2-4.9,4.9-4.9,4.9,2.2,4.9,4.9"/></g><g class="cls-6"><path d="m7.8,39.4c-3.2,0-5.9-2.6-5.9-5.9s2.6-5.9,5.9-5.9,5.9,2.6,5.9,5.9c0,3.2-2.6,5.9-5.9,5.9Zm0-9.9c-2.2,0-4,1.8-4,4s1.8,4,4,4,4-1.8,4-4-1.8-4-4-4Z"/></g></g></svg>