<?xml version="1.0" standalone="no"?>
<!DOCTYPE svg PUBLIC "-//W3C//DTD SVG 1.0//EN" "http://www.w3.org/TR/2001/REC-SVG-20010904/DTD/svg10.dtd">
<svg xmlns="http://www.w3.org/2000/svg" xmlns:xlink="http://www.w3.org/1999/xlink" id="body_1" width="46" height="60">

<defs>
                <clipPath  id="1">

                    <path clip-rule="evenodd" d="M0 0L27.043 0L27.043 36.843L0 36.843z" />                </clipPath>
                <clipPath  id="2">

                    <path clip-rule="evenodd" d="M0 0L33.043 0L33.043 42.843L0 42.843z" />                </clipPath>
</defs>

<g transform="matrix(1.3921255 0 0 1.3921255 -0 0.17858541)">
	<g transform="matrix(1 0 0 1 3 3)">
		<g transform="matrix(1 0 0 1 0 0)">
			<g clip-path="url(#1)" >
                <path transform="matrix(1 0 0 1 6.098 1.211)"  d="M0 25.237L0 0" stroke="#000000" stroke-width="2" stroke-linecap="square" fill="none" />
			</g>
		</g>
        <path transform="matrix(1 0 0 1 -3.973 -0.789)"  d="M29.805 10.256L10.071001 17.906L10.071001 2L29.805 10.256z" stroke="none" fill="#A4D15B" fill-rule="nonzero" />
		<g transform="matrix(1 0 0 1 0 0)">
			<g clip-path="url(#2)" >
                <path transform="matrix(1 0 0 1 -3.973 -0.789)"  d="M29.805 10.256L10.071001 17.906L10.071001 2L29.805 10.256z" stroke="#000000" stroke-width="2" stroke-linecap="square" fill="none" />
			</g>
		</g>
	</g>
</g>
</svg>