<?xml version="1.0" encoding="utf-8"?>
<!-- Generator: Adobe Illustrator 27.8.0, SVG Export Plug-In . SVG Version: 6.00 Build 0)  -->
<svg version="1.1" id="Layer_1" xmlns="http://www.w3.org/2000/svg" xmlns:xlink="http://www.w3.org/1999/xlink" x="0px" y="0px"
	 width="21px" height="24.8px" viewBox="0 0 21 24.8" style="enable-background:new 0 0 21 24.8;" xml:space="preserve">
<style type="text/css">
	.st0{enable-background:new    ;}
	.st1{fill:#0A7E01;}
</style>
<g id="Group_2282" transform="translate(-1563.594 -407.719)">
	<g id="Group_1272" transform="translate(1359.594 31.719)">
		<g class="st0">
			<path class="st1" d="M214.3,377c1.6,0,3,0.2,4.1,0.6c1.2,0.4,2.1,0.9,2.9,1.6c0.7,0.7,1.3,1.5,1.7,2.4s0.5,1.9,0.5,3
				s-0.2,2.2-0.6,3.1s-0.9,1.8-1.7,2.4s-1.7,1.2-2.9,1.6s-2.5,0.6-4,0.6h-3v8h-4.8v-23.2h7.8V377z M214.3,388.5
				c1.5,0,2.6-0.4,3.3-1.1s1-1.7,1-3c0-0.6-0.1-1.1-0.3-1.6s-0.4-0.9-0.8-1.2c-0.4-0.3-0.8-0.6-1.4-0.8s-1.2-0.3-1.9-0.3h-3v7.9h3.1
				V388.5z"/>
		</g>
	</g>
</g>
</svg>
