<svg xmlns="http://www.w3.org/2000/svg" xmlns:xlink="http://www.w3.org/1999/xlink" width="90" height="93" viewBox="0 0 90 93">
  <defs>
    <clipPath id="clip-path">
      <rect id="Rectangle_1660" data-name="Rectangle 1660" width="68.485" height="40.163" fill="none"/>
    </clipPath>
  </defs>
  <g id="Group_2393" data-name="Group 2393" transform="translate(0 -0.149)">
    <rect id="Rectangle_1661" data-name="Rectangle 1661" width="90" height="93" transform="translate(0 0.149)" fill="#c00"/>
    <g id="Group_2344" data-name="Group 2344" transform="translate(11.433 30.612)">
      <g id="Group_516" data-name="Group 516" transform="translate(0 0)" clip-path="url(#clip-path)">
        <path id="Path_1120" data-name="Path 1120" d="M8.377,24.019C3.75,24.019,0,27.222,0,31.173s3.75,7.154,8.377,7.154h9.8V24.019Z" transform="translate(4.412 -15.449)" fill="#fff"/>
        <path id="Path_1121" data-name="Path 1121" d="M34.772,84.566l1.87,11.306s0,1.277,2.319,1.341,5.909,0,5.909,0a1.6,1.6,0,0,0,1.111-2.108c-.587-1.6-4.476-10.539-4.476-10.539Z" transform="translate(-19.665 -60.092)" fill="#fff"/>
        <path id="Path_1122" data-name="Path 1122" d="M86.672.88C86.6-1.1,83.53.88,83.53.88a41.79,41.79,0,0,1-5.235,3.832,11.593,11.593,0,0,1-6.432,1.341H66.627V20.872h5.236a11.592,11.592,0,0,1,6.432,1.341,41.774,41.774,0,0,1,5.235,3.832s3.067,1.98,3.141,0,0-12.583,0-12.583.075-10.6,0-12.583" transform="translate(-41.722 2.261)" fill="#fff"/>
        <line id="Line_36" data-name="Line 36" x2="10.397" transform="translate(50.682 15.97)" fill="#929393"/>
        <line id="Line_37" data-name="Line 37" x2="10.397" transform="translate(50.682 15.97)" fill="none" stroke="#fff" stroke-linecap="round" stroke-miterlimit="10" stroke-width="2"/>
        <line id="Line_38" data-name="Line 38" y1="3.94" x2="10.397" transform="translate(50.682 5.075)" fill="#929393"/>
        <line id="Line_39" data-name="Line 39" y1="3.94" x2="10.397" transform="translate(50.682 5.075)" fill="none" stroke="#fff" stroke-linecap="round" stroke-miterlimit="10" stroke-width="2"/>
        <line id="Line_40" data-name="Line 40" x2="10.397" y2="3.94" transform="translate(50.682 22.073)" fill="#929393"/>
        <line id="Line_41" data-name="Line 41" x2="10.397" y2="3.94" transform="translate(50.682 22.073)" fill="none" stroke="#fff" stroke-linecap="round" stroke-miterlimit="10" stroke-width="2"/>
      </g>
    </g>
  </g>
</svg>
