<?xml version="1.0" encoding="UTF-8"?><svg id="Layer_1" xmlns="http://www.w3.org/2000/svg" width="43.64" height="43.64" xmlns:xlink="http://www.w3.org/1999/xlink" viewBox="0 0 43.64 43.64"><defs><style>.cls-1{stroke:#275795;stroke-width:.8px;}.cls-1,.cls-2{fill:none;}.cls-3{clip-path:url(#clippath);}.cls-4{fill:#275795;}</style><clipPath id="clippath"><rect class="cls-2" width="43.64" height="43.64"/></clipPath></defs><g id="Group_2347"><g class="cls-3"><g id="Mask_Group_10"><rect id="Rectangle_520" class="cls-1" x=".77" y=".77" width="42.1" height="42.1" rx="2.84" ry="2.84"/></g></g></g><path class="cls-4" d="M22.86,30.34c.15,1.19,.29,2.36,.43,3.53,.1,.79,.21,1.59,.29,2.38,.08,.71-.2,1.13-.82,1.29-.12,.03-.27,.03-.38-.01-1.16-.39-2.31-.8-3.47-1.18-.4-.13-.66-.37-.84-.75-.63-1.34-1.27-2.67-1.89-4.01-.11-.23-.23-.31-.48-.26-1.12,.22-2.24,.44-3.36,.65-1.07,.2-1.99-.18-2.83-.81-1.07-.81-1.83-1.87-2.42-3.06-.82-1.64-1.32-3.37-1.31-5.22,0-.85,.14-1.68,.52-2.46,.37-.77,.94-1.28,1.75-1.59,2.94-1.13,5.66-2.67,8.26-4.43,2.4-1.63,4.61-3.49,6.57-5.63,.32-.35,.58-.76,.88-1.13,1.18-1.44,2.97-1.92,4.82-1.29,1.35,.45,2.45,1.29,3.44,2.29,1.87,1.9,3.16,4.17,4.16,6.62,1.09,2.66,1.72,5.42,1.69,8.3-.01,1.75-.35,3.43-1.33,4.91-1.08,1.63-2.66,2.22-4.57,1.81-.56-.12-1.15-.12-1.72-.14-2.4-.08-4.8-.04-7.2,.17-.04,0-.09,.01-.17,.02Zm-.77-17.82c-.2,.18-.37,.32-.53,.47-3.79,3.31-8.02,5.92-12.69,7.81-.48,.19-.73,.49-.85,.97-.19,.8-.18,1.61-.05,2.42,.3,1.94,1.11,3.64,2.49,5.06,.55,.56,1.16,.75,1.99,.56,4.99-1.17,10.05-1.71,15.17-1.72,.09,0,.19-.01,.29-.02-3.96-4.42-5.85-9.58-5.82-15.54Zm2.14,.57c.09,.02,.13,.04,.17,.04,1.14,.08,2.05,.64,2.79,1.47,1.53,1.71,2.5,3.7,2.86,5.95,.3,1.87,.23,3.69-1.19,5.2,.74,.85,1.55,1.62,2.56,2.15,.19,.1,.38,.17,.58,.24,1.11,.37,1.99,.09,2.64-.89,.27-.4,.48-.86,.62-1.32,.45-1.53,.49-3.09,.31-4.66-.31-2.63-1.21-5.07-2.43-7.4-.79-1.51-1.75-2.89-3.01-4.05-.68-.63-1.41-1.19-2.32-1.47-1.02-.32-1.84-.07-2.47,.78-.87,1.17-.98,2.56-1.12,3.95Zm.11,2.16c.38,3.26,1.49,6.16,3.25,8.84,.15-.3,.28-.6,.34-.91,.17-.85,.1-1.7-.07-2.55-.35-1.72-1-3.29-2.21-4.59-.33-.36-.73-.64-1.31-.8Zm-3.08,19.55c-.18-1.44-.36-2.85-.54-4.27-.83,.11-1.63,.22-2.45,.33,.53,1.16,1.03,2.27,1.54,3.38,.03,.07,.11,.14,.18,.17,.41,.14,.82,.26,1.27,.4Z"/></svg>