<?xml version="1.0" encoding="utf-8"?>
<!-- Generator: Adobe Illustrator 27.2.0, SVG Export Plug-In . SVG Version: 6.00 Build 0)  -->
<svg version="1.1" id="Layer_1" xmlns="http://www.w3.org/2000/svg" xmlns:xlink="http://www.w3.org/1999/xlink" x="0px" y="0px"
	 viewBox="0 0 25 39" style="enable-background:new 0 0 25 39;" xml:space="preserve">
<style type="text/css">
	.st0{enable-background:new    ;}
	.st1{fill:#0A7E01;}
</style>
<g id="Group_2068" transform="translate(-1562.594 -407.719)">
	<g id="Group_1272" transform="translate(1359.594 31.719)">
		<g class="st0">
			<path class="st1" d="M225.3,384.8V408h-2.5c-0.4,0-0.7-0.1-0.9-0.2c-0.3-0.1-0.5-0.3-0.8-0.6l-11.6-14.7c0,0.4,0.1,0.7,0.1,1.1
				c0,0.4,0,0.7,0,1V408h-4.2v-23.2h2.5c0.2,0,0.4,0,0.5,0c0.1,0,0.3,0.1,0.4,0.1c0.1,0.1,0.2,0.1,0.3,0.2c0.1,0.1,0.2,0.2,0.4,0.4
				l11.6,14.8c0-0.4-0.1-0.8-0.1-1.2c0-0.4,0-0.7,0-1.1v-13.3H225.3z"/>
		</g>
	</g>
</g>
</svg>
