<?xml version="1.0" encoding="utf-8"?>
<!-- Generator: Adobe Illustrator 27.2.0, SVG Export Plug-In . SVG Version: 6.00 Build 0)  -->
<svg version="1.1" id="Layer_1" xmlns="http://www.w3.org/2000/svg" xmlns:xlink="http://www.w3.org/1999/xlink" x="0px" y="0px"
	 viewBox="0 0 19.9 23.2" style="enable-background:new 0 0 19.9 23.2;" xml:space="preserve">
<style type="text/css">
	.st0{enable-background:new    ;}
	.st1{fill:#0A7E01;}
</style>
<g id="Group_1748" transform="translate(-1563.594 -407.719)">
	<g id="Group_1272" transform="translate(1359.594 31.719)">
		<g class="st0">
			<path class="st1" d="M223.9,376v23.2h-2.5c-0.4,0-0.7-0.1-0.9-0.2c-0.3-0.1-0.5-0.3-0.8-0.6l-11.6-14.7c0,0.4,0.1,0.7,0.1,1.1
				s0,0.7,0,1v13.4H204V376h2.5c0.2,0,0.4,0,0.5,0s0.3,0.1,0.4,0.1c0.1,0.1,0.2,0.1,0.3,0.2s0.2,0.2,0.4,0.4l11.6,14.8
				c0-0.4-0.1-0.8-0.1-1.2c0-0.4,0-0.7,0-1.1V376H223.9z"/>
		</g>
	</g>
</g>
</svg>
