<?xml version="1.0" encoding="UTF-8"?><svg id="Layer_1" xmlns="http://www.w3.org/2000/svg" width="39.67" height="39.73" xmlns:xlink="http://www.w3.org/1999/xlink" viewBox="0 0 39.67 39.73"><defs><style>.cls-1{isolation:isolate;}.cls-2{fill:none;}.cls-2,.cls-3,.cls-4,.cls-5{stroke-width:0px;}.cls-3{fill:#275795;}.cls-4{fill:#fff;}.cls-6{clip-path:url(#clippath);}.cls-5{fill:#315892;}</style><clipPath id="clippath"><rect class="cls-2" x="9.34" y="-10.41" width="18.74" height="48.1"/></clipPath></defs><g id="Group_1324"><g id="Group_1323"><g class="cls-6"><g id="Group_1065"><g id="N" class="cls-1"><g class="cls-1"><path class="cls-5" d="m25.38,13.04v16.69h-1.78c-.27,0-.49-.04-.68-.13-.18-.09-.36-.24-.54-.46l-8.31-10.58c.02.27.04.53.05.79.01.26.02.5.02.72v9.65h-3.05V13.04h1.82c.15,0,.27,0,.37.02.1.01.2.04.28.08.08.04.16.1.24.17s.16.16.25.28l8.37,10.63c-.03-.29-.05-.57-.07-.85-.02-.27-.02-.53-.02-.78v-9.54h3.05Z"/></g></g></g></g></g><g id="Rectangle_305"><rect class="cls-2" y="3.73" width="36" height="36" rx="6" ry="6"/><path class="cls-3" d="m30,39.73H6c-3.31,0-6-2.69-6-6V9.73C0,6.42,2.69,3.73,6,3.73h24c3.31,0,6,2.69,6,6v24c0,3.31-2.69,6-6,6ZM6,5.73c-2.21,0-4,1.79-4,4v24c0,2.21,1.79,4,4,4h24c2.21,0,4-1.79,4-4V9.73c0-2.21-1.79-4-4-4H6Z"/></g><g id="Ellipse_125"><circle class="cls-4" cx="35" cy="4.73" r="8"/></g><g id="_" class="cls-1"><g class="cls-1"><path class="cls-3" d="m35.78,0v4.1h3.89v1.83h-3.89v4.12h-2v-4.12h-3.87v-1.83h3.87V0h2Z"/></g></g></g></svg>