<svg xmlns="http://www.w3.org/2000/svg" xmlns:xlink="http://www.w3.org/1999/xlink" width="33" height="33" viewBox="0 0 33 33">
  <defs>
    <clipPath id="clip-path">
      <rect id="Rectangle_522" data-name="Rectangle 522" width="33" height="33" transform="translate(0 0.222)" fill="none" stroke="#275795" stroke-width="2"/>
    </clipPath>
  </defs>
  <g id="Group_2072" data-name="Group 2072" transform="translate(0 -0.222)" clip-path="url(#clip-path)">
    <path id="Path_1130" data-name="Path 1130" d="M6.591.358A1.258,1.258,0,0,1,8.047,1.1q1.142,2.035,2.31,4.055c.368.639.751,1.27,1.127,1.906a1.262,1.262,0,0,1-.148,1.8c-.549.58-1.188,1.076-1.776,1.618-.521.478-1.032.966-1.538,1.462a.848.848,0,0,0-.2.938,4.206,4.206,0,0,0,.266.687,25.237,25.237,0,0,0,5.555,7.216,29.588,29.588,0,0,0,5.06,3.388c.935.516,1.349.429,2.072-.355.657-.715,1.278-1.464,1.927-2.187a9.842,9.842,0,0,1,.859-.838,1.151,1.151,0,0,1,1.418-.141c2.106,1.214,4.2,2.451,6.309,3.662a1.162,1.162,0,0,1,.608,1.316c-.089.575-.187,1.152-.3,1.725a4.427,4.427,0,0,1-2.31,3.023,9.584,9.584,0,0,1-4.83,1.536,10.993,10.993,0,0,1-3.084-.47,27.527,27.527,0,0,1-8.964-4.354,31.737,31.737,0,0,1-9.938-11.8A24.372,24.372,0,0,1,.427,9.269,7.906,7.906,0,0,1,.946,4.927a18.485,18.485,0,0,1,1-2.077A5.062,5.062,0,0,1,6.154.391C6.277.376,6.4.371,6.591.358Z" transform="translate(0.498 0.498)" fill="none" stroke="#275795" stroke-linecap="round" stroke-linejoin="round" stroke-width="2"/>
  </g>
</svg>
