<svg xmlns="http://www.w3.org/2000/svg" width="38.973" height="42.432" viewBox="0 0 38.973 42.432">
  <g id="Group_625" data-name="Group 625" transform="translate(-18.039 -5.91)">
    <g id="Path_444" data-name="Path 444" transform="translate(0 -8.133)" fill="none" stroke-linecap="round" stroke-linejoin="round">
      <path d="M50.616,33.506a12.871,12.871,0,0,1,.12,1.753c0,.5-.048,1.033-.12,1.753l-.337,2.714,2.138,1.682,2.594,2.018L53.33,46.332l-3.05-1.225-2.5-1.009L45.62,45.731a14.047,14.047,0,0,1-3,1.753l-2.546,1.033-.385,2.714-.48,3.243H35.844l-.457-3.243L35,48.518l-2.546-1.033a13.636,13.636,0,0,1-2.955-1.7L27.317,44.1l-2.546,1.033L21.72,46.356l-1.681-2.907,2.594-2.018,2.138-1.681-.337-2.714c-.072-.745-.12-1.3-.12-1.777s.048-1.033.12-1.753l.337-2.714L22.633,29.11l-2.594-2.018,1.681-2.906,3.051,1.224,2.5,1.009,2.162-1.633a14.078,14.078,0,0,1,3-1.753L34.979,22l.385-2.714.48-3.243h3.339l.457,3.243L40.023,22l2.546,1.033a13.623,13.623,0,0,1,2.955,1.706l2.186,1.681,2.546-1.033,3.05-1.225,1.682,2.907-2.57,2.042L50.28,30.791Z" stroke="none"/>
      <path d="M 35.84403610229492 16.04300308227539 L 35.36357498168945 19.28573226928711 L 34.97891616821289 22.00010299682617 L 32.43292617797852 23.03285980224609 C 31.44806671142578 23.44147109985352 30.46319580078125 24.01773071289062 29.43042755126953 24.78631210327148 L 27.26837539672852 26.41929244995117 L 24.7710075378418 25.41048049926758 L 21.71987533569336 24.18611145019531 L 20.03899765014648 27.09208297729492 L 22.63289642333984 29.10972213745117 L 24.7710075378418 30.79131317138672 L 24.43424606323242 33.50569152832031 C 24.36239624023438 34.22637176513672 24.31449508666992 34.77869033813477 24.31449508666992 35.25915145874023 C 24.31449508666992 35.73960113525391 24.36239624023438 36.29191207885742 24.43424606323242 37.03655242919922 L 24.7710075378418 39.75092315673828 L 22.63289642333984 41.43180084228516 L 20.03899765014648 43.44943237304688 L 21.71987533569336 46.35613250732422 L 24.7710075378418 45.13103103637695 L 27.31699752807617 44.09825897216797 L 29.50227737426758 45.77986145019531 C 30.46319580078125 46.49983215332031 31.42411804199219 47.05286407470703 32.45687484741211 47.48470306396484 L 35.00287628173828 48.51819229125977 L 35.38752746582031 51.23183059692383 L 35.84403610229492 54.47456359863281 L 39.20651626586914 54.47456359863281 L 39.68697738647461 51.23183059692383 L 40.07162475585938 48.51819229125977 L 42.61761474609375 47.48470306396484 C 43.60248565673828 47.07681274414062 44.58735656738281 46.49983215332031 45.6201171875 45.73123931884766 L 47.78145599365234 44.09825897216797 L 50.27954864501953 45.10708236694336 L 53.32994842529297 46.33216857910156 L 55.01154708862305 43.42547225952148 L 52.41765594482422 41.40784072875977 L 50.27954864501953 39.72624206542969 L 50.61630630493164 37.01259994506836 C 50.68815612792969 36.29191207885742 50.73605346679688 35.7635498046875 50.73605346679688 35.25915145874023 C 50.73605346679688 34.75473022460938 50.71209716796875 34.25033187866211 50.61630630493164 33.50569152832031 L 50.27954864501953 30.79131317138672 L 52.41765594482422 29.10972213745117 L 54.98759460449219 27.06813049316406 L 53.30599594116211 24.16143035888672 L 50.25559616088867 25.38653182983398 L 47.7096061706543 26.41929244995117 L 45.52359771728516 24.73842239379883 C 44.56267547607422 24.01773071289062 43.60248565673828 23.46541976928711 42.56899642944336 23.03285980224609 L 40.02300643920898 22.00010299682617 L 39.18256759643555 16.04300308227539 L 35.84403610229492 16.04300308227539 M 35.84403610229492 14.04300308227539 L 39.18256759643555 14.04300308227539 C 40.17941665649414 14.04300308227539 41.02407455444336 14.77708053588867 41.16303634643555 15.76419067382812 L 41.84200286865234 20.57967376708984 L 43.32078552246094 21.17953109741211 C 43.32759857177734 21.18230056762695 43.33439636230469 21.18510055541992 43.34117889404297 21.18794250488281 C 44.5315055847168 21.68614196777344 45.63789367675781 22.32415008544922 46.72359466552734 23.13842010498047 C 46.72999572753906 23.14322280883789 46.73636627197266 23.1480598449707 46.74270629882812 23.1529426574707 L 48.02001190185547 24.13508987426758 L 49.50380706787109 23.533203125 C 49.50594711303711 23.53234100341797 49.50808715820312 23.53147125244141 49.51022338867188 23.53061294555664 L 52.56062698364258 22.30551147460938 C 53.48374938964844 21.93476486206055 54.53901672363281 22.2988395690918 55.03716659545898 23.1599006652832 L 56.71876525878906 26.06660079956055 C 57.21529388427734 26.92486953735352 57.00801849365234 28.01736068725586 56.23164367675781 28.63413238525391 L 53.66170501708984 30.67572021484375 C 53.65915679931641 30.67774200439453 53.65660858154297 30.67975997924805 53.65404510498047 30.68177032470703 L 52.40332794189453 31.66544342041016 L 52.60055541992188 33.25518417358398 C 52.69553375244141 33.99463653564453 52.73605346679688 34.59417343139648 52.73605346679688 35.25915145874023 C 52.73605346679688 35.86291122436523 52.67987823486328 36.47438049316406 52.60643768310547 37.21100997924805 C 52.6048469543457 37.22700119018555 52.60305786132812 37.24296188354492 52.6010856628418 37.2589111328125 L 52.40336608886719 38.85214996337891 L 53.64949035644531 39.83221435546875 L 56.23948669433594 41.84680938720703 C 57.02828598022461 42.46037292480469 57.24313354492188 43.56200408935547 56.74271392822266 44.427001953125 L 55.06111526489258 47.33370208740234 C 54.56296539306641 48.19476318359375 53.5076904296875 48.55883026123047 52.58457565307617 48.18809127807617 L 49.53417587280273 46.9630012512207 L 48.0831184387207 46.37701034545898 L 46.82576751708984 47.32699203491211 C 46.82190704345703 47.32990264892578 46.81803894042969 47.33280181884766 46.81416702270508 47.335693359375 C 45.64039611816406 48.20921325683594 44.51801681518555 48.86238098144531 43.38289642333984 49.33250427246094 C 43.37855529785156 49.33428955078125 43.37420654296875 49.3360710144043 43.36985778808594 49.33784103393555 L 41.89030838012695 49.93843078613281 L 41.66718673706055 51.51251983642578 C 41.66659545898438 51.51667022705078 41.66599655151367 51.52081298828125 41.66537475585938 51.52496337890625 L 41.18491744995117 54.76769256591797 C 41.03961563110352 55.74834060668945 40.1978645324707 56.47456359863281 39.20651626586914 56.47456359863281 L 35.84403610229492 56.47456359863281 C 34.84718704223633 56.47456359863281 34.00252532958984 55.74048233032227 33.86356735229492 54.75337219238281 L 33.18419647216797 49.93843460083008 L 31.70463562011719 49.33784103393555 C 31.69818496704102 49.33522033691406 31.69174575805664 49.33257293701172 31.68532562255859 49.32989120483398 C 30.49701690673828 48.83300018310547 29.39065551757812 48.19533157348633 28.30304718017578 47.38043975830078 C 28.29618453979492 47.37530136108398 28.28936767578125 47.37012100219727 28.28257751464844 47.36489105224609 L 27.00612258911133 46.38264465332031 L 25.52279663085938 46.98435211181641 C 25.52060699462891 46.9852409362793 25.51841735839844 46.98612976074219 25.51622772216797 46.98701095581055 L 22.46509552001953 48.21211242675781 C 21.5418815612793 48.58279800415039 20.48654556274414 48.21855926513672 19.98851776123047 47.35733032226562 L 18.30763626098633 44.45063018798828 C 17.80744552612305 43.58566284179688 18.02236557006836 42.4842414855957 18.81105804443359 41.87077331542969 L 21.40117645263672 39.8560791015625 L 22.64719390869141 38.87652206420898 L 22.44946670532227 37.28279113769531 C 22.44722747802734 37.2647705078125 22.44523620605469 37.24672317504883 22.44349670410156 37.22864151000977 C 22.37040710449219 36.47116088867188 22.31449508666992 35.84517288208008 22.31449508666992 35.25915145874023 C 22.31449508666992 34.71401977539062 22.36202621459961 34.13068008422852 22.44411468505859 33.30728149414062 C 22.44570541381836 33.29131317138672 22.44748687744141 33.27537155151367 22.44946670532227 33.25945281982422 L 22.6472282409668 31.66544342041016 L 21.40081405639648 30.68516159057617 L 18.81105804443359 28.67074203491211 C 18.02230453491211 28.05722045898438 17.80742645263672 26.95567321777344 18.30774688720703 26.09069061279297 L 19.98862457275391 23.18472290039062 C 20.48663711547852 22.32374954223633 21.5416259765625 21.95955657958984 22.46471786499023 22.32998275756836 L 25.51584625244141 23.55435180664062 L 26.96700668334961 24.14054107666016 L 28.22502517700195 23.19037246704102 C 28.22880554199219 23.18752288818359 28.23259735107422 23.1846809387207 28.23639678955078 23.18185043334961 C 29.40765762329102 22.31021118164062 30.52964782714844 21.65721130371094 31.66648483276367 21.18554306030273 C 31.67136764526367 21.18352127075195 31.67624664306641 21.18152236938477 31.68113708496094 21.17953109741211 L 33.16024017333984 20.57954406738281 L 33.38335800170898 19.00511169433594 C 33.38395690917969 19.00094223022461 33.38455581665039 18.99677276611328 33.38517761230469 18.99260330200195 L 33.86563491821289 15.74987030029297 C 34.01093673706055 14.76922225952148 34.85268783569336 14.04300308227539 35.84403610229492 14.04300308227539 Z" stroke="none" fill="#265795"/>
    </g>
    <g id="Ellipse_82" data-name="Ellipse 82" transform="translate(32.218 21.951)" fill="none" stroke="#265795" stroke-linecap="round" stroke-linejoin="round" stroke-width="2">
      <circle cx="5.307" cy="5.307" r="5.307" stroke="none"/>
      <circle cx="5.307" cy="5.307" r="6.307" fill="none"/>
    </g>
  </g>
</svg>
