<?xml version="1.0" encoding="utf-8"?>
<!-- Generator: Adobe Illustrator 27.2.0, SVG Export Plug-In . SVG Version: 6.00 Build 0)  -->
<svg version="1.1" id="Layer_1" xmlns="http://www.w3.org/2000/svg" xmlns:xlink="http://www.w3.org/1999/xlink" x="0px" y="0px"
	 viewBox="0 0 43.6 43.6" style="enable-background:new 0 0 43.6 43.6;" xml:space="preserve">
<style type="text/css">
	.st0{clip-path:url(#SVGID_00000005246884692213160180000018070946056960868999_);}
	.st1{clip-path:url(#SVGID_00000016781464348015536290000013159340272587743419_);}
	.st2{enable-background:new    ;}
	.st3{fill:#275795;}
	.st4{fill:none;stroke:#275795;stroke-width:0.8;}
</style>
<g id="Group_2347" transform="translate(0 0)">
	<g>
		<defs>
			<rect id="SVGID_1_" width="43.6" height="43.6"/>
		</defs>
		<clipPath id="SVGID_00000010268594742931655520000001063062480158546564_">
			<use xlink:href="#SVGID_1_"  style="overflow:visible;"/>
		</clipPath>
		
			<g id="Mask_Group_10" transform="translate(0 0)" style="clip-path:url(#SVGID_00000010268594742931655520000001063062480158546564_);">
			<g id="Group_2058" transform="translate(16.587 8.977)">
				<g id="Group_2057" transform="translate(-2 -1)">
					<g>
						<defs>
							<rect id="SVGID_00000126288121816240820930000011140217330017319853_" x="-14" y="-13.8" width="43.1" height="44.3"/>
						</defs>
						<clipPath id="SVGID_00000031925174803930265900000005189151207772015799_">
							<use xlink:href="#SVGID_00000126288121816240820930000011140217330017319853_"  style="overflow:visible;"/>
						</clipPath>
						<g id="Group_2056" style="clip-path:url(#SVGID_00000031925174803930265900000005189151207772015799_);">
							<g class="st2">
								<path class="st3" d="M1.4,4.3c0.4-0.3,0.8-0.7,1.2-1C3,3,3.5,2.8,4.1,2.5S5.2,2.1,5.8,2c0.6-0.1,1.3-0.2,2-0.2
									c0.9,0,1.8,0.1,2.6,0.4c0.8,0.3,1.5,0.7,2.1,1.2c0.6,0.5,1,1.1,1.4,1.8c0.3,0.7,0.5,1.5,0.5,2.4c0,0.9-0.1,1.7-0.4,2.3
									s-0.6,1.2-1,1.7s-0.8,0.9-1.3,1.3c-0.5,0.4-0.9,0.7-1.3,1c-0.4,0.3-0.8,0.6-1.1,0.9c-0.3,0.3-0.5,0.7-0.5,1l-0.3,2.6H6
									l-0.2-2.9c-0.1-0.5,0-1,0.3-1.4s0.6-0.8,1-1.1c0.4-0.3,0.8-0.7,1.3-1c0.5-0.3,0.9-0.7,1.3-1.1c0.4-0.4,0.8-0.9,1-1.4
									c0.3-0.5,0.4-1.1,0.4-1.8c0-0.5-0.1-0.9-0.3-1.3s-0.4-0.7-0.8-1C9.7,5.2,9.3,4.9,8.9,4.8C8.4,4.7,8,4.6,7.5,4.6
									c-0.7,0-1.3,0.1-1.8,0.3C5.2,5,4.8,5.2,4.4,5.4C4.1,5.6,3.8,5.8,3.6,5.9S3.2,6.2,3,6.2C2.7,6.2,2.4,6,2.3,5.8L1.4,4.3z
									 M4.8,25.1c0-0.3,0.1-0.6,0.2-0.9c0.1-0.3,0.3-0.5,0.5-0.7s0.4-0.4,0.7-0.5c0.3-0.1,0.6-0.2,0.9-0.2c0.3,0,0.6,0.1,0.9,0.2
									c0.3,0.1,0.5,0.3,0.7,0.5c0.2,0.2,0.4,0.5,0.5,0.7c0.1,0.3,0.2,0.6,0.2,0.9c0,0.3-0.1,0.6-0.2,0.9c-0.1,0.3-0.3,0.5-0.5,0.7
									C8.5,27,8.2,27.2,8,27.3c-0.3,0.1-0.6,0.2-0.9,0.2c-0.3,0-0.6-0.1-0.9-0.2c-0.3-0.1-0.5-0.3-0.7-0.5S5.1,26.3,5,26.1
									C4.8,25.8,4.8,25.5,4.8,25.1z"/>
							</g>
						</g>
					</g>
				</g>
			</g>
			<path id="Rectangle_520" class="st4" d="M3.6,0.8H40c1.6,0,2.8,1.3,2.8,2.8V40c0,1.6-1.3,2.8-2.8,2.8H3.6c-1.6,0-2.8-1.3-2.8-2.8
				V3.6C0.8,2,2,0.8,3.6,0.8z"/>
		</g>
	</g>
</g>
</svg>
