<svg xmlns="http://www.w3.org/2000/svg" width="44.576" height="38.098" viewBox="0 0 44.576 38.098">
  <g id="Group_2322" data-name="Group 2322" transform="translate(84.459 -2308.476)">
    <g id="Group_66" data-name="Group 66" transform="translate(-83.559 2313.674)">
      <ellipse id="Ellipse_29" data-name="Ellipse 29" cx="16" cy="16" rx="16" ry="16" transform="translate(0 0)" fill="none" stroke="#275795" stroke-width="1.8"/>
      <g id="Group_63" data-name="Group 63" transform="translate(8.063 5.217)">
        <line id="Line_30" data-name="Line 30" y1="19.998" transform="translate(7.937 1.623)" fill="none" stroke="#275795" stroke-linecap="round" stroke-linejoin="round" stroke-width="1.8"/>
        <path id="Path_97" data-name="Path 97" d="M60.684,32.6l8.026-8.262L76.736,32.6" transform="translate(-60.684 -24.342)" fill="none" stroke="#275795" stroke-linecap="round" stroke-linejoin="round" stroke-width="1.8"/>
      </g>
    </g>
    <path id="Path_1231" data-name="Path 1231" d="M15.973,7.551V12.4h-2.3V0h3.778a7.9,7.9,0,0,1,2.165.263A4.109,4.109,0,0,1,21.1,1a2.847,2.847,0,0,1,.851,1.125,3.728,3.728,0,0,1,.274,1.444,3.75,3.75,0,0,1-.184,1.184,3.378,3.378,0,0,1-.532,1.01,3.507,3.507,0,0,1-.856.8,4.465,4.465,0,0,1-1.161.55,2.285,2.285,0,0,1,.754.711l3.1,4.578H21.262a.919.919,0,0,1-.859-.465L17.8,7.963a.9.9,0,0,0-.322-.317,1.144,1.144,0,0,0-.519-.095Zm0-1.654h1.439a3.613,3.613,0,0,0,1.138-.161,2.2,2.2,0,0,0,.8-.452,1.765,1.765,0,0,0,.468-.68,2.322,2.322,0,0,0,.153-.867,1.766,1.766,0,0,0-.621-1.449,2.981,2.981,0,0,0-1.9-.5H15.973Z" transform="translate(-63.229 2308.476)" fill="#275795"/>
  </g>
</svg>
