<?xml version="1.0" encoding="utf-8"?>
<!-- Generator: Adobe Illustrator 27.2.0, SVG Export Plug-In . SVG Version: 6.00 Build 0)  -->
<svg version="1.1" id="Layer_1" xmlns="http://www.w3.org/2000/svg" xmlns:xlink="http://www.w3.org/1999/xlink" x="0px" y="0px"
	 viewBox="0 0 22 39" style="enable-background:new 0 0 22 39;" xml:space="preserve">
<style type="text/css">
	.st0{enable-background:new    ;}
	.st1{fill:#275795;}
</style>
<g id="Group_2067" transform="translate(-1563.594 -407.719)">
	<g id="Group_1272" transform="translate(1359.594 31.719)">
		<g class="st0">
			<path class="st1" d="M224.9,408h-4.3c-0.8,0-1.4-0.3-1.8-0.9l-4.4-7.1c-0.2-0.3-0.4-0.5-0.6-0.6c-0.2-0.1-0.5-0.2-1-0.2h-1.6v8.8
				h-4.8v-23.2h7.3c1.6,0,3,0.2,4.2,0.5c1.2,0.3,2.1,0.8,2.8,1.4c0.7,0.6,1.3,1.3,1.6,2.1c0.3,0.8,0.5,1.7,0.5,2.7
				c0,0.8-0.1,1.5-0.3,2.2c-0.2,0.7-0.5,1.3-1,1.9s-0.9,1.1-1.5,1.5s-1.3,0.8-2.1,1.1c0.3,0.2,0.6,0.4,0.9,0.6
				c0.3,0.2,0.5,0.5,0.7,0.9L224.9,408z M213.7,395.8c0.8,0,1.5-0.1,2-0.3s1-0.5,1.4-0.8c0.4-0.3,0.6-0.8,0.8-1.2
				c0.2-0.5,0.3-1,0.3-1.5c0-1.1-0.4-2-1.1-2.6c-0.7-0.6-1.8-0.9-3.3-0.9h-2.5v7.3H213.7z"/>
		</g>
	</g>
</g>
</svg>
