<svg id="Group_2127" data-name="Group 2127" xmlns="http://www.w3.org/2000/svg" xmlns:xlink="http://www.w3.org/1999/xlink" width="33.885" height="34.36" viewBox="0 0 33.885 34.36">
  <defs>
    <clipPath id="clip-path">
      <rect id="Rectangle_533" data-name="Rectangle 533" width="33.885" height="34.36" fill="none" stroke="#707070" stroke-width="1.8"/>
    </clipPath>
  </defs>
  <g id="Group_2123" data-name="Group 2123" transform="translate(0 0)">
    <g id="Group_2122" data-name="Group 2122" clip-path="url(#clip-path)">
      <path id="Path_1159" data-name="Path 1159" d="M14.033,31.457A15.946,15.946,0,0,1,10.138.992" transform="translate(0.599 1.488)" fill="none" stroke="#164782" stroke-linecap="round" stroke-linejoin="round" stroke-width="1.8"/>
      <path id="Path_1160" data-name="Path 1160" d="M7.156.5a15.945,15.945,0,0,1,5.26,30.6" transform="translate(10.734 0.751)" fill="none" stroke="#164782" stroke-linecap="round" stroke-linejoin="round" stroke-width="1.8"/>
      <path id="Path_1161" data-name="Path 1161" d="M2.812.4l4.22.91-.91,4.223" transform="translate(4.219 0.6)" fill="none" stroke="#164782" stroke-linecap="round" stroke-linejoin="round" stroke-width="1.8"/>
      <path id="Path_1162" data-name="Path 1162" d="M13.162,16.424l-4.22-.91.91-4.223" transform="translate(13.413 16.937)" fill="none" stroke="#164782" stroke-linecap="round" stroke-linejoin="round" stroke-width="1.8"/>
    </g>
  </g>
  <g id="Group_2125" data-name="Group 2125" transform="translate(0 0)">
    <g id="Group_2124" data-name="Group 2124" clip-path="url(#clip-path)">
      <path id="Path_1163" data-name="Path 1163" d="M13.273,6.726l-2.76,2.618L7.8,6.389l2.683-2.658a.679.679,0,0,1,.958.032l1.87,2.005A.679.679,0,0,1,13.273,6.726Z" transform="translate(11.697 5.324)" fill="none" stroke="#004785" stroke-linecap="round" stroke-linejoin="round" stroke-width="1.8"/>
      <path id="Path_1164" data-name="Path 1164" d="M14.025,4.686,16.74,7.641,7.358,16.9l-3.71.71.915-3.625Z" transform="translate(5.471 7.029)" fill="none" stroke="#004785" stroke-linecap="round" stroke-linejoin="round" stroke-width="1.8"/>
    </g>
  </g>
</svg>
