<svg xmlns="http://www.w3.org/2000/svg" width="26" height="26" viewBox="0 0 26 26">
  <g id="Group_2039" data-name="Group 2039" transform="translate(-151 -594)">
    <g id="Path_1125" data-name="Path 1125" transform="translate(151 594)" fill="#e30101">
      <path d="M 13 25 C 9.794679641723633 25 6.781219959259033 23.75177955627441 4.51471996307373 21.48527908325195 C 2.248219966888428 19.21878051757812 1 16.20532035827637 1 13 C 1 9.794679641723633 2.248219966888428 6.781219959259033 4.51471996307373 4.51471996307373 C 6.781219959259033 2.248219966888428 9.794679641723633 1 13 1 C 16.20532035827637 1 19.21878051757812 2.248219966888428 21.48527908325195 4.51471996307373 C 23.75177955627441 6.781219959259033 25 9.794679641723633 25 13 C 25 16.20532035827637 23.75177955627441 19.21878051757812 21.48527908325195 21.48527908325195 C 19.21878051757812 23.75177955627441 16.20532035827637 25 13 25 Z" stroke="none"/>
      <path d="M 13 2 C 10.06179046630859 2 7.299449920654297 3.144199371337891 5.221830368041992 5.221830368041992 C 3.144199371337891 7.299449920654297 2 10.06179046630859 2 13 C 2 15.93820953369141 3.144199371337891 18.7005500793457 5.221830368041992 20.77816963195801 C 7.299449920654297 22.85580062866211 10.06179046630859 24 13 24 C 15.93820953369141 24 18.7005500793457 22.85580062866211 20.77816963195801 20.77816963195801 C 22.85580062866211 18.7005500793457 24 15.93820953369141 24 13 C 24 10.06179046630859 22.85580062866211 7.299449920654297 20.77816963195801 5.221830368041992 C 18.7005500793457 3.144199371337891 15.93820953369141 2 13 2 M 13 0 C 20.1796989440918 0 26 5.82029914855957 26 13 C 26 20.1796989440918 20.1796989440918 26 13 26 C 5.82029914855957 26 0 20.1796989440918 0 13 C 0 5.82029914855957 5.82029914855957 0 13 0 Z" stroke="none" fill="#fff"/>
    </g>
    <text id="A" transform="translate(164 613)" fill="#fff" font-size="16" font-family="Lato-Bold, Lato" font-weight="700"><tspan x="-5.556" y="0">A</tspan></text>
  </g>
</svg>
