<svg xmlns="http://www.w3.org/2000/svg" width="37" height="37" viewBox="0 0 37 37">
  <g id="Group_516" data-name="Group 516" transform="translate(-1079 -901)">
    <g id="Group_297" data-name="Group 297">
      <g id="Path_522" data-name="Path 522" transform="translate(1079 901)" fill="#ff9300">
        <path d="M 18.5 35.5 C 13.95913028717041 35.5 9.690059661865234 33.731689453125 6.479179859161377 30.52082061767578 C 3.268310070037842 27.30994033813477 1.5 23.04087066650391 1.5 18.5 C 1.5 13.95913028717041 3.268310070037842 9.690059661865234 6.479179859161377 6.479179859161377 C 9.690059661865234 3.268310070037842 13.95913028717041 1.5 18.5 1.5 C 23.04087066650391 1.5 27.30994033813477 3.268310070037842 30.52082061767578 6.479179859161377 C 33.731689453125 9.690059661865234 35.5 13.95913028717041 35.5 18.5 C 35.5 23.04087066650391 33.731689453125 27.30994033813477 30.52082061767578 30.52082061767578 C 27.30994033813477 33.731689453125 23.04087066650391 35.5 18.5 35.5 Z" stroke="none"/>
        <path d="M 18.5 3 C 14.35980033874512 3 10.46740913391113 4.612281799316406 7.539840698242188 7.539840698242188 C 4.612281799316406 10.46740913391113 3 14.35980033874512 3 18.5 C 3 22.64019966125488 4.612281799316406 26.53258895874023 7.539840698242188 29.46015930175781 C 10.46740913391113 32.38771820068359 14.35980033874512 34 18.5 34 C 22.64019966125488 34 26.53258895874023 32.38771820068359 29.46015930175781 29.46015930175781 C 32.38771820068359 26.53258895874023 34 22.64019966125488 34 18.5 C 34 14.35980033874512 32.38771820068359 10.46740913391113 29.46015930175781 7.539840698242188 C 26.53258895874023 4.612281799316406 22.64019966125488 3 18.5 3 M 18.5 0 C 28.71726989746094 0 37 8.282730102539062 37 18.5 C 37 28.71726989746094 28.71726989746094 37 18.5 37 C 8.282730102539062 37 0 28.71726989746094 0 18.5 C 0 8.282730102539062 8.282730102539062 0 18.5 0 Z" stroke="none" fill="#fff"/>
      </g>
      <g id="Group_512" data-name="Group 512" transform="translate(0 -0.575)">
        <path id="Path_525" data-name="Path 525" d="M940.8,556.682c0-.571.01-1.123,0-1.674a2.415,2.415,0,0,0-4.784-.47,4.577,4.577,0,0,0-.046.826c-.007.435,0,.871,0,1.325H929.7v-3.862c.445,0,.88-.01,1.314,0a4.418,4.418,0,0,0,3.465-1.438,5.217,5.217,0,0,1,4.428-1.68A5,5,0,0,1,942.2,551.3a4.55,4.55,0,0,0,3.669,1.53c.4-.017.8,0,1.22,0v3.856Z" transform="translate(159.109 361.096)" fill="#fff"/>
        <path id="Path_526" data-name="Path 526" d="M1091.765,924.371h10.6" transform="translate(0.437 1)" fill="none" stroke="#fff" stroke-linecap="round" stroke-width="2"/>
      </g>
    </g>
  </g>
</svg>
