<svg xmlns="http://www.w3.org/2000/svg" width="37" height="37" viewBox="0 0 37 37">
  <g id="Group_515" data-name="Group 515" transform="translate(-1079 -901)">
    <g id="Group_297" data-name="Group 297">
      <g id="Ellipse_70" data-name="Ellipse 70" transform="translate(1079 901)" fill="#275795" stroke="#fff" stroke-width="3">
        <circle cx="18.5" cy="18.5" r="18.5" stroke="none"/>
        <circle cx="18.5" cy="18.5" r="17" fill="none"/>
      </g>
    </g>
    <g id="Group_510" data-name="Group 510">
      <path id="Path_525" data-name="Path 525" d="M940.8,556.682c0-.571.01-1.123,0-1.674a2.415,2.415,0,0,0-4.784-.47,4.577,4.577,0,0,0-.046.826c-.007.435,0,.871,0,1.325H929.7v-3.862c.445,0,.88-.01,1.314,0a4.418,4.418,0,0,0,3.465-1.438,5.217,5.217,0,0,1,4.428-1.68A5,5,0,0,1,942.2,551.3a4.55,4.55,0,0,0,3.669,1.53c.4-.017.8,0,1.22,0v3.856Z" transform="translate(159.109 361.096)" fill="#fff"/>
      <path id="Path_158" data-name="Path 158" d="M55.084,30.885l2.714,3.01,4.967-8.039" transform="translate(1038.575 895.473)" fill="none" stroke="#fff" stroke-linecap="round" stroke-linejoin="round" stroke-width="1.8"/>
    </g>
  </g>
</svg>
