<svg xmlns="http://www.w3.org/2000/svg" width="37" height="37" viewBox="0 0 37 37">
  <g id="Group_517" data-name="Group 517" transform="translate(-1064 -632)">
    <g id="Group_399" data-name="Group 399" transform="translate(-15 -269)">
      <g id="Group_297" data-name="Group 297">
        <g id="Ellipse_70" data-name="Ellipse 70" transform="translate(1079 901)" fill="#e30101" stroke="#fff" stroke-width="3">
          <circle cx="18.5" cy="18.5" r="18.5" stroke="none"/>
          <circle cx="18.5" cy="18.5" r="17" fill="none"/>
        </g>
        <path id="Path_384" data-name="Path 384" d="M940.8,556.682c0-.571.01-1.123,0-1.674a2.415,2.415,0,0,0-4.784-.47,4.577,4.577,0,0,0-.046.826c-.007.435,0,.871,0,1.325H929.7v-3.862c.445,0,.88-.01,1.314,0a4.418,4.418,0,0,0,3.465-1.438,5.217,5.217,0,0,1,4.428-1.68A5,5,0,0,1,942.2,551.3a4.55,4.55,0,0,0,3.669,1.53c.4-.017.8,0,1.22,0v3.856Z" transform="translate(159.109 361.313)" fill="#fff"/>
      </g>
    </g>
    <g id="Group_509" data-name="Group 509" transform="translate(0 -3)">
      <path id="Path_523" data-name="Path 523" d="M9039.59,14573.913l-6.522,6.522" transform="translate(-7953.829 -13918)" fill="none" stroke="#fff" stroke-linecap="round" stroke-width="2"/>
      <path id="Path_524" data-name="Path 524" d="M9039.59,14573.913l-6.522,6.522" transform="translate(15659.674 -8377.154) rotate(90)" fill="none" stroke="#fff" stroke-linecap="round" stroke-width="2"/>
    </g>
  </g>
</svg>
