<?xml version="1.0" encoding="UTF-8"?><svg id="Layer_1" xmlns="http://www.w3.org/2000/svg" width="37" height="37" viewBox="0 0 37 37"><defs><style>.cls-1{fill:#fff;}.cls-2{fill:#f8f8f8;stroke:#fff;stroke-linecap:round;stroke-width:2px;}.cls-3{fill:#00e2ff;}.cls-4{fill:#ffc100;}</style></defs><path class="cls-3" d="m17.9,36.7c-4.54,0-8.81-1.77-12.02-4.98-3.21-3.21-4.98-7.48-4.98-12.02s1.77-8.81,4.98-12.02c3.21-3.21,7.48-4.98,12.02-4.98s8.81,1.77,12.02,4.98c3.21,3.21,4.98,7.48,4.98,12.02s-1.77,8.81-4.98,12.02c-3.21,3.21-7.48,4.98-12.02,4.98Z" vector-effect="non-scaling-stroke"/><path class="cls-4" d="m18.5,3c-4.14,0-8.03,1.61-10.96,4.54-2.93,2.93-4.54,6.82-4.54,10.96s1.61,8.03,4.54,10.96c2.93,2.93,6.82,4.54,10.96,4.54s8.03-1.61,10.96-4.54c2.93-2.93,4.54-6.82,4.54-10.96s-1.61-8.03-4.54-10.96c-2.93-2.93-6.82-4.54-10.96-4.54m0-3c10.22,0,18.5,8.28,18.5,18.5s-8.28,18.5-18.5,18.5S0,28.72,0,18.5,8.28,0,18.5,0Z" vector-effect="non-scaling-stroke"/><g id="Path_525"><path class="cls-1" d="m20.62,16.81c0-.57.01-1.12,0-1.67,0-1.24-.94-2.28-2.18-2.4-1.24-.12-2.36.72-2.61,1.93-.04.27-.06.55-.05.83,0,.43,0,.87,0,1.33h-6.27v-3.86c.45,0,.88-.01,1.31,0,1.31.06,2.58-.47,3.47-1.44,1.12-1.24,2.77-1.86,4.43-1.68,1.26.1,2.44.66,3.29,1.59.92,1.05,2.28,1.61,3.67,1.53.4-.02.8,0,1.22,0v3.86h-6.29Z" vector-effect="non-scaling-stroke"/></g><g id="Path_526"><path class="cls-2" d="m12.91,24.4h10.6" vector-effect="non-scaling-stroke"/></g></svg>