<svg xmlns="http://www.w3.org/2000/svg" xmlns:xlink="http://www.w3.org/1999/xlink" width="48.21" height="48.076" viewBox="0 0 48.21 48.076">
  <defs>
    <clipPath id="clip-path">
      <rect id="Rectangle_546" data-name="Rectangle 546" width="48.21" height="48.076" transform="translate(-4 -4)" fill="none" stroke="#707070" stroke-width="2"/>
    </clipPath>
    <clipPath id="clip-path-2">
      <rect width="42.198" height="240.067" fill="none"/>
    </clipPath>
  </defs>
  <g id="Group_2190" data-name="Group 2190" transform="translate(4 4)" clip-path="url(#clip-path)">
    <g id="Repeat_Grid_91" data-name="Repeat Grid 91" transform="translate(0.006 0.005)" clip-path="url(#clip-path-2)">
      <g transform="translate(-0.006 -0.005)">
        <circle id="Ellipse_170" data-name="Ellipse 170" cx="2.652" cy="2.652" r="2.652" transform="translate(3.174 26.384)" fill="none" stroke="#265795" stroke-linecap="round" stroke-miterlimit="10" stroke-width="2"/>
        <path id="Path_1192" data-name="Path 1192" d="M.37,18.356c0-3.166,1.657-5.731,4.82-5.731s4.823,2.565,4.823,5.731" transform="translate(0.636 21.715)" fill="none" stroke="#265795" stroke-linecap="round" stroke-miterlimit="10" stroke-width="2"/>
        <circle id="Ellipse_171" data-name="Ellipse 171" cx="2.652" cy="2.652" r="2.652" transform="translate(18.348 26.384)" fill="none" stroke="#265795" stroke-linecap="round" stroke-miterlimit="10" stroke-width="2"/>
        <path id="Path_1193" data-name="Path 1193" d="M5.948,18.356c0-3.166,1.657-5.731,4.82-5.731s4.823,2.565,4.823,5.731" transform="translate(10.231 21.715)" fill="none" stroke="#265795" stroke-linecap="round" stroke-miterlimit="10" stroke-width="2"/>
        <circle id="Ellipse_172" data-name="Ellipse 172" cx="2.652" cy="2.652" r="2.652" transform="translate(33.73 26.384)" fill="none" stroke="#265795" stroke-linecap="round" stroke-miterlimit="10" stroke-width="2"/>
        <path id="Path_1194" data-name="Path 1194" d="M11.6,18.356c0-3.166,1.657-5.731,4.82-5.731s4.823,2.565,4.823,5.731" transform="translate(19.958 21.715)" fill="none" stroke="#265795" stroke-linecap="round" stroke-miterlimit="10" stroke-width="2"/>
        <path id="Path_1195" data-name="Path 1195" d="M2.142,15.437V8.362A4.983,4.983,0,0,1,7.109,3.4H27.045a4.983,4.983,0,0,1,4.967,4.967v7.075" transform="translate(3.684 5.839)" fill="none" stroke="#265795" stroke-linecap="round" stroke-miterlimit="10" stroke-width="2"/>
        <line id="Line_239" data-name="Line 239" y2="20.27" transform="translate(20.76 1.005)" fill="none" stroke="#265795" stroke-linecap="round" stroke-miterlimit="10" stroke-width="2"/>
      </g>
      <g transform="translate(-0.006 61.995)">
        <circle id="Ellipse_170-2" data-name="Ellipse 170" cx="2.652" cy="2.652" r="2.652" transform="translate(3.174 26.384)" fill="none" stroke="#265795" stroke-linecap="round" stroke-miterlimit="10" stroke-width="2"/>
        <path id="Path_1192-2" data-name="Path 1192" d="M.37,18.356c0-3.166,1.657-5.731,4.82-5.731s4.823,2.565,4.823,5.731" transform="translate(0.636 21.715)" fill="none" stroke="#265795" stroke-linecap="round" stroke-miterlimit="10" stroke-width="2"/>
        <circle id="Ellipse_171-2" data-name="Ellipse 171" cx="2.652" cy="2.652" r="2.652" transform="translate(18.348 26.384)" fill="none" stroke="#265795" stroke-linecap="round" stroke-miterlimit="10" stroke-width="2"/>
        <path id="Path_1193-2" data-name="Path 1193" d="M5.948,18.356c0-3.166,1.657-5.731,4.82-5.731s4.823,2.565,4.823,5.731" transform="translate(10.231 21.715)" fill="none" stroke="#265795" stroke-linecap="round" stroke-miterlimit="10" stroke-width="2"/>
        <circle id="Ellipse_172-2" data-name="Ellipse 172" cx="2.652" cy="2.652" r="2.652" transform="translate(33.73 26.384)" fill="none" stroke="#265795" stroke-linecap="round" stroke-miterlimit="10" stroke-width="2"/>
        <path id="Path_1194-2" data-name="Path 1194" d="M11.6,18.356c0-3.166,1.657-5.731,4.82-5.731s4.823,2.565,4.823,5.731" transform="translate(19.958 21.715)" fill="none" stroke="#265795" stroke-linecap="round" stroke-miterlimit="10" stroke-width="2"/>
        <path id="Path_1195-2" data-name="Path 1195" d="M2.142,15.437V8.362A4.983,4.983,0,0,1,7.109,3.4H27.045a4.983,4.983,0,0,1,4.967,4.967v7.075" transform="translate(3.684 5.839)" fill="none" stroke="#265795" stroke-linecap="round" stroke-miterlimit="10" stroke-width="2"/>
        <line id="Line_239-2" data-name="Line 239" y2="20.27" transform="translate(20.76 1.005)" fill="none" stroke="#265795" stroke-linecap="round" stroke-miterlimit="10" stroke-width="2"/>
      </g>
      <g transform="translate(-0.006 123.995)">
        <circle id="Ellipse_170-3" data-name="Ellipse 170" cx="2.652" cy="2.652" r="2.652" transform="translate(3.174 26.384)" fill="none" stroke="#265795" stroke-linecap="round" stroke-miterlimit="10" stroke-width="2"/>
        <path id="Path_1192-3" data-name="Path 1192" d="M.37,18.356c0-3.166,1.657-5.731,4.82-5.731s4.823,2.565,4.823,5.731" transform="translate(0.636 21.715)" fill="none" stroke="#265795" stroke-linecap="round" stroke-miterlimit="10" stroke-width="2"/>
        <circle id="Ellipse_171-3" data-name="Ellipse 171" cx="2.652" cy="2.652" r="2.652" transform="translate(18.348 26.384)" fill="none" stroke="#265795" stroke-linecap="round" stroke-miterlimit="10" stroke-width="2"/>
        <path id="Path_1193-3" data-name="Path 1193" d="M5.948,18.356c0-3.166,1.657-5.731,4.82-5.731s4.823,2.565,4.823,5.731" transform="translate(10.231 21.715)" fill="none" stroke="#265795" stroke-linecap="round" stroke-miterlimit="10" stroke-width="2"/>
        <circle id="Ellipse_172-3" data-name="Ellipse 172" cx="2.652" cy="2.652" r="2.652" transform="translate(33.73 26.384)" fill="none" stroke="#265795" stroke-linecap="round" stroke-miterlimit="10" stroke-width="2"/>
        <path id="Path_1194-3" data-name="Path 1194" d="M11.6,18.356c0-3.166,1.657-5.731,4.82-5.731s4.823,2.565,4.823,5.731" transform="translate(19.958 21.715)" fill="none" stroke="#265795" stroke-linecap="round" stroke-miterlimit="10" stroke-width="2"/>
        <path id="Path_1195-3" data-name="Path 1195" d="M2.142,15.437V8.362A4.983,4.983,0,0,1,7.109,3.4H27.045a4.983,4.983,0,0,1,4.967,4.967v7.075" transform="translate(3.684 5.839)" fill="none" stroke="#265795" stroke-linecap="round" stroke-miterlimit="10" stroke-width="2"/>
        <line id="Line_239-3" data-name="Line 239" y2="20.27" transform="translate(20.76 1.005)" fill="none" stroke="#265795" stroke-linecap="round" stroke-miterlimit="10" stroke-width="2"/>
      </g>
      <g transform="translate(-0.006 185.995)">
        <circle id="Ellipse_170-4" data-name="Ellipse 170" cx="2.652" cy="2.652" r="2.652" transform="translate(3.174 26.384)" fill="none" stroke="#265795" stroke-linecap="round" stroke-miterlimit="10" stroke-width="2"/>
        <path id="Path_1192-4" data-name="Path 1192" d="M.37,18.356c0-3.166,1.657-5.731,4.82-5.731s4.823,2.565,4.823,5.731" transform="translate(0.636 21.715)" fill="none" stroke="#265795" stroke-linecap="round" stroke-miterlimit="10" stroke-width="2"/>
        <circle id="Ellipse_171-4" data-name="Ellipse 171" cx="2.652" cy="2.652" r="2.652" transform="translate(18.348 26.384)" fill="none" stroke="#265795" stroke-linecap="round" stroke-miterlimit="10" stroke-width="2"/>
        <path id="Path_1193-4" data-name="Path 1193" d="M5.948,18.356c0-3.166,1.657-5.731,4.82-5.731s4.823,2.565,4.823,5.731" transform="translate(10.231 21.715)" fill="none" stroke="#265795" stroke-linecap="round" stroke-miterlimit="10" stroke-width="2"/>
        <circle id="Ellipse_172-4" data-name="Ellipse 172" cx="2.652" cy="2.652" r="2.652" transform="translate(33.73 26.384)" fill="none" stroke="#265795" stroke-linecap="round" stroke-miterlimit="10" stroke-width="2"/>
        <path id="Path_1194-4" data-name="Path 1194" d="M11.6,18.356c0-3.166,1.657-5.731,4.82-5.731s4.823,2.565,4.823,5.731" transform="translate(19.958 21.715)" fill="none" stroke="#265795" stroke-linecap="round" stroke-miterlimit="10" stroke-width="2"/>
        <path id="Path_1195-4" data-name="Path 1195" d="M2.142,15.437V8.362A4.983,4.983,0,0,1,7.109,3.4H27.045a4.983,4.983,0,0,1,4.967,4.967v7.075" transform="translate(3.684 5.839)" fill="none" stroke="#265795" stroke-linecap="round" stroke-miterlimit="10" stroke-width="2"/>
        <line id="Line_239-4" data-name="Line 239" y2="20.27" transform="translate(20.76 1.005)" fill="none" stroke="#265795" stroke-linecap="round" stroke-miterlimit="10" stroke-width="2"/>
      </g>
    </g>
  </g>
</svg>
