<svg xmlns="http://www.w3.org/2000/svg" xmlns:xlink="http://www.w3.org/1999/xlink" width="43.64" height="43.64" viewBox="0 0 43.64 43.64">
  <defs>
    <clipPath id="clip-path">
      <path id="Path_1032" data-name="Path 1032" d="M-3.586,0H30.372V24.872H-3.586Z" transform="translate(3.586)" fill="none"/>
    </clipPath>
    <clipPath id="clip-path-2">
      <rect id="Rectangle_452" data-name="Rectangle 452" width="35.043" height="27.529" fill="none"/>
    </clipPath>
    <clipPath id="clip-path-3">
      <rect id="Rectangle_521" data-name="Rectangle 521" width="43.64" height="43.64" fill="none"/>
    </clipPath>
  </defs>
  <g id="Group_2348" data-name="Group 2348" transform="translate(-1214.5 -381.782)">
    <g id="Group_2062" data-name="Group 2062" transform="translate(1222.798 392.838)">
      <g id="Group_1803" data-name="Group 1803" transform="translate(-3.722 -0.987)">
        <g id="Mask_Group_7" data-name="Mask Group 7" clip-path="url(#clip-path)">
          <path id="Path_1028" data-name="Path 1028" d="M16.844,21.318h6.38" transform="translate(3.207 1.015)" fill="none" stroke="#315892" stroke-linecap="round" stroke-linejoin="round" stroke-width="1"/>
        </g>
      </g>
      <path id="Path_1029" data-name="Path 1029" d="M4.5,13.886l.658-1.5L7.115,7.916l2.656,5.97" transform="translate(-1.102 -0.611)" fill="none" stroke="#004785" stroke-linecap="round" stroke-linejoin="round" stroke-width="1"/>
      <line id="Line_196" data-name="Line 196" x1="3.912" transform="translate(4.059 11.705)" fill="none" stroke="#004785" stroke-linecap="round" stroke-linejoin="round" stroke-width="1"/>
      <g id="Group_1805" data-name="Group 1805" transform="translate(-3.999 -3)">
        <g id="Group_1804" data-name="Group 1804" transform="translate(0 0)" clip-path="url(#clip-path-2)">
          <path id="Path_1128" data-name="Path 1128" d="M1.072,0H27.6a1.072,1.072,0,0,1,1.072,1.072V12.39A1.072,1.072,0,0,1,27.6,13.462H1.072A1.072,1.072,0,0,1,0,12.39V1.072A1.072,1.072,0,0,1,1.072,0Z" transform="translate(3.184 6.552)" fill="none" stroke="#315892" stroke-linecap="round" stroke-width="1"/>
          <rect id="Rectangle_451" data-name="Rectangle 451" width="4.964" height="16.237" transform="translate(21.121 5.187)" fill="#fff"/>
          <path id="Path_1030" data-name="Path 1030" d="M16.844.478h6.38" transform="translate(3.485 2.035)" fill="none" stroke="#315892" stroke-linecap="round" stroke-linejoin="round" stroke-width="1"/>
          <path id="Path_1031" data-name="Path 1031" d="M0,21.831V0" transform="translate(23.518 2.514)" fill="none" stroke="#275795" stroke-linecap="round" stroke-width="1"/>
        </g>
      </g>
    </g>
    <g id="Group_2061" data-name="Group 2061" transform="translate(1214.5 381.781)">
      <g id="Group_2059" data-name="Group 2059" transform="translate(0 0)" clip-path="url(#clip-path-3)">
        <rect id="Rectangle_520" data-name="Rectangle 520" width="42.1" height="42.098" rx="2.835" transform="translate(0.77 0.771)" fill="none" stroke="#275795" stroke-width="0.8"/>
      </g>
    </g>
  </g>
</svg>
