<?xml version="1.0" encoding="utf-8"?>
<!-- Generator: Adobe Illustrator 27.2.0, SVG Export Plug-In . SVG Version: 6.00 Build 0)  -->
<svg version="1.1" id="Layer_1" xmlns="http://www.w3.org/2000/svg" xmlns:xlink="http://www.w3.org/1999/xlink" x="0px" y="0px"
	 viewBox="0 0 24 39" style="enable-background:new 0 0 24 39;" xml:space="preserve">
<style type="text/css">
	.st0{enable-background:new    ;}
	.st1{fill:#CC0000;}
</style>
<g id="Group_1748" transform="translate(-1563.594 -407.719)">
	<g id="Group_1272" transform="translate(1359.594 31.719)">
		<g class="st0">
			<path class="st1" d="M215.9,404.2c0.8,0,1.5-0.1,2.1-0.4c0.6-0.3,1.1-0.6,1.6-1.1c0.4-0.5,0.8-1.1,1-1.7c0.2-0.7,0.3-1.5,0.3-2.3
				v-13.8h4.8v13.8c0,1.4-0.2,2.7-0.7,3.9c-0.5,1.2-1.1,2.2-1.9,3s-1.9,1.5-3.1,2c-1.2,0.5-2.6,0.7-4.1,0.7c-1.5,0-2.9-0.2-4.1-0.7
				c-1.2-0.5-2.2-1.1-3.1-2c-0.8-0.9-1.5-1.9-1.9-3c-0.5-1.2-0.7-2.5-0.7-3.9v-13.8h4.8v13.8c0,0.9,0.1,1.6,0.3,2.3
				c0.2,0.7,0.5,1.3,1,1.7c0.4,0.5,0.9,0.9,1.6,1.1C214.4,404,215.1,404.2,215.9,404.2z"/>
		</g>
	</g>
</g>
</svg>
