<svg xmlns="http://www.w3.org/2000/svg" width="36.871" height="47.035" viewBox="0 0 36.871 47.035">
  <g id="Group_2085" data-name="Group 2085" transform="translate(-4.965 -2.734)">
    <g id="Group_433" data-name="Group 433">
      <path id="Path_445" data-name="Path 445" d="M16.313,48.265A12.083,12.083,0,0,1,13.357,25.18" fill="none" stroke="#154782" stroke-linecap="round" stroke-linejoin="round" stroke-width="2"/>
      <path id="Path_446" data-name="Path 446" d="M18.781,24.252a12.082,12.082,0,0,1,3.985,23.187" fill="none" stroke="#154782" stroke-linecap="round" stroke-linejoin="round" stroke-width="2"/>
      <path id="Path_447" data-name="Path 447" d="M10.554,24.059l3.2.69-.69,3.2" fill="none" stroke="#154782" stroke-linecap="round" stroke-linejoin="round" stroke-width="2"/>
      <path id="Path_448" data-name="Path 448" d="M25.362,48.581l-3.2-.69.69-3.2" fill="none" stroke="#154782" stroke-linecap="round" stroke-linejoin="round" stroke-width="2"/>
      <g id="Path_449" data-name="Path 449">
        <path id="Path_592" data-name="Path 592" d="M22.671,35.7a4.532,4.532,0,0,1,.042.616c0,.178-.017.363-.042.616l-.118.955.751.592.91.709-.592,1.022-1.072-.431-.879-.354L20.913,40a4.921,4.921,0,0,1-1.056.617l-.9.364-.135.954-.171,1.144H17.472l-.161-1.141-.135-.954-.9-.363a4.825,4.825,0,0,1-1.036-.6l-.768-.592-.9.364-1.073.431L11.911,39.2l.913-.709.754-.594-.118-.954c-.026-.262-.043-.455-.043-.625s.017-.364.043-.617l.118-.955-.752-.591-.915-.707.592-1.023,1.073.432.878.354.758-.574a4.89,4.89,0,0,1,1.055-.617l.9-.364L17.3,30.7l.169-1.14h1.174L18.8,30.7l.135.954.9.364a4.838,4.838,0,0,1,1.039.6l.769.592.9-.364,1.073-.43.592,1.022-.9.718-.752.592Z" fill="none"/>
        <path id="Path_593" data-name="Path 593" d="M17.472,29.562,17.3,30.7l-.135.954-.895.364a4.875,4.875,0,0,0-1.056.617l-.761.574-.878-.354-1.073-.432-.592,1.023.913.709.752.592-.118.954c-.026.253-.043.448-.043.617s.017.363.043.625l.118.954-.752.592-.913.709.592,1.023,1.073-.431.9-.364.768.592a4.817,4.817,0,0,0,1.039.6l.9.363.3,2.095h1.183l.169-1.141.135-.954.9-.363A4.988,4.988,0,0,0,20.911,40l.76-.575,1.951.786.592-1.022-.913-.709-.751-.592.118-.955c.025-.253.042-.438.042-.616a4.638,4.638,0,0,0-.042-.617l-.118-.954.751-.592.9-.718-.591-1.022-1.073.43-.9.364-.769-.592a4.812,4.812,0,0,0-1.039-.6l-.9-.364-.3-2.094H17.472m0-1.516h1.175a1.515,1.515,0,0,1,1.5,1.3l.173,1.23.088.036.016.007a6.325,6.325,0,0,1,1.361.783l.016.012.08.062.089-.037.006,0,1.073-.43a1.515,1.515,0,0,1,1.876.647l.592,1.022a1.515,1.515,0,0,1-.369,1.946l-.9.718,0,0-.08.063.013.1a6.138,6.138,0,0,1,.053.8,7.56,7.56,0,0,1-.049.765l0,.037-.013.107.076.06.909.707a1.514,1.514,0,0,1,.381,1.955l-.592,1.023a1.514,1.514,0,0,1-1.877.646L21.9,41.155l-.076.057-.009.007a6.437,6.437,0,0,1-1.381.8l-.009,0-.088.035-.013.091v.009L20.154,43.3a1.515,1.515,0,0,1-1.5,1.293H17.472a1.516,1.516,0,0,1-1.5-1.3l-.173-1.23-.087-.035-.014-.006a6.253,6.253,0,0,1-1.363-.785l-.017-.012-.079-.061-.09.036-.006,0-1.073.43a1.515,1.515,0,0,1-1.876-.647L10.6,39.96A1.514,1.514,0,0,1,10.984,38l.985-.767-.013-.1,0-.038a7.689,7.689,0,0,1-.05-.774,7.574,7.574,0,0,1,.05-.77l0-.033.013-.106-.077-.061-.908-.706a1.514,1.514,0,0,1-.382-1.956l.591-1.022a1.517,1.517,0,0,1,1.877-.647l1.158.466.076-.058.007,0a6.383,6.383,0,0,1,1.382-.8l.009,0,.088-.036.012-.09,0-.01.169-1.14A1.516,1.516,0,0,1,17.472,28.046Z" fill="#154782"/>
      </g>
      <circle id="Ellipse_99" data-name="Ellipse 99" cx="2.09" cy="2.09" r="2.09" transform="translate(15.972 34.23)" fill="none" stroke="#154782" stroke-linecap="round" stroke-linejoin="round" stroke-width="1.5"/>
    </g>
    <g id="Group_498" data-name="Group 498">
      <circle id="Ellipse_87" data-name="Ellipse 87" cx="5.631" cy="5.631" r="5.631" transform="translate(25.668 3.734)" fill="none" stroke="#154782" stroke-linecap="round" stroke-linejoin="round" stroke-width="2"/>
      <path id="Path_521" data-name="Path 521" d="M24.46,21.4a9.537,9.537,0,0,1,16.376,6.647v0" fill="none" stroke="#154782" stroke-linecap="round" stroke-linejoin="round" stroke-width="2"/>
    </g>
  </g>
</svg>
