<svg xmlns="http://www.w3.org/2000/svg" width="33.378" height="34.204" viewBox="0 0 33.378 34.204">
  <g id="Group_1030" data-name="Group 1030" transform="translate(-4.961 -28.925)">
    <g id="Group_433" data-name="Group 433" transform="translate(5.979 30.114)">
      <path id="Path_445" data-name="Path 445" d="M19.392,55.142A15.683,15.683,0,0,1,15.555,25.18" transform="translate(-5.979 -23.725)" fill="none" stroke="#154782" stroke-linecap="round" stroke-linejoin="round" stroke-width="2"/>
      <path id="Path_446" data-name="Path 446" d="M18.781,24.252a15.682,15.682,0,0,1,5.172,30.095" transform="translate(-2.165 -24.002)" fill="none" stroke="#154782" stroke-linecap="round" stroke-linejoin="round" stroke-width="2"/>
      <path id="Path_447" data-name="Path 447" d="M10.554,24.059l4.151.9-.9,4.152" transform="translate(-4.616 -24.059)" fill="none" stroke="#154782" stroke-linecap="round" stroke-linejoin="round" stroke-width="2"/>
      <path id="Path_448" data-name="Path 448" d="M26.315,49.739l-4.151-.9.9-4.151" transform="translate(-1.157 -17.912)" fill="none" stroke="#154782" stroke-linecap="round" stroke-linejoin="round" stroke-width="2"/>
      <g id="Path_449" data-name="Path 449" transform="translate(5.735 5.175)">
        <path id="Path_592" data-name="Path 592" d="M25.876,37.529a5.882,5.882,0,0,1,.055.8c0,.231-.022.471-.055.8l-.153,1.24.975.768,1.181.92-.768,1.326-1.391-.559-1.141-.459-.984.745a6.387,6.387,0,0,1-1.371.8l-1.163.472-.175,1.238L20.664,47.1H19.129l-.209-1.481-.175-1.238-1.162-.471a6.263,6.263,0,0,1-1.345-.78l-1-.768-1.167.472-1.393.559-.771-1.326,1.185-.92.979-.771-.153-1.238c-.034-.34-.056-.591-.056-.811s.022-.472.056-.8l.153-1.24-.976-.767-1.188-.918.768-1.328,1.393.561,1.14.459.984-.745a6.348,6.348,0,0,1,1.369-.8l1.163-.472.175-1.238.219-1.48h1.524l.209,1.48.175,1.238,1.162.472a6.279,6.279,0,0,1,1.349.777l1,.768,1.162-.472,1.393-.558.768,1.326-1.173.932-.976.768Z" transform="translate(-9.947 -27.594)" fill="none"/>
        <path id="Path_593" data-name="Path 593" d="M19.579,30.014l-.219,1.48-.175,1.238-1.162.472a6.327,6.327,0,0,0-1.371.8l-.988.745-1.14-.459-1.393-.561-.768,1.328,1.185.92.976.768-.153,1.238c-.034.328-.056.581-.056.8s.022.471.056.811l.153,1.238-.976.768-1.185.92.768,1.328,1.393-.559,1.163-.472,1,.768a6.252,6.252,0,0,0,1.349.779l1.162.471.384,2.719h1.535l.219-1.481.175-1.238,1.162-.471a6.474,6.474,0,0,0,1.372-.8l.986-.746,2.532,1.02.768-1.326-1.185-.92-.975-.768.153-1.239c.032-.328.055-.568.055-.8a6.019,6.019,0,0,0-.055-.8l-.153-1.238.975-.768,1.173-.932-.767-1.326-1.393.558L25,34.75l-1-.768A6.246,6.246,0,0,0,22.65,33.2l-1.163-.472L21.1,30.014H19.579m0-1.968H21.1a1.967,1.967,0,0,1,1.947,1.692l.225,1.6.114.047.021.009a8.209,8.209,0,0,1,1.766,1.016l.021.016.1.08.116-.048.008,0,1.393-.558a1.966,1.966,0,0,1,2.435.84l.768,1.326a1.967,1.967,0,0,1-.479,2.526l-1.173.932-.006.005-.1.082.017.136a7.966,7.966,0,0,1,.069,1.044,9.812,9.812,0,0,1-.064.993l-.005.048-.017.139.1.078,1.18.918a1.965,1.965,0,0,1,.495,2.537l-.768,1.328a1.966,1.966,0,0,1-2.436.838l-1.5-.6-.1.074-.012.009a8.354,8.354,0,0,1-1.792,1.04l-.012.005-.114.045-.017.118v.012l-.219,1.481a1.967,1.967,0,0,1-1.946,1.678H19.579a1.968,1.968,0,0,1-1.948-1.692l-.225-1.6-.113-.045-.018-.008a8.116,8.116,0,0,1-1.769-1.019l-.022-.016-.1-.079-.117.047-.008,0-1.393.558a1.967,1.967,0,0,1-2.435-.84l-.767-1.326a1.965,1.965,0,0,1,.5-2.539l1.278-1-.017-.136-.005-.049a9.98,9.98,0,0,1-.065-1,9.83,9.83,0,0,1,.065-1l.005-.043.017-.138-.1-.079-1.178-.916a1.965,1.965,0,0,1-.5-2.539l.767-1.326a1.968,1.968,0,0,1,2.436-.84l1.5.6.1-.075.009-.006a8.285,8.285,0,0,1,1.794-1.041l.012-.005.114-.047.016-.117,0-.013.219-1.48A1.968,1.968,0,0,1,19.579,28.046Z" transform="translate(-10.398 -28.046)" fill="#154782"/>
      </g>
      <circle id="Ellipse_99" data-name="Ellipse 99" cx="2.713" cy="2.713" r="2.713" transform="translate(12.97 13.201)" fill="none" stroke="#154782" stroke-linecap="round" stroke-linejoin="round" stroke-width="1.5"/>
    </g>
  </g>
</svg>
