<?xml version="1.0" encoding="UTF-8"?><svg id="Layer_1" xmlns="http://www.w3.org/2000/svg" width="30" height="30" viewBox="0 0 30 30"><defs><style>.cls-1{fill:#fff;}.cls-2{fill:#ec1c24;}</style></defs><path class="cls-2" d="m15,28.85c-3.7,0-7.17-1.44-9.79-4.06-2.62-2.61-4.06-6.09-4.06-9.79s1.44-7.17,4.06-9.79S11.3,1.15,15,1.15s7.17,1.44,9.79,4.06,4.06,6.09,4.06,9.79-1.44,7.18-4.06,9.79c-2.62,2.62-6.09,4.06-9.79,4.06"/><path class="cls-1" d="m15,2.31c-3.39,0-6.58,1.32-8.97,3.72-2.4,2.4-3.72,5.58-3.72,8.97s1.32,6.58,3.72,8.97c2.4,2.4,5.58,3.72,8.97,3.72s6.58-1.32,8.97-3.72c2.4-2.4,3.72-5.58,3.72-8.97s-1.32-6.58-3.72-8.97c-2.4-2.4-5.58-3.72-8.97-3.72m0-2.31c8.28,0,15,6.72,15,15s-6.72,15-15,15S0,23.29,0,15,6.72,0,15,0"/></svg>