<svg xmlns="http://www.w3.org/2000/svg" xmlns:xlink="http://www.w3.org/1999/xlink" width="49" height="47" viewBox="0 0 49 47">
  <defs>
    <clipPath id="clip-path">
      <rect width="24.832" height="38.184" fill="none"/>
    </clipPath>
  </defs>
  <g id="Group_1397" data-name="Group 1397" transform="translate(-403 -488)">
    <rect id="Rectangle_321" data-name="Rectangle 321" width="49" height="47" rx="8" transform="translate(403 488)" fill="#fff"/>
    <g id="Repeat_Grid_3" data-name="Repeat Grid 3" transform="translate(415.084 495.28)" clip-path="url(#clip-path)">
      <g id="Group_169" data-name="Group 169" transform="translate(-1440.256 -357.642)">
        <g id="Path_228" data-name="Path 228" transform="translate(1417.616 335.507)" fill="none" stroke-linecap="round" stroke-miterlimit="10">
          <path d="M41.963,52.684H28.269a1.394,1.394,0,0,1-1.39-1.39V30.668H43.352V51.293A1.394,1.394,0,0,1,41.963,52.684Z" stroke="none"/>
          <path d="M 41.96256637573242 52.68377685546875 C 42.72712707519531 52.68377685546875 43.3524169921875 52.05793762207031 43.3524169921875 51.29337692260742 L 43.3524169921875 30.66799736022949 L 26.87899780273438 30.66799736022949 L 26.87899780273438 51.29337692260742 C 26.87899780273438 52.05793762207031 27.50429725646973 52.68377685546875 28.2693977355957 52.68377685546875 L 41.96256637573242 52.68377685546875 M 41.96256637573242 54.48377990722656 L 28.2693977355957 54.48377990722656 C 26.51020812988281 54.48377990722656 25.0789966583252 53.05256652832031 25.0789966583252 51.29337692260742 L 25.0789966583252 28.86799812316895 L 45.15241622924805 28.86799812316895 L 45.15241622924805 51.29337692260742 C 45.15241622924805 53.05256652832031 43.72145843505859 54.48377990722656 41.96256637573242 54.48377990722656 Z" stroke="none" fill="#275795"/>
        </g>
        <line id="Line_46" data-name="Line 46" x2="24.832" transform="translate(1440.256 361.245)" fill="none" stroke="#275795" stroke-miterlimit="10" stroke-width="3"/>
        <line id="Line_47" data-name="Line 47" x2="14.16" transform="translate(1445.652 359.142)" fill="none" stroke="#275795" stroke-miterlimit="10" stroke-width="3"/>
      </g>
    </g>
  </g>
</svg>
