<svg xmlns="http://www.w3.org/2000/svg" width="31.303" height="35.686" viewBox="0 0 31.303 35.686">
  <g id="Group_586" data-name="Group 586" transform="translate(-963.488 -237.57)">
    <g id="Group_578" data-name="Group 578" transform="translate(57.419 10.836)">
      <path id="Path_570" data-name="Path 570" d="M6789.133,17453.18l10.825,10.826" transform="translate(-5864 -17203)" fill="none" stroke="#e30101" stroke-linecap="round" stroke-width="2"/>
      <g id="Group_576" data-name="Group 576">
        <path id="Path_571" data-name="Path 571" d="M6789.133,17453.18l10.825,10.826" transform="translate(18389.137 -6538.953) rotate(90)" fill="none" stroke="#e30101" stroke-linecap="round" stroke-width="2"/>
      </g>
    </g>
    <g id="Group_583" data-name="Group 583" transform="translate(118.508)">
      <g id="Path_573" data-name="Path 573" transform="translate(828.317 214.256)" fill="none" stroke-linecap="round" stroke-miterlimit="10">
        <path d="M35.571,31.2,18.664,48.241v3.933h4.1L39.5,35.381Z" stroke="none"/>
        <path d="M 35.57115173339844 31.19730758666992 L 18.66365051269531 48.24121856689453 L 18.66365051269531 52.17422866821289 L 22.76401138305664 52.17422866821289 L 39.504150390625 35.38134765625 L 35.57115173339844 31.19730758666992 M 35.60987091064453 28.31840896606445 L 42.28742980957031 35.42218780517578 L 23.59428024291992 54.17422866821289 L 16.66365051269531 54.17422866821289 L 16.66365051269531 47.41749954223633 L 35.60987091064453 28.31840896606445 Z" stroke="none" fill="#e30101"/>
      </g>
      <path id="Path_574" data-name="Path 574" d="M59.907,25.761,57.019,28.6l-5.245-5.62,2.888-2.842a1.275,1.275,0,0,1,1.8.062l3.511,3.762A1.275,1.275,0,0,1,59.907,25.761Z" transform="translate(814.56 218.77)" fill="none" stroke="#e30101" stroke-linecap="round" stroke-linejoin="round" stroke-width="2"/>
    </g>
  </g>
</svg>
