<?xml version="1.0" encoding="utf-8"?>
<!-- Generator: Adobe Illustrator 15.0.0, SVG Export Plug-In . SVG Version: 6.00 Build 0)  -->
<!DOCTYPE svg PUBLIC "-//W3C//DTD SVG 1.1//EN" "http://www.w3.org/Graphics/SVG/1.1/DTD/svg11.dtd">
<svg version="1.1" xmlns="http://www.w3.org/2000/svg" xmlns:xlink="http://www.w3.org/1999/xlink" x="0px" y="0px" width="26px"
	 height="26px" viewBox="0 0 26 26" enable-background="new 0 0 26 26" xml:space="preserve">
<g id="Layer_1" display="none">
	<path display="inline" fill="#45A3DB" d="M22.353,7.73c-1.059,1.034-2.768,1.02-3.811-0.034c-1.04-1.056-1.026-2.745,0.036-3.773
		c1.063-1.037,2.767-1.02,3.817,0.032C23.436,5.009,23.422,6.701,22.353,7.73z"/>
	<path display="inline" fill="#070707" d="M6.719,6.004c0,0,0.846-1.135-0.224-2.382L5.248,2.407c0,0-1.189-0.981-2.536,0.038
		L1.414,3.751c0,0-1.132,1.312,0.189,2.656l1.178,1.145c0,0,1.075,0.881,2.304,0.102L2.642,5.257c0,0-0.291-0.256,0.022-0.582
		l1.052-1.064c0,0,0.226-0.246,0.548,0L6.719,6.004z"/>
	<path display="inline" fill="#070707" d="M10.387,7.396L9.208,6.25c0,0-1.068-0.88-2.298-0.1l2.442,2.393
		c0,0,0.291,0.26-0.023,0.584L8.277,10.19c0,0-0.227,0.242-0.547,0.004L5.275,7.802c0,0-0.848,1.128,0.224,2.377l1.249,1.213
		c0,0,4.224,4.402,3.407,1.858c-0.087,0.055-0.225,0.036-0.271-0.09c-0.095-0.284-0.255-0.537-0.365-0.814
		c-0.005-0.008-0.013-0.011-0.019-0.017c-0.188-0.214-0.345-0.452-0.497-0.691c-0.012,0.023-0.022,0.052-0.031,0.081
		c-0.031,0.214-0.362,0.13-0.328-0.084c0.068-0.395,0.569-0.537,0.836-0.786c0.222-0.215,0.454-0.471,0.75-0.575
		c0.043-0.03,0.088-0.057,0.137-0.083c-0.074-0.042-0.116-0.153-0.067-0.226c0.113-0.147,0.279-0.238,0.459-0.139
		c0.118,0.063,0.202,0.167,0.296,0.261c0.001,0.001,0,0.009,0.003,0.012c0.059-0.036,0.136-0.034,0.197,0.024
		c0.123,0.12,0.244,0.237,0.362,0.363C14.929,11.917,13.601,10.518,10.387,7.396z"/>
	<path display="inline" fill="#070707" d="M13.472,12.572c0,0,0.847-1.137-0.223-2.38l-1.251-1.217c0,0-1.183-0.982-2.534,0.034
		L8.17,10.317c0,0-1.133,1.313,0.187,2.658l1.18,1.142c0,0,1.075,0.883,2.302,0.102L9.396,11.83c0,0-0.285-0.263,0.024-0.588
		l1.054-1.064c0,0,0.225-0.246,0.547,0L13.472,12.572z"/>
	<path display="inline" fill="#070707" d="M7.891,9.129c-0.07,0.069-0.167,0.079-0.22,0.024l-4.1-3.981
		C3.52,5.121,3.524,5.024,3.591,4.956l0.461-0.464C4.119,4.425,4.217,4.418,4.27,4.467L8.369,8.45C8.422,8.503,8.418,8.6,8.35,8.667
		L7.891,9.129z"/>
	<path display="inline" fill="#070707" d="M8.926,9.333"/>
	<path display="inline" fill="#070707" d="M18.717,20.88c0,0-0.844,1.137,0.23,2.381l1.249,1.211c0,0,1.193,0.979,2.535-0.047
		l1.295-1.307c0,0,1.125-1.313-0.195-2.657l-1.184-1.141c0,0-1.074-0.88-2.302-0.093l2.45,2.387c0,0,0.288,0.256-0.021,0.582
		l-1.05,1.067c0,0-0.227,0.247-0.55,0.001L18.717,20.88z"/>
	<path display="inline" fill="#070707" d="M15.044,19.496l1.181,1.146c0,0,1.071,0.877,2.298,0.091l-2.445-2.384
		c0,0-0.293-0.26,0.022-0.583l1.047-1.067c0,0,0.226-0.246,0.544-0.008l2.466,2.387c0,0,0.84-1.128-0.232-2.378l-1.251-1.211
		c0,0-4.236-4.391-3.415-1.847c0.091-0.056,0.227-0.038,0.272,0.087c0.098,0.285,0.258,0.536,0.371,0.815
		c0.002,0.006,0.009,0.013,0.018,0.019c0.187,0.212,0.342,0.449,0.495,0.686c0.015-0.022,0.022-0.05,0.032-0.076
		c0.03-0.216,0.363-0.132,0.326,0.082c-0.063,0.397-0.568,0.538-0.832,0.785c-0.22,0.219-0.454,0.476-0.751,0.582
		c-0.04,0.028-0.086,0.056-0.136,0.081c0.075,0.045,0.118,0.153,0.067,0.23c-0.11,0.143-0.275,0.234-0.459,0.139
		c-0.117-0.065-0.2-0.17-0.296-0.262c-0.003-0.002,0.003-0.01-0.002-0.011c-0.061,0.035-0.137,0.034-0.199-0.025
		c-0.121-0.123-0.243-0.238-0.365-0.362C10.491,14.987,11.82,16.381,15.044,19.496z"/>
	<path display="inline" fill="#070707" d="M11.945,14.328c0,0-0.845,1.139,0.229,2.379l1.253,1.217c0,0,1.186,0.976,2.536-0.041
		l1.29-1.314c0,0,1.131-1.317-0.193-2.658l-1.185-1.138c0,0-1.076-0.882-2.305-0.095l2.452,2.383c0,0,0.285,0.26-0.023,0.587
		l-1.052,1.07c0,0-0.224,0.245-0.545-0.003L11.945,14.328z"/>
	<path display="inline" fill="#070707" d="M17.692,17.629c0.068-0.066,0.166-0.077,0.218-0.022l4.11,3.969
		c0.052,0.053,0.049,0.148-0.019,0.217l-0.46,0.467c-0.066,0.067-0.164,0.076-0.216,0.025l-4.111-3.972
		c-0.056-0.055-0.048-0.151,0.021-0.218L17.692,17.629z"/>
	<path display="inline" fill="#070707" d="M16.413,17.642"/>
	<path display="inline" fill="#070707" d="M14.893,15.873c-0.069,0.069-0.17,0.075-0.226,0.018l-4.377-4.253
		c-0.056-0.054-0.055-0.155,0.013-0.223l0.461-0.464c0.066-0.066,0.169-0.07,0.225-0.018l4.376,4.254
		c0.057,0.058,0.055,0.155-0.012,0.224L14.893,15.873z"/>
</g>
<g id="Layer_3" display="none">
	<path display="inline" fill="#070707" d="M17.688,2.922c0,0.943-0.765,1.707-1.707,1.707h-4.242c-0.943,0-1.707-0.764-1.707-1.707
		l0,0c0-0.943,0.764-1.707,1.707-1.707h4.242C16.923,1.215,17.688,1.979,17.688,2.922L17.688,2.922z"/>
	<path display="inline" fill="#FFFEFE" d="M17.337,2.918c0,0.768-0.694,1.391-1.551,1.391h-3.854c-0.857,0-1.551-0.623-1.551-1.391
		l0,0c0-0.768,0.694-1.391,1.551-1.391h3.854C16.643,1.527,17.337,2.15,17.337,2.918L17.337,2.918z"/>
	<rect x="9.525" y="2.446" display="inline" fill="#FFFEFE" width="3.064" height="1.003"/>
	<rect x="14.776" y="2.434" display="inline" fill="#FFFEFE" width="3.064" height="1.003"/>
	<path display="inline" fill="#070707" d="M13.434,4.41c-0.566,0-1.027-0.295-1.027-0.659V2.116c0-0.364,0.461-0.659,1.027-0.659
		l0,0c0.568,0,1.028,0.295,1.028,0.659v1.636C14.462,4.115,14.002,4.41,13.434,4.41L13.434,4.41z"/>
	<path display="inline" fill="#070707" d="M14.354,4.418c-0.572,0-1.034-0.295-1.034-0.659V2.124c0-0.364,0.462-0.659,1.034-0.659
		l0,0c0.57,0,1.034,0.295,1.034,0.659v1.636C15.389,4.123,14.925,4.418,14.354,4.418L14.354,4.418z"/>
	<path display="inline" fill="#FFFEFE" d="M12.927,4.316c-0.418,0-0.756-0.278-0.756-0.621v-1.54c0-0.343,0.338-0.621,0.756-0.621
		l0,0c0.42,0,0.756,0.278,0.756,0.621v1.54C13.683,4.039,13.347,4.316,12.927,4.316L12.927,4.316z"/>
	<path display="inline" fill="#FFFEFE" d="M14.854,4.316c-0.453,0-0.818-0.278-0.818-0.621v-1.54c0-0.343,0.365-0.621,0.818-0.621
		l0,0c0.454,0,0.818,0.278,0.818,0.621v1.54C15.672,4.039,15.308,4.316,14.854,4.316L14.854,4.316z"/>
	<path display="inline" fill="#070707" d="M25.438,2.918c0,0.943-0.765,1.707-1.707,1.707h-4.242c-0.943,0-1.707-0.764-1.707-1.707
		l0,0c0-0.943,0.764-1.707,1.707-1.707h4.242C24.674,1.211,25.438,1.975,25.438,2.918L25.438,2.918z"/>
	<path display="inline" fill="#FFFEFE" d="M25.088,2.914c0,0.768-0.694,1.391-1.551,1.391h-3.854c-0.856,0-1.551-0.623-1.551-1.391
		l0,0c0-0.768,0.694-1.391,1.551-1.391h3.854C24.394,1.523,25.088,2.146,25.088,2.914L25.088,2.914z"/>
	<rect x="17.276" y="2.442" display="inline" fill="#FFFEFE" width="3.064" height="1.003"/>
	<rect x="22.527" y="2.43" display="inline" fill="#FFFEFE" width="3.064" height="1.003"/>
	<path display="inline" fill="#070707" d="M21.185,4.406c-0.565,0-1.026-0.295-1.026-0.659V2.112c0-0.364,0.461-0.659,1.026-0.659
		l0,0c0.568,0,1.028,0.295,1.028,0.659v1.636C22.213,4.111,21.753,4.406,21.185,4.406L21.185,4.406z"/>
	<path display="inline" fill="#070707" d="M22.105,4.414c-0.571,0-1.034-0.295-1.034-0.659V2.12c0-0.364,0.463-0.659,1.034-0.659
		l0,0c0.57,0,1.034,0.295,1.034,0.659v1.636C23.14,4.119,22.676,4.414,22.105,4.414L22.105,4.414z"/>
	<path display="inline" fill="#FFFEFE" d="M20.679,4.313c-0.418,0-0.756-0.278-0.756-0.621v-1.54c0-0.343,0.338-0.621,0.756-0.621
		l0,0c0.42,0,0.756,0.278,0.756,0.621v1.54C21.435,4.035,21.099,4.313,20.679,4.313L20.679,4.313z"/>
	<path display="inline" fill="#FFFEFE" d="M22.604,4.313c-0.453,0-0.818-0.278-0.818-0.621v-1.54c0-0.343,0.365-0.621,0.818-0.621
		l0,0c0.454,0,0.818,0.278,0.818,0.621v1.54C23.423,4.035,23.059,4.313,22.604,4.313L22.604,4.313z"/>
	<rect x="14.345" y="2.788" display="inline" fill="#020202" width="6.841" height="0.295"/>
</g>
<g id="Layer_2" display="none">
</g>
<g id="Layer_4" display="none">
	<path display="inline" fill="#040607" d="M-9.037-6.147c0,0,0.437-0.593,1.306-0.054l4.66,4.069c0,0,0.793,0.793,0.049,1.644
		L-3.58,0.149l-2.204,2.525c0,0-0.716,0.605-1.454-0.039l-4.689-4.097c0,0-0.851-0.744,0.193-1.599L-9.037-6.147z"/>
	<path display="inline" fill="#040607" d="M-1.389,0.552c0,0,0.438-0.592,1.306-0.053l4.657,4.07c0,0,0.794,0.792,0.052,1.643
		L4.067,6.851L1.861,9.375c0,0-0.713,0.607-1.451-0.038L-4.279,5.24c0,0-0.852-0.744,0.192-1.601L-1.389,0.552z"/>
	
		<rect x="-10.629" y="-3.909" transform="matrix(0.7529 0.6581 -0.6581 0.7529 -2.9897 4.4644)" display="inline" fill="#FDFEFF" width="6.378" height="4.319"/>
	
		<rect x="-2.946" y="2.88" transform="matrix(0.7531 0.6579 -0.6579 0.7531 3.3749 1.0854)" display="inline" fill="#FDFEFF" width="6.376" height="4.317"/>
	
		<rect x="-12.735" y="-1.732" transform="matrix(0.7576 0.6527 -0.6527 0.7576 -1.8942 3.897)" display="inline" fill="#FDFEFF" width="13.081" height="2.26"/>
	<path display="inline" fill="#040607" d="M-1.224,3.799C-1.33,3.923-1.508,3.944-1.619,3.848l-4.248-3.713
		C-5.977,0.037-5.98-0.14-5.872-0.262l0.194-0.222c0.11-0.124,0.284-0.145,0.395-0.049l4.25,3.713
		c0.11,0.097,0.114,0.275,0.005,0.399L-1.224,3.799z"/>
	<path display="inline" fill="#040607" d="M6.168,7.265c0,0,0.436-0.593,1.306-0.056l4.658,4.072c0,0,0.793,0.793,0.05,1.644
		l-0.559,0.637L9.42,16.086c0,0-0.714,0.607-1.453-0.037l-4.688-4.101c0,0-0.852-0.743,0.193-1.6L6.168,7.265z"/>
	<path display="inline" fill="#040607" d="M13.816,13.967c0,0,0.436-0.595,1.304-0.057l4.664,4.073c0,0,0.789,0.793,0.045,1.645
		l-0.557,0.636l-2.204,2.523c0,0-0.716,0.607-1.452-0.035l-4.691-4.1c0,0-0.852-0.745,0.192-1.598L13.816,13.967z"/>
	
		<rect x="4.576" y="9.502" transform="matrix(0.753 0.6581 -0.6581 0.753 9.5923 -2.2278)" display="inline" fill="#FDFEFF" width="6.375" height="4.319"/>
	
		<rect x="12.256" y="16.293" transform="matrix(0.753 0.6581 -0.6581 0.753 15.9572 -5.6046)" display="inline" fill="#FDFEFF" width="6.375" height="4.317"/>
	
		<rect x="-0.769" y="10.439" transform="matrix(0.7531 0.658 -0.658 0.7531 9.495 -2.1611)" display="inline" fill="#FDFEFF" width="16.791" height="2.26"/>
	<path display="inline" fill="#040607" d="M13.982,17.211c-0.107,0.126-0.284,0.146-0.394,0.049l-4.252-3.71
		c-0.108-0.099-0.111-0.275-0.005-0.399l0.194-0.222c0.111-0.125,0.288-0.146,0.396-0.049l4.25,3.71
		c0.11,0.098,0.114,0.276,0.006,0.398L13.982,17.211z"/>
	<path display="inline" fill="#040607" d="M6.344,10.413c-0.105,0.124-0.282,0.145-0.394,0.048L1.701,6.748
		C1.592,6.651,1.588,6.474,1.696,6.352l0.193-0.223C2,6.004,2.176,5.984,2.285,6.081l4.249,3.711
		c0.112,0.099,0.114,0.275,0.006,0.397L6.344,10.413z"/>
	<path display="inline" fill="#040607" d="M21.13,20.671c0,0,0.441-0.595,1.311-0.056l4.655,4.074c0,0,0.795,0.789,0.051,1.641
		l-0.555,0.639l-2.205,2.523c0,0-0.717,0.604-1.454-0.041l-4.691-4.095c0,0-0.848-0.748,0.193-1.603L21.13,20.671z"/>
	<path display="inline" fill="#040607" d="M28.782,27.371c0,0,0.436-0.596,1.305-0.057l4.658,4.074c0,0,0.795,0.788,0.051,1.641
		l-0.559,0.639l-2.206,2.523c0,0-0.713,0.605-1.453-0.037l-4.688-4.099c0,0-0.852-0.744,0.192-1.601L28.782,27.371z"/>
	
		<rect x="19.543" y="22.909" transform="matrix(0.7529 0.6582 -0.6582 0.7529 22.1149 -8.7643)" display="inline" fill="#FDFEFF" width="6.371" height="4.318"/>
	
		<rect x="27.222" y="29.699" transform="matrix(0.7527 0.6584 -0.6584 0.7527 28.4952 -12.1439)" display="inline" fill="#FDFEFF" width="6.38" height="4.314"/>
	<polygon display="inline" fill="#FDFEFF" points="33.635,36.125 15.313,20.114 16.806,18.418 35.114,34.416 	"/>
	<path display="inline" fill="#040607" d="M28.946,30.617c-0.106,0.121-0.284,0.146-0.396,0.045l-4.246-3.71
		c-0.111-0.099-0.117-0.277-0.007-0.398l0.196-0.222c0.105-0.122,0.283-0.143,0.396-0.047l4.247,3.71
		c0.111,0.101,0.111,0.278,0.004,0.398L28.946,30.617z"/>
	<path display="inline" fill="#040607" d="M21.437,24.022c-0.104,0.121-0.282,0.146-0.393,0.045l-4.248-3.708
		c-0.108-0.101-0.115-0.278-0.004-0.401l0.193-0.223c0.108-0.119,0.285-0.14,0.395-0.045l4.248,3.711
		c0.111,0.1,0.111,0.275,0.006,0.399L21.437,24.022z"/>
</g>
<g id="Layer_5" display="none">
	<polygon display="inline" fill="#030303" points="-5.183,7.525 0.031,7.525 0.031,2.544 6.271,11.979 0.07,21.353 -0.009,15.552 
		-5.854,15.436 -5.854,7.467 	"/>
	
		<radialGradient id="SVGID_1_" cx="12.1343" cy="11.7378" r="2.9699" fx="14.4883" fy="9.927" gradientTransform="matrix(1 0 0 0.9168 0 0.9764)" gradientUnits="userSpaceOnUse">
		<stop  offset="0.1758" style="stop-color:#ED1E24"/>
		<stop  offset="0.5696" style="stop-color:#EB1F25"/>
		<stop  offset="0.7115" style="stop-color:#E62026"/>
		<stop  offset="0.8126" style="stop-color:#DE2227"/>
		<stop  offset="0.8944" style="stop-color:#D2252A"/>
		<stop  offset="0.9636" style="stop-color:#C4282D"/>
		<stop  offset="1" style="stop-color:#BA2B2F"/>
	</radialGradient>
	<circle display="inline" fill="url(#SVGID_1_)" cx="12.625" cy="11.531" r="2.427"/>
	<polygon display="inline" fill="#030303" points="31.226,16.164 26.011,16.164 26.011,21.145 19.771,11.709 25.972,2.335 
		26.051,8.136 31.896,8.252 31.896,16.221 	"/>
	<path display="inline" fill="#070707" d="M-318.534-4.361h-10.486c0,0-8.821,0.72-10.892,9.766l21.827,0.09
		c0,0,2.476-0.09,2.521,2.791v9.541c0,0,0.09,2.115-2.475,2.43l-21.873-0.045c0,0,1.26,8.956,11.701,9.901h11.116
		c0,0,38.902,1.359,23.773-6.629c-0.151,0.624-0.851,1.165-1.604,0.783c-1.714-0.867-3.596-1.325-5.339-2.116
		c-0.05,0.003-0.102,0.003-0.155-0.001c-1.818-0.13-3.582-0.517-5.346-0.954c0.05,0.182,0.124,0.355,0.237,0.518
		c0.8,1.143-1.071,2.219-1.862,1.088c-1.482-2.116,0.172-5.014,0.24-7.327c0.059-1.968-0.05-4.175,0.841-5.972
		c0.053-0.326,0.13-0.651,0.226-0.975c-0.512,0.129-1.224-0.182-1.308-0.758c-0.17-1.168,0.188-2.318,1.444-2.665
		c0.824-0.228,1.667-0.109,2.508-0.102c0.026,0,0.05,0.006,0.076,0.008c0.11-0.416,0.444-0.763,1.002-0.763
		c1.098,0,2.189,0.013,3.278,0.063C-277.666-3.84-289.959-4.361-318.534-4.361z"/>
	<path display="inline" fill="#070707" d="M-281.319,5.615c0,0-1.261-8.956-11.701-9.901h-11.116c0,0-9.812,0.765-11.342,11.431
		v11.747c0,0,0.765,11.026,12.781,11.296h10.486c0,0,8.821-0.719,10.892-9.766l-21.828-0.09c0,0-2.475,0.09-2.52-2.791V8
		c0,0-0.091-2.115,2.475-2.43L-281.319,5.615z"/>
	<path display="inline" fill="#070707" d="M-258.576-4.313h-10.486c0,0-8.821,0.72-10.891,9.766l21.827,0.09
		c0,0,2.476-0.09,2.521,2.791v9.541c0,0,0.09,2.115-2.476,2.43l-21.872-0.045c0,0,1.26,8.957,11.701,9.901h11.116
		c0,0,38.901,1.36,23.772-6.628c-0.151,0.623-0.85,1.164-1.604,0.783c-1.715-0.868-3.597-1.326-5.34-2.117
		c-0.05,0.003-0.102,0.003-0.155-0.001c-1.817-0.13-3.581-0.517-5.345-0.953c0.049,0.181,0.124,0.354,0.237,0.517
		c0.8,1.143-1.071,2.219-1.862,1.089c-1.482-2.116,0.171-5.015,0.24-7.328c0.059-1.968-0.051-4.175,0.841-5.972
		c0.053-0.325,0.129-0.651,0.225-0.975c-0.512,0.129-1.223-0.182-1.307-0.758c-0.171-1.168,0.188-2.318,1.443-2.665
		c0.825-0.228,1.667-0.108,2.508-0.101c0.027,0,0.051,0.005,0.077,0.007c0.11-0.415,0.443-0.763,1.001-0.763
		c1.098,0,2.189,0.013,3.279,0.063C-217.708-3.791-230.001-4.313-258.576-4.313z"/>
	<path display="inline" fill="#070707" d="M-221.361,5.664c0,0-1.26-8.956-11.701-9.901h-11.116c0,0-9.812,0.765-11.342,11.432
		V18.94c0,0,0.766,11.026,12.782,11.297h10.486c0,0,8.82-0.72,10.891-9.767l-21.827-0.09c0,0-2.476,0.09-2.521-2.791V8.049
		c0,0-0.09-2.115,2.476-2.43L-221.361,5.664z"/>
	<path display="inline" fill="#070707" d="M-261.539,14.994c0,0.597-0.402,1.08-0.897,1.08h-36.439c-0.495,0-0.897-0.483-0.897-1.08
		v-4.186c0-0.596,0.402-1.08,0.897-1.08h36.439c0.495,0,0.897,0.484,0.897,1.08V14.994z"/>
</g>
<g id="Layer_6">
	<path fill="#070707" d="M8.264,6.557L6.417,5.098c0,0-1.652-1.099-3.274,0.204l3.829,3.051c0,0,0.448,0.329,0.056,0.84
		l-1.327,1.678c0,0-0.279,0.387-0.772,0.084L1.085,7.906c0,0-1.024,1.753,0.683,3.371l1.956,1.545c0,0,6.657,5.647,5.105,2.139
		c-0.113,0.088-0.312,0.088-0.392-0.085c-0.181-0.39-0.448-0.734-0.645-1.114c-0.009-0.007-0.018-0.013-0.027-0.021
		c-0.301-0.276-0.558-0.589-0.808-0.913c-0.017,0.04-0.026,0.08-0.031,0.125c-0.017,0.313-0.496,0.24-0.479-0.067
		c0.034-0.579,0.727-0.858,1.062-1.255c0.283-0.34,0.571-0.743,0.978-0.935c0.055-0.049,0.114-0.096,0.176-0.142
		c-0.108-0.048-0.191-0.201-0.125-0.315c0.132-0.228,0.354-0.38,0.624-0.267c0.177,0.075,0.308,0.214,0.457,0.33
		c0.005,0.004,0.007,0.01,0.012,0.012c0.077-0.058,0.185-0.071,0.282,0.006c0.194,0.152,0.383,0.307,0.568,0.466
		C15.383,12.332,13.292,10.529,8.264,6.557z"/>
	<path fill="#070707" d="M13.426,13.485c0,0,1.023-1.751-0.682-3.368l-1.957-1.546c0,0-1.833-1.231-3.585,0.434l-1.634,2.067
		c0,0-1.4,2.047,0.68,3.764l1.844,1.46c0,0,1.652,1.1,3.274-0.204l-3.829-3.05c0,0-0.447-0.329-0.055-0.844l1.326-1.677
		c0,0,0.279-0.385,0.774-0.084L13.426,13.485z"/>
	<path fill="#070707" d="M18.807,14.903l-1.846-1.459c0,0-1.649-1.1-3.273,0.202l3.829,3.052c0,0,0.449,0.33,0.058,0.841
		l-1.327,1.68c0,0-0.281,0.385-0.773,0.082l-3.843-3.047c0,0-1.025,1.751,0.682,3.369l1.956,1.546c0,0,6.657,5.646,5.105,2.14
		c-0.112,0.086-0.313,0.087-0.391-0.085c-0.182-0.391-0.45-0.735-0.646-1.115c-0.01-0.008-0.019-0.016-0.028-0.021
		c-0.302-0.277-0.558-0.591-0.807-0.913c-0.018,0.038-0.029,0.081-0.03,0.124c-0.018,0.313-0.497,0.242-0.479-0.066
		c0.032-0.578,0.727-0.86,1.059-1.256c0.288-0.339,0.572-0.744,0.98-0.936c0.053-0.049,0.115-0.095,0.176-0.14
		c-0.11-0.047-0.191-0.202-0.127-0.313c0.133-0.229,0.358-0.383,0.625-0.27c0.178,0.073,0.309,0.213,0.457,0.331
		c0.005,0.003,0.008,0.007,0.014,0.012c0.076-0.059,0.183-0.074,0.279,0.006c0.194,0.151,0.385,0.305,0.57,0.467
		C25.927,20.674,23.837,18.873,18.807,14.903z"/>
	<path fill="#070707" d="M23.971,21.83c0,0,1.024-1.75-0.682-3.368l-1.959-1.546c0,0-1.832-1.229-3.583,0.435l-1.634,2.068
		c0,0-1.4,2.046,0.679,3.765l1.846,1.457c0,0,1.65,1.101,3.273-0.203l-3.827-3.053c0,0-0.448-0.326-0.057-0.839l1.326-1.68
		c0,0,0.279-0.385,0.775-0.082L23.971,21.83z"/>
	<path fill="#070707" d="M15.603,17.887c-0.082,0.104-0.221,0.135-0.309,0.066l-6.412-5.068c-0.087-0.068-0.09-0.21-0.008-0.314
		l0.582-0.738c0.083-0.104,0.222-0.133,0.308-0.064l6.411,5.069c0.088,0.065,0.093,0.207,0.011,0.311L15.603,17.887z"/>
	<circle fill="#ED2124" cx="17.568" cy="7.875" r="1.596"/>
</g>
</svg>
