<svg xmlns="http://www.w3.org/2000/svg" width="31.92" height="24.679" viewBox="0 0 31.92 24.679">
  <g id="Group_282" data-name="Group 282" transform="translate(-369.816 -1021.555)">
    <g id="Group_281" data-name="Group 281" transform="translate(369.816 1021.555)">
      <path id="Path_350" data-name="Path 350" d="M376.842,1026.866a1.983,1.983,0,0,0-1.318.621,1.667,1.667,0,0,0-.166,1.939,3.826,3.826,0,0,0,3.419,2.184c.067,0,.134,0,.2,0a1.715,1.715,0,0,0,1.667-2.457A3.885,3.885,0,0,0,376.842,1026.866Z" transform="translate(-372.634 -1024.361)" fill="none"/>
      <path id="Path_351" data-name="Path 351" d="M378.937,1058.683a3.776,3.776,0,0,0-3.483,1.986,1.74,1.74,0,0,0,.023,2.074,2.126,2.126,0,0,0,1.742.705c.147-.017.35-.025.545-.066a3.786,3.786,0,0,0,2.835-2.148,1.721,1.721,0,0,0-1.662-2.552Z" transform="translate(-372.632 -1041.26)" fill="none"/>
      <path id="Path_352" data-name="Path 352" d="M434.737,1029.82c-.048-.024-.1-.05-.144-.072a4.032,4.032,0,0,0-.62-.224,4,4,0,0,1,.62.224C434.642,1029.77,434.69,1029.8,434.737,1029.82Z" transform="translate(-403.865 -1025.785)" fill="none"/>
      <path id="Path_353" data-name="Path 353" d="M396.289,1040.5l-1.578-.905-1.879-1.078,1.879,1.078Z" transform="translate(-382.031 -1030.558)" fill="none"/>
      <path id="Path_354" data-name="Path 354" d="M409.14,1044.733l4.8-2.747-4.8,2.747Z" transform="translate(-390.686 -1032.398)" fill="none"/>
      <path id="Path_355" data-name="Path 355" d="M402.463,1043.842a.375.375,0,0,1-.109.012A.375.375,0,0,0,402.463,1043.842Z" transform="translate(-387.084 -1033.383)" fill="none"/>
      <path id="Path_356" data-name="Path 356" d="M437.473,1031.223c-.112-.064-.218-.127-.32-.188.1.062.208.124.32.188Z" transform="translate(-405.552 -1026.587)" fill="none"/>
      <path id="Path_357" data-name="Path 357" d="M384.6,1022.571a6.331,6.331,0,0,1,1.8,1.125A6.331,6.331,0,0,0,384.6,1022.571Z" transform="translate(-377.664 -1022.094)" fill="none"/>
      <path id="Path_358" data-name="Path 358" d="M392.528,1033.548a3.961,3.961,0,0,1-.045.531A3.961,3.961,0,0,0,392.528,1033.548Z" transform="translate(-381.846 -1027.92)" fill="none"/>
      <path id="Path_359" data-name="Path 359" d="M391.487,1037.651l.033-.083-.033.083Z" transform="translate(-381.317 -1030.054)" fill="none"/>
      <path id="Path_360" data-name="Path 360" d="M391.61,1058.2c-.037-.082-.07-.164-.107-.248h0C391.54,1058.038,391.573,1058.12,391.61,1058.2Z" transform="translate(-381.326 -1040.873)" fill="none"/>
      <path id="Path_361" data-name="Path 361" d="M382.739,1021.965a6.306,6.306,0,0,1,.875.284A6.372,6.372,0,0,0,382.739,1021.965Z" transform="translate(-376.674 -1021.773)" fill="none"/>
      <path id="Path_362" data-name="Path 362" d="M434.375,1065.55q.165-.051.331-.12a5.017,5.017,0,0,0,.637-.315,5.017,5.017,0,0,1-.637.315Q434.54,1065.5,434.375,1065.55Z" transform="translate(-404.078 -1044.673)" fill="none"/>
      <path id="Path_363" data-name="Path 363" d="M370.04,1067.212a4.017,4.017,0,0,0,1.7,2.482A4.017,4.017,0,0,1,370.04,1067.212Z" transform="translate(-369.935 -1045.786)" fill="none"/>
      <path id="Path_364" data-name="Path 364" d="M373.738,1056.052a6.149,6.149,0,0,0-1,.935A6.149,6.149,0,0,1,373.738,1056.052Z" transform="translate(-371.368 -1039.864)" fill="none"/>
      <path id="Path_365" data-name="Path 365" d="M391.286,1029.555a4.837,4.837,0,0,0-.362-1.38,6,6,0,0,0-.741-1.284,6,6,0,0,1,.741,1.284A4.837,4.837,0,0,1,391.286,1029.555Z" transform="translate(-380.624 -1024.387)" fill="none"/>
      <path id="Path_366" data-name="Path 366" d="M430.13,1059.846l-6.7-3.832,6.7,3.832Z" transform="translate(-398.27 -1039.843)" fill="none"/>
      <path id="Path_367" data-name="Path 367" d="M387.913,1070.8q-.184.161-.38.307Q387.729,1070.965,387.913,1070.8Z" transform="translate(-379.219 -1047.693)" fill="none"/>
      <path id="Path_368" data-name="Path 368" d="M381.587,1052.526a22.325,22.325,0,0,0,3.357-.752A22.325,22.325,0,0,1,381.587,1052.526Z" transform="translate(-376.063 -1037.593)" fill="none"/>
      <path id="Path_369" data-name="Path 369" d="M374.865,1054.632a6.934,6.934,0,0,1,3.155-1.256A6.934,6.934,0,0,0,374.865,1054.632Z" transform="translate(-372.495 -1038.443)" fill="none"/>
      <path id="Path_370" data-name="Path 370" d="M402.608,1051.909a.5.5,0,0,0-.2-.046A.5.5,0,0,1,402.608,1051.909Z" transform="translate(-387.115 -1037.64)" fill="none"/>
      <path id="Path_371" data-name="Path 371" d="M369.833,1029.731h0q0-.174.022-.344Q369.837,1029.558,369.833,1029.731Z" transform="translate(-369.825 -1025.712)" fill="none"/>
      <path id="Path_372" data-name="Path 372" d="M415.347,1058.333c-4.159-2.15-8.34-4.257-12.517-6.372C407.007,1054.076,411.188,1056.183,415.347,1058.333Z" transform="translate(-387.337 -1037.692)" fill="none"/>
      <path id="Path_373" data-name="Path 373" d="M370.242,1033.071a4.766,4.766,0,0,1-.221-.791A4.766,4.766,0,0,0,370.242,1033.071Z" transform="translate(-369.925 -1027.247)" fill="none"/>
      <path id="Path_374" data-name="Path 374" d="M385.944,1043.268a20.824,20.824,0,0,0-2.894-.716A20.841,20.841,0,0,1,385.944,1043.268Z" transform="translate(-376.839 -1032.699)" fill="none"/>
      <path id="Path_375" data-name="Path 375" d="M370.885,1034.78a5.178,5.178,0,0,1-.394-.815A5.178,5.178,0,0,0,370.885,1034.78Z" transform="translate(-370.174 -1028.141)" fill="none"/>
      <path id="Path_376" data-name="Path 376" d="M393.833,1049.062c.306-.166.61-.347.924-.532C394.443,1048.715,394.139,1048.9,393.833,1049.062Z" transform="translate(-382.562 -1035.871)" fill="none"/>
      <path id="Path_377" data-name="Path 377" d="M394.976,1037.726l-6.706-3.836h0l4.8-2.747,8.661-4.951c-.112-.064-.218-.127-.32-.188l-.3-.178c-.145-.086-.287-.163-.43-.235-.048-.024-.1-.05-.144-.071a3.981,3.981,0,0,0-.62-.224,2.553,2.553,0,0,0-1.893.192q-6.354,3.251-12.719,6.481a.6.6,0,0,1-.117.047.379.379,0,0,1-.109.012.477.477,0,0,1-.222-.075c-.262-.153-.526-.3-.789-.453l-1.578-.905-1.879-1.078-.631-.363h0l.033-.083c.009-.022.016-.039.024-.056a4.272,4.272,0,0,0,.41-1.3,3.961,3.961,0,0,0,.045-.531,4.076,4.076,0,0,0-.021-.46,4.838,4.838,0,0,0-.362-1.38,6,6,0,0,0-.741-1.284,6.119,6.119,0,0,0-.439-.529q-.184-.2-.383-.373a6.217,6.217,0,0,0-2.671-1.409,6.221,6.221,0,0,0-1.2-.184c-.179-.009-.36-.01-.541,0a6.061,6.061,0,0,0-1.087.139q-.172.038-.339.09a4.112,4.112,0,0,0-2.866,3.441q-.018.171-.022.345a4.821,4.821,0,0,0,.088,1.013,4.764,4.764,0,0,0,.221.791,5.18,5.18,0,0,0,.394.815,6.176,6.176,0,0,0,.535.761q.208.253.432.479t.464.421a6.132,6.132,0,0,0,1.018.68,7.349,7.349,0,0,0,2.369.762c.228.035.455.072.681.112a20.843,20.843,0,0,1,2.894.716,15.567,15.567,0,0,1,1.711.672,8.719,8.719,0,0,1,1.861,1.138c-.165.093-.324.187-.481.279-.314.185-.618.366-.924.532-.153.083-.306.162-.463.237a14.923,14.923,0,0,1-1.927.753,22.309,22.309,0,0,1-3.357.752,6.931,6.931,0,0,0-3.154,1.256,6.141,6.141,0,0,0-1,.935,6.817,6.817,0,0,0-.436.569,6.014,6.014,0,0,0-.5.865,4.4,4.4,0,0,0-.334,2.867,4.016,4.016,0,0,0,1.7,2.482,4.278,4.278,0,0,0,.542.309,4.546,4.546,0,0,0,1.229.384,6.317,6.317,0,0,0,4.737-1.183c.13-.1.257-.2.38-.307a6.033,6.033,0,0,0,.62-.622q.149-.173.285-.359t.257-.381a5.715,5.715,0,0,0,.669-1.5,4.266,4.266,0,0,0-.133-2.671c-.031-.084-.07-.166-.107-.248s-.07-.164-.107-.248h0c.058-.039.1-.068.136-.091,1.6-.913,3.191-1.829,4.793-2.732a.373.373,0,0,1,.191-.036.5.5,0,0,1,.2.046c4.177,2.115,8.358,4.222,12.517,6.372a2.894,2.894,0,0,0,2.286.236q.165-.051.331-.12a5.04,5.04,0,0,0,.637-.315,3.64,3.64,0,0,0,.6-.439ZM376.16,1028.8c-.067,0-.134,0-.2,0a3.826,3.826,0,0,1-3.419-2.184,1.667,1.667,0,0,1,.166-1.938,1.984,1.984,0,0,1,1.318-.621,3.885,3.885,0,0,1,3.8,2.286A1.715,1.715,0,0,1,376.16,1028.8Zm1.623,12.726a3.787,3.787,0,0,1-2.835,2.148c-.2.04-.4.049-.545.066a2.126,2.126,0,0,1-1.742-.705,1.741,1.741,0,0,1-.023-2.074,3.777,3.777,0,0,1,3.483-1.986,1.722,1.722,0,0,1,1.662,2.552Z" transform="translate(-369.816 -1021.555)" fill="#004785"/>
    </g>
  </g>
</svg>
