<?xml version="1.0" standalone="no"?>
<!DOCTYPE svg PUBLIC "-//W3C//DTD SVG 20010904//EN"
 "http://www.w3.org/TR/2001/REC-SVG-20010904/DTD/svg10.dtd">
<svg version="1.0" xmlns="http://www.w3.org/2000/svg"
 width="225.000000pt" height="225.000000pt" viewBox="0 0 225.000000 225.000000"
 preserveAspectRatio="xMidYMid meet">

<g transform="translate(0.000000,225.000000) scale(0.100000,-0.100000)"
fill="#000000" stroke="none">
<path d="M676 2214 c-324 -72 -576 -329 -642 -653 -22 -110 -15 -284 15 -389
86 -298 333 -529 636 -593 85 -17 266 -15 349 5 92 22 194 66 272 117 l65 42
34 -33 c33 -32 34 -35 28 -90 -4 -42 -1 -65 12 -91 20 -39 417 -443 457 -465
47 -25 119 -18 164 15 42 31 91 81 117 121 21 30 22 111 3 148 -21 39 -425
437 -463 456 -36 18 -95 21 -122 6 -14 -7 -26 -1 -56 30 l-37 38 31 46 c48 69
98 181 122 271 25 95 30 276 10 370 -64 303 -294 549 -593 636 -98 28 -304 35
-402 13z m395 -171 c219 -75 388 -259 446 -483 19 -76 21 -231 4 -305 -60
-261 -265 -466 -526 -526 -74 -17 -229 -15 -305 4 -293 76 -503 331 -517 632
-8 170 36 314 141 452 87 114 246 217 386 248 106 24 266 15 371 -22z"/>
<path d="M393 1555 c-55 -127 -51 -260 10 -389 77 -162 230 -258 412 -259 81
0 189 26 230 57 16 11 8 14 -58 20 -308 28 -535 250 -565 554 l-7 67 -22 -50z"/>
</g>
</svg>
